<svg width="32" height="32" viewBox="0 0 32 32" fill="none" xmlns="http://www.w3.org/2000/svg">
<path d="M14.0266 11.8934C12.0746 13.1894 9.56264 12.8641 8.5333 12.1708C5.2693 9.91476 5.72797 5.85662 4.2933 3.17396C4.27608 3.1428 4.26647 3.108 4.26527 3.07242C4.26406 3.03683 4.2713 3.00147 4.28639 2.96922C4.30147 2.93696 4.32398 2.90874 4.35206 2.88685C4.38014 2.86497 4.41301 2.85004 4.44797 2.84329C5.59464 2.64062 9.6853 2.14462 13.4026 4.58729C14.2412 5.20823 14.8695 6.071 15.2032 7.05962C15.5369 8.04823 15.56 9.11532 15.2693 10.1174L14.0266 11.8934Z" fill="#75B74C"/>
<path d="M17.424 12.8747C15.8778 10.3917 13.6933 8.36932 11.0987 7.0187C10.9705 6.96197 10.8324 6.93104 10.6923 6.92768C10.5522 6.92431 10.4128 6.94858 10.282 6.99909C10.1513 7.04961 10.0318 7.12538 9.93031 7.22209C9.82885 7.31879 9.74743 7.43453 9.6907 7.5627C9.63397 7.69087 9.60304 7.82896 9.59967 7.96908C9.59631 8.10921 9.62058 8.24862 9.67109 8.37937C9.72161 8.51011 9.79738 8.62963 9.89408 8.73109C9.99079 8.83255 10.1065 8.91397 10.2347 8.9707C10.4534 9.07203 15.088 11.4294 16.64 16.2614V16.2667L17.6 14.928L17.424 12.8747Z" fill="#5F8C43"/>
<path d="M18.6027 10.4571C16.6613 7.98514 17.8059 4.4214 19.92 2.783C23.7333 -0.168998 28.8747 0.539269 30.192 0.773402C30.2321 0.781742 30.2698 0.799391 30.3018 0.82493C30.3339 0.850468 30.3595 0.883181 30.3767 0.920436C30.3938 0.957691 30.4019 0.998445 30.4004 1.03942C30.3989 1.08039 30.3878 1.12044 30.368 1.15634C28.7307 4.2342 29.248 8.88967 25.504 11.4694C24.7185 11.9233 23.8393 12.191 22.9341 12.2518C22.0289 12.3127 21.1218 12.1651 20.2827 11.8203L18.6027 10.4571Z" fill="#87D356"/>
<path d="M16.5974 16.6774C16.7656 14.3115 17.5456 12.0298 18.8611 10.0561C20.1766 8.08246 21.9823 6.48444 24.1014 5.41873C24.3602 5.30415 24.654 5.2971 24.918 5.39912C25.0488 5.44963 25.1683 5.52541 25.2697 5.62211C25.3712 5.71881 25.4526 5.83456 25.5094 5.96273C25.5661 6.0909 25.597 6.22899 25.6004 6.36911C25.6037 6.50923 25.5795 6.64865 25.529 6.77939C25.4784 6.91014 25.4027 7.02965 25.306 7.13111C25.2093 7.23257 25.0935 7.31399 24.9654 7.37073C23.2175 8.27056 21.7281 9.60143 20.638 11.2374C19.548 12.8734 18.8933 14.7605 18.736 16.7201L18.1334 17.0614H17.0667L16.5974 16.6774Z" fill="#75B74C"/>
<path d="M29.183 20.1638C28.9767 19.8358 28.706 19.553 28.3872 19.3328C28.0684 19.1125 27.7082 18.9593 27.3284 18.8825C26.9486 18.8057 26.5571 18.8069 26.1778 18.8859C25.7984 18.965 25.4391 19.1203 25.1216 19.3425C24.6613 18.5761 23.9202 18.0194 23.0559 17.791C22.1916 17.5625 21.2722 17.6802 20.4934 18.119C20.1842 17.6316 19.757 17.2302 19.2512 16.9521C18.7455 16.674 18.1777 16.5282 17.6006 16.5282C17.0234 16.5282 16.4556 16.674 15.9499 16.9521C15.4441 17.2302 15.0169 17.6316 14.7078 18.119C13.9289 17.6805 13.0097 17.563 12.1455 17.7914C11.2814 18.0199 10.5404 18.5763 10.08 19.3425L18.6667 27.7281L29.183 20.1638Z" fill="#6B442A"/>
<path d="M6.36106 27.9061L17.0757 31.3584C17.4022 31.4638 17.7494 31.4887 18.0876 31.431C18.4258 31.3733 18.745 31.2348 19.0181 31.0272L30.9904 21.9328C31.1245 21.8287 31.2357 21.698 31.3168 21.5489C31.398 21.3998 31.4475 21.2355 31.4622 21.0664C31.4769 20.8973 31.4564 20.7269 31.4021 20.5661C31.3478 20.4052 31.2608 20.2574 31.1467 20.1317C30.9508 19.9168 30.685 19.7785 30.3967 19.7414C30.1083 19.7043 29.8161 19.7708 29.5723 19.9291L19.1307 26.5424C18.9949 26.6282 18.8363 26.6704 18.6759 26.6636C18.5155 26.6567 18.361 26.601 18.2331 26.504L14.9333 23.9947H22.7275C22.9159 23.9947 23.1024 23.9575 23.2765 23.8854C23.4506 23.8133 23.6087 23.7077 23.7419 23.5744C23.8751 23.4412 23.9808 23.2831 24.0529 23.109C24.125 22.9349 24.1621 22.7484 24.1621 22.56C24.1622 22.2173 24.0395 21.8859 23.8164 21.6257C23.5932 21.3656 23.2843 21.194 22.9456 21.1419L10.8587 19.2251C10.2958 19.139 9.72013 19.2355 9.216 19.5003L6.58346 20.9371C6.11314 21.1937 5.58591 21.3281 5.05013 21.328H1.6C1.3171 21.328 1.04579 21.4404 0.84575 21.6404C0.645711 21.8404 0.53333 22.1118 0.53333 22.3947V26.6683C0.532477 26.9497 0.643194 27.2199 0.841227 27.4199C1.03926 27.6198 1.30846 27.7331 1.58986 27.7349C2.7392 27.7424 4.528 27.7525 5.38133 27.752C5.71398 27.7516 6.04461 27.8036 6.36106 27.9061Z" fill="#F4BC95"/>
<path d="M31.5387 19.7702C31.2639 19.4658 30.8908 19.2677 30.4847 19.2106C30.0786 19.1536 29.6653 19.2412 29.3173 19.4582C28.8284 18.8964 28.1681 18.5112 27.4384 18.362C26.7087 18.2128 25.9503 18.3079 25.28 18.6326C24.9107 18.1665 24.4404 17.7903 23.9046 17.5323C23.3687 17.2744 22.7813 17.1414 22.1867 17.1435C21.665 17.1436 21.1484 17.246 20.6661 17.4448C20.3019 16.9991 19.8444 16.6384 19.3259 16.3883C19.4929 15.0234 19.9052 13.6999 20.5429 12.4816C21.1832 12.6896 21.8522 12.7953 22.5253 12.7947C23.6814 12.8209 24.8206 12.5139 25.8069 11.9104C28.416 10.1136 29.0933 7.35098 29.6901 4.91364C29.9297 3.70508 30.3141 2.52983 30.8352 1.41338C30.8958 1.30325 30.9294 1.18033 30.9333 1.05469C30.9372 0.929061 30.9112 0.804296 30.8576 0.690632C30.8039 0.576968 30.7241 0.477642 30.6246 0.400801C30.5251 0.32396 30.4089 0.271793 30.2853 0.248578C28.7653 -0.0212886 23.5019 -0.666089 19.5931 2.36111C18.2328 3.46048 17.3473 5.04082 17.12 6.77498C16.9363 8.07102 17.2371 9.38928 17.9648 10.4774C17.7272 10.8868 17.5107 11.3082 17.3163 11.7398C16.8738 11.1118 16.3863 10.5168 15.8576 9.95951C16.1067 8.88455 16.0345 7.76011 15.6502 6.72579C15.2658 5.69147 14.5861 4.79281 13.6955 4.14138C9.82773 1.60058 5.56853 2.10244 4.35467 2.31844C4.23666 2.33971 4.12537 2.38864 4.02992 2.46122C3.93447 2.5338 3.85758 2.62796 3.80554 2.73599C3.75351 2.84402 3.72781 2.96284 3.73055 3.08271C3.7333 3.20259 3.76441 3.32011 3.82133 3.42564C4.2778 4.39769 4.61397 5.42178 4.8224 6.47524C5.34453 8.60858 5.93653 11.0256 8.23573 12.6128C9.06611 13.0953 10.015 13.3355 10.9749 13.3062C12.0017 13.3137 13.014 13.0646 13.92 12.5814C14.8778 13.6684 15.6133 14.9326 16.0848 16.3024C15.4826 16.5502 14.9512 16.9435 14.5381 17.447C14.0559 17.248 13.5393 17.1456 13.0176 17.1456C12.4048 17.144 11.8001 17.286 11.252 17.5601C10.7039 17.8343 10.2276 18.233 9.86133 18.7243C9.54746 18.7824 9.2439 18.8867 8.96053 19.0336L6.328 20.4736C5.93528 20.6876 5.4952 20.7996 5.048 20.7995H1.6C1.17565 20.7995 0.768687 20.9681 0.468629 21.2681C0.168571 21.5682 0 21.9752 0 22.3995L0 26.6736C0.000819479 27.0954 0.167828 27.4999 0.46483 27.7994C0.761832 28.0989 1.1649 28.2693 1.58667 28.2736C2.73707 28.28 4.52267 28.3003 5.3824 28.2902C5.65819 28.3022 5.93174 28.3453 6.19787 28.4187L16.9125 31.8715C17.3208 32.0027 17.7547 32.0335 18.1775 31.9613C18.6002 31.889 18.9992 31.7159 19.3408 31.4566L28.0533 24.8315C28.1158 24.7922 28.1695 24.7403 28.2109 24.6792C28.2524 24.6181 28.2806 24.549 28.294 24.4764C28.3073 24.4037 28.3054 24.3291 28.2884 24.2573C28.2714 24.1854 28.2397 24.1178 28.1952 24.0589C28.1507 23.9999 28.0945 23.9508 28.0301 23.9147C27.9657 23.8787 27.8944 23.8563 27.8209 23.8492C27.7474 23.8421 27.6733 23.8503 27.6031 23.8733C27.5329 23.8963 27.4683 23.9337 27.4133 23.983L18.696 30.6027C18.491 30.7581 18.2516 30.8617 17.9981 30.9049C17.7445 30.9481 17.4843 30.9295 17.2395 30.8507L6.52427 27.3984C6.15694 27.2796 5.77328 27.219 5.3872 27.2187H5.38133C4.528 27.223 2.74133 27.2086 1.59467 27.2022C1.45433 27.2005 1.32031 27.1436 1.22167 27.0437C1.12303 26.9439 1.06772 26.8092 1.06773 26.6688V22.3947C1.06773 22.2533 1.12392 22.1176 1.22394 22.0176C1.32396 21.9176 1.45962 21.8614 1.60107 21.8614H5.05013C5.67509 21.8609 6.29 21.7041 6.83893 21.4054L9.464 19.9723C9.86711 19.7634 10.3257 19.6863 10.7749 19.752L22.8645 21.6683C23.0889 21.7031 23.2919 21.8213 23.433 21.9993C23.5741 22.1772 23.6428 22.4018 23.6255 22.6283C23.6082 22.8547 23.5061 23.0662 23.3396 23.2207C23.1732 23.3751 22.9545 23.4611 22.7275 23.4614H12.2667C12.1252 23.4614 11.9896 23.5176 11.8895 23.6176C11.7895 23.7176 11.7333 23.8533 11.7333 23.9947C11.7333 24.1362 11.7895 24.2718 11.8895 24.3718C11.9896 24.4719 12.1252 24.528 12.2667 24.528H14.7541L17.9083 26.9243C18.123 27.0864 18.3819 27.1793 18.6506 27.1906C18.9194 27.2019 19.1852 27.1312 19.4128 26.9878L29.8603 20.3744C29.9954 20.2858 30.1575 20.2474 30.3181 20.2661C30.4786 20.2849 30.6275 20.3594 30.7387 20.4768C30.7428 20.4822 30.7473 20.4874 30.752 20.4923C30.8163 20.5632 30.8654 20.6466 30.8962 20.7373C30.9269 20.828 30.9387 20.924 30.9308 21.0194C30.9229 21.1148 30.8955 21.2076 30.8502 21.292C30.805 21.3764 30.7429 21.4505 30.6677 21.5099L29.0133 22.768C28.9505 22.8072 28.8965 22.859 28.8547 22.9202C28.813 22.9814 28.7845 23.0506 28.7709 23.1234C28.7574 23.1962 28.7592 23.271 28.7762 23.3431C28.7932 23.4152 28.825 23.4829 28.8696 23.542C28.9142 23.6011 28.9707 23.6503 29.0353 23.6864C29.1 23.7225 29.1714 23.7447 29.2452 23.7517C29.3189 23.7587 29.3933 23.7502 29.4635 23.7268C29.5338 23.7035 29.5984 23.6658 29.6533 23.616L31.3147 22.3547C31.5053 22.2068 31.6637 22.0213 31.7798 21.8098C31.896 21.5982 31.9675 21.3651 31.99 21.1248C32.0125 20.8846 31.9855 20.6422 31.9106 20.4128C31.8357 20.1834 31.7146 19.9717 31.5547 19.791L31.5387 19.7702ZM18.8421 26.087C18.7982 26.1142 18.7471 26.1275 18.6954 26.1253C18.6438 26.1231 18.594 26.1055 18.5525 26.0747L16.5168 24.528H21.304L18.8421 26.087ZM17.6 15.9947C17.4672 15.9947 17.336 16.0038 17.2053 16.0166C17.4616 13.875 18.2452 11.8304 19.4859 10.0662C20.7267 8.3019 22.3859 6.87308 24.3147 5.90778C24.4444 5.8512 24.5912 5.84846 24.723 5.90017C24.8547 5.95188 24.9605 6.0538 25.0171 6.18351C25.0736 6.31322 25.0764 6.46009 25.0247 6.59182C24.973 6.72354 24.871 6.82933 24.7413 6.88591C23.0007 7.77454 21.5034 9.07486 20.3797 10.6738C19.2559 12.2728 18.5397 14.1221 18.2933 16.0608C18.0646 16.0185 17.8326 15.9964 17.6 15.9947ZM18.1781 6.90618C18.3665 5.45264 19.1069 4.12731 20.2459 3.20484C23.5461 0.647511 27.9792 0.977111 29.7296 1.23844C29.2577 2.33937 28.8973 3.48483 28.6539 4.65764C28.0752 7.02031 27.4768 9.46298 25.2005 11.0299C24.5844 11.381 23.9049 11.607 23.2012 11.6948C22.4975 11.7827 21.7833 11.7307 21.0997 11.5419C22.1241 9.98586 23.5293 8.7176 25.1819 7.85765C25.3739 7.7722 25.5472 7.64977 25.6919 7.49735C25.8366 7.34493 25.9498 7.1655 26.0252 6.96931C26.1005 6.77311 26.1365 6.564 26.131 6.35391C26.1256 6.14381 26.0788 5.93685 25.9933 5.74484C25.8208 5.35706 25.5012 5.05372 25.105 4.90154C24.9088 4.82618 24.6997 4.79021 24.4896 4.79568C24.2795 4.80114 24.0725 4.84793 23.8805 4.93338C21.7684 5.97737 19.9544 7.53823 18.6069 9.47098C18.2098 8.67847 18.06 7.78472 18.1781 6.90618ZM16.4245 14.3728C15.0506 11.8694 12.9742 9.82265 10.4512 8.48484C10.3871 8.45637 10.3292 8.41555 10.2809 8.36471C10.2325 8.31387 10.1947 8.25401 10.1694 8.18853C10.1442 8.12306 10.1322 8.05327 10.1339 7.98313C10.1357 7.913 10.1513 7.8439 10.1797 7.77978C10.2082 7.71566 10.249 7.65777 10.2999 7.60943C10.3507 7.56109 10.4106 7.52323 10.476 7.49802C10.5415 7.47281 10.6113 7.46075 10.6814 7.46251C10.7516 7.46428 10.8207 7.47984 10.8848 7.50831C13.303 8.78027 15.3527 10.6538 16.8363 12.9483C16.6758 13.4156 16.5391 13.8907 16.4267 14.3718L16.4245 14.3728ZM8.83627 11.7323C6.87787 10.3782 6.36 8.26564 5.85973 6.22191C5.65032 5.22319 5.34674 4.24656 4.95307 3.30511C7.78995 2.90417 10.6774 3.51562 13.1083 5.03204C13.7228 5.49236 14.2104 6.10121 14.5252 6.80151C14.84 7.50181 14.9718 8.2706 14.9083 9.03578C13.8271 8.04276 12.6173 7.19965 11.3115 6.52911C10.9235 6.35669 10.483 6.34542 10.0868 6.4978C9.69056 6.65018 9.37109 6.95372 9.19867 7.34165C9.02624 7.72957 9.01498 8.1701 9.16736 8.56633C9.31974 8.96255 9.62328 9.28202 10.0112 9.45444C11.1658 10.0705 12.2256 10.8497 13.1579 11.768C11.5349 12.5323 9.6432 12.2752 8.83627 11.7323ZM23.0288 20.6144L11.3237 18.7595C11.8158 18.4013 12.409 18.2089 13.0176 18.2102C13.5176 18.2096 14.0092 18.3382 14.4448 18.5835C14.5637 18.6508 14.7039 18.6699 14.8365 18.6369C14.9691 18.6038 15.0839 18.5212 15.1573 18.4059C15.4182 17.9941 15.7789 17.6548 16.206 17.4198C16.6332 17.1848 17.1128 17.0615 17.6003 17.0615C18.0878 17.0615 18.5674 17.1848 18.9945 17.4198C19.4216 17.6548 19.7823 17.9941 20.0432 18.4059C20.1166 18.5212 20.2315 18.6038 20.364 18.6369C20.4966 18.6699 20.6368 18.6508 20.7557 18.5835C21.4137 18.2128 22.1903 18.1134 22.9205 18.3065C23.6506 18.4996 24.2765 18.97 24.6651 19.6176C24.7029 19.6804 24.7533 19.7348 24.8131 19.7772C24.8729 19.8196 24.9408 19.8493 25.0126 19.8643C25.0844 19.8793 25.1585 19.8794 25.2303 19.8645C25.3021 19.8496 25.37 19.82 25.4299 19.7776C25.8764 19.4652 26.4185 19.3196 26.9615 19.3665C27.5045 19.4134 28.0137 19.6498 28.4 20.0342L24.688 22.3846C24.6514 21.9457 24.4675 21.5321 24.1664 21.2108C23.8652 20.8895 23.4644 20.6794 23.0288 20.6144Z" fill="#262626"/>
</svg>
