<svg width="249" height="253" viewBox="0 0 249 253" fill="none" xmlns="http://www.w3.org/2000/svg">
<path d="M212.139 129.952C163.381 101.8 84.596 101.8 36.1617 129.952C-12.2727 158.104 -12.0227 203.737 36.7298 231.889C85.4823 260.04 164.273 260.035 212.713 231.889C261.153 203.743 260.891 158.098 212.139 129.952Z" fill="#F5F5F5"/>
<path opacity="0.1" d="M115.69 172.546L101.487 164.313L93.0669 169.171L83.4994 163.626L13.4357 204.078C13.3353 204.135 13.2518 204.218 13.1937 204.317C13.1356 204.417 13.105 204.531 13.105 204.646C13.105 204.762 13.1356 204.875 13.1937 204.975C13.2518 205.075 13.3353 205.157 13.4357 205.214L26.3269 212.685C26.728 212.916 27.1825 213.037 27.645 213.037C28.1075 213.037 28.562 212.916 28.9631 212.685L36.0592 208.583L44.3087 213.367C44.7093 213.599 45.1639 213.721 45.6268 213.721C46.0897 213.721 46.5443 213.599 46.9449 213.367L115.69 173.676C115.788 173.618 115.869 173.535 115.925 173.436C115.981 173.337 116.011 173.225 116.011 173.111C116.011 172.997 115.981 172.885 115.925 172.786C115.869 172.687 115.788 172.604 115.69 172.546Z" fill="black"/>
<path opacity="0.1" d="M103.214 163.671L108.151 166.523L149.586 142.599L144.649 139.747L103.214 163.671Z" fill="black"/>
<path opacity="0.1" d="M214.4 173.716L189.226 159.183C189.061 159.081 188.925 158.939 188.831 158.77C188.737 158.601 188.688 158.411 188.688 158.217C188.688 158.024 188.737 157.834 188.831 157.665C188.925 157.496 189.061 157.353 189.226 157.251L211.417 144.36C211.59 144.261 211.786 144.208 211.985 144.208C212.185 144.208 212.381 144.261 212.554 144.36L238.291 159.217C238.454 159.319 238.588 159.461 238.682 159.63C238.775 159.798 238.824 159.988 238.824 160.18C238.824 160.373 238.775 160.562 238.682 160.731C238.588 160.899 238.454 161.041 238.291 161.143L216.639 173.716C216.298 173.913 215.912 174.017 215.519 174.017C215.126 174.017 214.74 173.913 214.4 173.716Z" fill="black"/>
<path opacity="0.1" d="M188.459 186.278C176.885 179.596 158.182 179.596 146.689 186.278C135.195 192.959 135.246 203.794 146.819 210.475C158.392 217.156 177.096 217.156 188.595 210.475C200.094 203.794 200.049 192.953 188.459 186.278Z" fill="black"/>
<path d="M196.327 30.0093L196.163 88.7612L199.43 90.6474L199.6 31.8955L196.327 30.0093Z" fill="#E0E0E0"/>
<path d="M199.6 31.896L199.43 90.6479L202.276 88.9946L202.429 33.5323L199.6 31.896Z" fill="#F0F0F0"/>
<path opacity="0.2" d="M199.594 34.5374L199.6 31.8955L196.328 30.0093L196.322 32.6455L199.594 34.5374Z" fill="black"/>
<path opacity="0.2" d="M199.594 34.5379L201.884 33.2141L199.6 31.896L199.594 34.5379Z" fill="black"/>
<path d="M156.989 7.2949L159.83 5.6416L159.665 64.3935L156.824 66.0468L156.989 7.2949Z" fill="#F0F0F0"/>
<path d="M156.824 66.0469L159.665 64.3936L241.62 111.709L238.779 113.362L156.824 66.0469Z" fill="#F5F5F5"/>
<path d="M153.734 1.63037L242.222 52.7634L242.035 119.026L153.541 67.9159L153.734 1.63037ZM238.779 113.362L238.944 54.6099L156.989 7.31182L156.824 66.0637L238.779 113.379" fill="#E0E0E0"/>
<path d="M153.734 1.6533L156.574 0L245.063 51.0933L242.222 52.7409L153.734 1.6533Z" fill="#F5F5F5"/>
<path d="M242.222 52.7409L245.063 51.0933L244.876 117.356L242.035 119.004L242.222 52.7409Z" fill="#F0F0F0"/>
<path d="M193.76 156.739L191.555 158.017L191.561 155.472L193.76 156.739Z" fill="#E6E6E6"/>
<path d="M191.652 130.752L213.076 143.121L191.652 130.752Z" fill="#CFCFCF"/>
<path d="M193.76 156.733L213.025 167.858V170.403L215.298 171.727L215.383 141.797L189.328 126.752L189.243 156.688L191.515 158.012V155.466L193.76 156.733ZM213.048 152.825L191.623 140.456L191.652 130.747L213.076 143.098L213.048 152.825ZM213.014 165.187L191.589 152.819L191.618 143.16V143.098L213.042 155.472L213.014 165.187Z" fill="#EBEBEB"/>
<path d="M191.589 152.825L191.618 143.144V143.115L213.042 155.489L213.014 165.193L191.589 152.825Z" fill="#F5F5F5"/>
<path d="M191.623 140.462L191.652 130.752L213.077 143.121L213.048 152.831L191.623 140.462Z" fill="#F5F5F5"/>
<path d="M215.4 141.803L238.143 128.582L238.058 158.518L215.315 171.733L215.4 141.803Z" fill="#E6E6E6"/>
<path d="M215.4 141.803L189.345 126.758L212.088 113.543L238.143 128.582L215.4 141.803Z" fill="#F5F5F5"/>
<path d="M220.735 116.822L213.48 117.038L206.219 116.822C205.907 121.725 206.867 126.719 208.185 129.162C208.494 129.793 208.998 130.306 209.622 130.628C210.819 131.237 212.143 131.554 213.486 131.554C214.828 131.554 216.152 131.237 217.349 130.628C217.98 130.3 218.485 129.773 218.786 129.128C220.099 126.668 221.048 121.703 220.735 116.822Z" fill="#37474F"/>
<path d="M218.571 113.851C221.411 115.493 221.411 118.157 218.605 119.799C215.798 121.441 211.185 121.435 208.344 119.805C205.503 118.174 205.503 115.498 208.31 113.856C211.116 112.214 215.73 112.209 218.571 113.851Z" fill="#455A64"/>
<path d="M217.468 114.504C219.69 115.788 219.701 117.862 217.497 119.14C216.256 119.773 214.884 120.103 213.491 120.103C212.099 120.103 210.726 119.773 209.486 119.14C207.27 117.862 207.259 115.788 209.486 114.504C210.723 113.878 212.09 113.551 213.477 113.551C214.864 113.551 216.231 113.878 217.468 114.504Z" fill="#263238"/>
<path d="M212.889 117.026C213.47 117.514 214.16 117.857 214.899 118.026C215.639 118.195 216.409 118.185 217.144 117.998C217.853 117.782 218.496 117.393 219.017 116.866C219.538 116.34 219.919 115.692 220.127 114.981C219.268 114.572 218.481 114.025 217.798 113.362C218.888 113.092 220.031 113.133 221.099 113.481C221.394 113.017 221.572 112.487 221.615 111.938C221.659 111.39 221.567 110.839 221.349 110.334C220.109 109.782 218.715 109.685 217.411 110.061C217.953 109.59 218.585 109.235 219.269 109.019C219.954 108.803 220.675 108.73 221.389 108.805C221.492 106.726 221.167 104.647 220.434 102.698C217.73 102.834 215.105 104.004 214.219 104.84C214.178 105.807 214.28 106.776 214.52 107.714C214.171 107.536 213.872 107.272 213.653 106.947C213.433 106.622 213.3 106.247 213.264 105.857C211.56 106.283 210.844 107.124 210.582 107.771C210.827 108.975 211.379 110.094 212.185 111.021C210.594 110.538 209.952 108.748 209.952 108.748C208.344 112.47 208.668 116.668 212.889 117.026Z" fill="#60A5FA"/>
<path opacity="0.2" d="M212.889 117.026C213.47 117.514 214.16 117.857 214.899 118.026C215.639 118.195 216.409 118.185 217.144 117.998C217.853 117.782 218.496 117.393 219.017 116.866C219.538 116.34 219.919 115.692 220.127 114.981C219.268 114.572 218.481 114.025 217.798 113.362C218.888 113.092 220.031 113.133 221.099 113.481C221.394 113.017 221.572 112.487 221.615 111.938C221.659 111.39 221.567 110.839 221.349 110.334C220.109 109.782 218.715 109.685 217.411 110.061C217.953 109.59 218.585 109.235 219.269 109.019C219.954 108.803 220.675 108.73 221.389 108.805C221.492 106.726 221.167 104.647 220.434 102.698C217.73 102.834 215.105 104.004 214.219 104.84C214.178 105.807 214.28 106.776 214.52 107.714C214.171 107.536 213.872 107.272 213.653 106.947C213.433 106.622 213.3 106.247 213.264 105.857C211.56 106.283 210.844 107.124 210.582 107.771C210.827 108.975 211.379 110.094 212.185 111.021C210.594 110.538 209.952 108.748 209.952 108.748C208.344 112.47 208.668 116.668 212.889 117.026Z" fill="black"/>
<path d="M212.775 117.43C212.755 117.429 212.734 117.423 212.716 117.414C212.698 117.404 212.681 117.391 212.668 117.375C212.655 117.359 212.645 117.341 212.639 117.321C212.633 117.301 212.631 117.28 212.633 117.26C212.889 113.851 214.843 108.203 219.508 103.55C219.521 103.531 219.539 103.515 219.559 103.504C219.579 103.492 219.601 103.485 219.624 103.483C219.647 103.481 219.671 103.484 219.693 103.492C219.714 103.5 219.734 103.513 219.751 103.529C219.767 103.545 219.78 103.565 219.788 103.587C219.796 103.609 219.799 103.632 219.797 103.655C219.795 103.678 219.788 103.701 219.776 103.721C219.764 103.741 219.748 103.758 219.729 103.772C215.127 108.362 213.196 113.925 212.946 117.288C212.944 117.309 212.939 117.329 212.929 117.347C212.92 117.366 212.907 117.382 212.891 117.395C212.875 117.409 212.857 117.419 212.837 117.425C212.817 117.43 212.796 117.432 212.775 117.43Z" fill="#F5F5F5"/>
<path d="M214.054 118.856C213.511 119.299 212.872 119.608 212.187 119.756C211.503 119.905 210.793 119.89 210.115 119.712C209.438 119.534 208.812 119.199 208.289 118.733C207.766 118.267 207.36 117.685 207.105 117.032C207.884 116.678 208.597 116.194 209.213 115.601C208.184 115.352 207.107 115.383 206.094 115.691C205.786 115.301 205.584 114.837 205.508 114.345C205.431 113.854 205.482 113.351 205.657 112.885C206.836 112.401 208.143 112.323 209.372 112.663C208.275 111.812 206.898 111.406 205.515 111.527C205.281 109.693 205.46 107.829 206.037 106.073C208.617 106.226 211.151 107.294 212.054 108.05C212.155 108.902 212.12 109.765 211.952 110.607C212.264 110.458 212.529 110.226 212.717 109.936C212.906 109.646 213.01 109.31 213.02 108.965C214.633 109.357 215.366 110.101 215.65 110.669C215.494 111.72 215.043 112.705 214.349 113.51C214.804 113.348 215.215 113.086 215.554 112.743C215.892 112.399 216.149 111.984 216.304 111.527C218.002 114.845 217.957 118.544 214.054 118.856Z" fill="#60A5FA"/>
<path d="M214.162 119.237C214.124 119.237 214.087 119.223 214.059 119.198C214.031 119.173 214.013 119.138 214.008 119.1C213.559 116.129 211.401 111.186 206.764 107.061C206.745 107.049 206.728 107.032 206.716 107.013C206.704 106.993 206.695 106.971 206.692 106.948C206.689 106.926 206.691 106.902 206.698 106.88C206.705 106.858 206.716 106.838 206.732 106.821C206.747 106.803 206.766 106.79 206.788 106.781C206.809 106.772 206.832 106.767 206.855 106.768C206.878 106.769 206.901 106.775 206.922 106.785C206.942 106.795 206.96 106.81 206.975 106.828C211.668 111.01 213.861 116.027 214.315 119.055C214.32 119.096 214.31 119.138 214.285 119.171C214.261 119.205 214.225 119.228 214.184 119.237H214.162Z" fill="white"/>
<path d="M48.4333 38.4517L48.4845 55.6267L50.5639 56.8369L50.5071 37.2529L48.4333 38.4517Z" fill="#F0F0F0"/>
<path d="M26.0087 68.6034L26.0143 71.0066L50.5639 56.8371L48.4845 55.627L26.0087 68.6034Z" fill="#F5F5F5"/>
<path d="M53.0184 32.9126L23.4351 49.991L23.5089 75.353L53.0866 58.2746L53.0184 32.9126ZM26.0144 71.0067V68.6035L25.969 51.4228L48.4391 38.4463L50.5129 37.2532L50.5697 56.8372L26.0144 71.0067Z" fill="#E0E0E0"/>
<path d="M53.0184 32.9128L50.9334 31.7026L21.3557 48.7811L23.4351 49.9912L53.0184 32.9128Z" fill="#F5F5F5"/>
<path d="M21.3557 48.7808L21.4296 74.1428L23.509 75.3529L23.4351 49.9909L21.3557 48.7808Z" fill="#F0F0F0"/>
<path d="M86.0675 17.232L86.1186 34.407L88.198 35.6172L88.1469 16.0332L86.0675 17.232Z" fill="#F0F0F0"/>
<path d="M63.6428 47.3832L63.6542 49.7864L88.1981 35.6169L86.1186 34.4067L63.6428 47.3832Z" fill="#F5F5F5"/>
<path d="M90.6524 11.6924L61.0747 28.7708L61.1429 54.1328L90.7376 37.0544L90.6524 11.6924ZM63.6541 49.7865V47.3833L63.6086 30.2026L86.0788 17.2318L88.1582 16.033L88.2093 35.617L63.6541 49.7865Z" fill="#E0E0E0"/>
<path d="M90.6524 11.6926L88.5729 10.4824L58.9896 27.5609L61.0747 28.771L90.6524 11.6926Z" fill="#F5F5F5"/>
<path d="M58.9896 27.5605L59.0635 52.9225L61.1429 54.1327L61.0747 28.7707L58.9896 27.5605Z" fill="#F0F0F0"/>
<path d="M41.2919 44.9688L47.4222 49.798L47.4392 54.5136L27.0542 66.2799L27.0371 61.5643L30.9232 53.8489L34.4116 56.5589L33.1788 60.3882L34.9684 56.985L41.2919 44.9688Z" fill="#E0E0E0"/>
<path d="M34.5991 47.349C35.5592 46.7808 36.3376 47.2353 36.3433 48.3375C36.3119 48.9389 36.1385 49.5242 35.8373 50.0456C35.5361 50.5671 35.1156 51.0097 34.6104 51.3373C33.6503 51.9055 32.8719 51.451 32.8662 50.3488C32.8985 49.7476 33.0723 49.1626 33.3734 48.6414C33.6745 48.1201 34.0945 47.6773 34.5991 47.349Z" fill="#E0E0E0"/>
<path d="M78.9315 23.7544L85.0561 28.5779L85.0731 33.2936L64.6881 45.0598L64.671 40.3442L68.5571 32.6288L72.0456 35.3389L70.8127 39.1739L72.6023 35.7707L78.9315 23.7544Z" fill="#E0E0E0"/>
<path d="M72.2331 26.129C73.1932 25.5609 73.9716 26.0211 73.9773 27.1233C73.9445 27.7243 73.7706 28.3092 73.4695 28.8304C73.1684 29.3516 72.7487 29.7945 72.2444 30.1231C71.2843 30.6912 70.5059 30.231 70.5002 29.1288C70.5325 28.5277 70.7063 27.9427 71.0074 27.4214C71.3086 26.9002 71.7285 26.4573 72.2331 26.129Z" fill="#E0E0E0"/>
<path d="M144.649 52.4458L103.214 76.3647L103.385 135.503L144.819 111.578L144.649 52.4458Z" fill="#60A5FA"/>
<path d="M146.979 53.8091L105.544 77.728L105.714 136.866L147.149 112.942L146.979 53.8091Z" fill="#60A5FA"/>
<path opacity="0.4" d="M146.979 53.8091L105.544 77.728L105.714 136.866L147.149 112.942L146.979 53.8091Z" fill="white"/>
<path d="M149.586 55.2974L108.151 79.222L108.316 138.354L149.751 114.436L149.586 55.2974Z" fill="#60A5FA"/>
<path opacity="0.6" d="M149.586 55.2974L108.151 79.222L108.316 138.354L149.751 114.436L149.586 55.2974Z" fill="white"/>
<path d="M128.235 59.3881C132.252 57.0701 135.525 58.9336 135.536 63.5526C135.547 68.1716 132.298 73.7792 128.281 76.12C124.264 78.4607 120.986 76.5802 120.975 71.9611C120.963 67.3421 124.258 61.7118 128.235 59.3881Z" fill="#EBEBEB"/>
<path d="M128.571 64.8993C128.872 64.7232 129.139 64.8652 129.139 65.2175V67.0526L130.741 66.1322C131.048 65.9561 131.309 66.0924 131.309 66.4447C131.296 66.638 131.238 66.8256 131.139 66.9924C131.041 67.1591 130.904 67.3004 130.741 67.4048L129.144 68.3252V70.1603C129.133 70.354 129.075 70.5421 128.976 70.7091C128.878 70.876 128.74 71.0171 128.576 71.1205C128.269 71.2966 128.008 71.1546 128.008 70.8023V68.9672L126.412 69.8876C126.099 70.0638 125.844 69.9217 125.844 69.5695C125.856 69.3768 125.914 69.1898 126.013 69.0239C126.112 68.858 126.248 68.7179 126.412 68.615L128.008 67.6946V65.8311C128.022 65.6424 128.08 65.4596 128.178 65.2977C128.275 65.1357 128.41 64.9992 128.571 64.8993Z" fill="#60A5FA"/>
<path d="M95.8909 74.0464L27.3669 113.606L27.6453 211.407L96.1693 171.841L95.8909 74.0464Z" fill="#60A5FA"/>
<path d="M13.9587 105.817L14.2371 203.612L27.6454 211.407L27.367 113.606L13.9587 105.817Z" fill="#60A5FA"/>
<path d="M95.891 74.0464L82.4827 66.2515L13.9587 105.817L27.367 113.606L95.891 74.0464Z" fill="#60A5FA"/>
<path opacity="0.2" d="M95.8909 74.0464L27.3669 113.606L27.6453 211.407L96.1693 171.841L95.8909 74.0464Z" fill="white"/>
<path opacity="0.5" d="M95.891 74.0464L82.4827 66.2515L13.9587 105.817L27.367 113.606L95.891 74.0464Z" fill="white"/>
<path opacity="0.2" d="M27.3669 113.606C27.3669 158.353 32.3723 192.192 36.1732 206.481L96.1693 171.824L95.8909 74.0293L27.3669 113.606Z" fill="black"/>
<path d="M115.299 167.529L46.7748 207.066C41.4967 200.72 27.3669 169.785 27.3669 113.606L95.8909 74.0464C95.8909 127.191 108.242 157.706 115.299 167.529Z" fill="#60A5FA"/>
<path opacity="0.6" d="M115.299 167.529L46.7748 207.066C41.4967 200.72 27.3669 169.785 27.3669 113.606L95.8909 74.0464C95.8909 127.191 108.242 157.706 115.299 167.529Z" fill="white"/>
<path d="M86.3631 120.845L42.2921 146.292C42.383 147.049 42.4739 147.807 42.5648 148.565L86.7211 123.072C86.6017 122.339 86.4768 121.595 86.3631 120.845Z" fill="#60A5FA"/>
<path d="M88.5052 132.685L44.0081 158.376C44.1368 159.134 44.2675 159.872 44.4001 160.592L88.9711 134.861C88.812 134.139 88.6586 133.44 88.5052 132.685Z" fill="#60A5FA"/>
<path d="M87.3631 126.804L43.0762 152.371C43.1841 153.132 43.2921 153.882 43.4057 154.643L87.7722 129.031L87.3631 126.804Z" fill="#60A5FA"/>
<path d="M85.4882 114.811L41.6558 140.122C41.7239 140.9 41.7978 141.673 41.8773 142.434L85.8006 117.078C85.6927 116.322 85.5904 115.567 85.4882 114.811Z" fill="#60A5FA"/>
<path d="M84.1077 102.533L40.798 127.532C40.8321 128.333 40.8718 129.122 40.9116 129.912L84.3293 104.846C84.2497 104.077 84.1759 103.306 84.1077 102.533Z" fill="#60A5FA"/>
<path d="M84.7382 108.709L41.1558 133.866C41.205 134.654 41.2618 135.438 41.3262 136.219L85.0052 110.999C84.9143 110.232 84.8234 109.47 84.7382 108.709Z" fill="#60A5FA"/>
<path d="M94.715 155.257L49.4281 181.392C49.6497 182.102 49.8656 182.789 50.0871 183.454L95.4535 157.302C95.1979 156.609 94.9536 155.933 94.715 155.257Z" fill="#60A5FA"/>
<path d="M89.7948 138.479L45.1045 164.279C45.2522 165.023 45.3999 165.75 45.5533 166.466L90.3175 140.621C90.1698 139.911 89.9652 139.195 89.7948 138.479Z" fill="#60A5FA"/>
<path d="M92.8741 149.774L47.7917 175.807C47.9849 176.523 48.1838 177.227 48.3599 177.915L93.5161 151.842C93.3115 151.155 93.09 150.485 92.8741 149.774Z" fill="#60A5FA"/>
<path d="M91.2436 144.178L46.3601 170.091C46.5306 170.824 46.701 171.54 46.8771 172.239L91.8344 146.286C91.6356 145.587 91.4367 144.888 91.2436 144.178Z" fill="#60A5FA"/>
<g opacity="0.1">
<path d="M86.3631 120.845L42.2921 146.292C42.383 147.049 42.4739 147.807 42.5648 148.565L86.7211 123.072C86.6017 122.339 86.4768 121.595 86.3631 120.845Z" fill="black"/>
<path d="M88.5052 132.685L44.0081 158.376C44.1368 159.134 44.2675 159.872 44.4001 160.592L88.9711 134.861C88.812 134.139 88.6586 133.44 88.5052 132.685Z" fill="black"/>
<path d="M87.3631 126.804L43.0762 152.371C43.1841 153.132 43.2921 153.882 43.4057 154.643L87.7722 129.031L87.3631 126.804Z" fill="black"/>
<path d="M85.4882 114.811L41.6558 140.121C41.7239 140.9 41.7978 141.672 41.8773 142.434L85.8006 117.077C85.6927 116.322 85.5904 115.566 85.4882 114.811Z" fill="black"/>
<path d="M84.1077 102.533L40.798 127.532C40.8321 128.333 40.8718 129.122 40.9116 129.912L84.3293 104.846C84.2497 104.077 84.1759 103.306 84.1077 102.533Z" fill="black"/>
<path d="M84.7383 108.709L41.1559 133.866C41.2051 134.654 41.2619 135.438 41.3263 136.219L85.0053 110.999C84.9144 110.232 84.8235 109.47 84.7383 108.709Z" fill="black"/>
<path d="M94.715 155.257L49.4281 181.392C49.6497 182.102 49.8656 182.789 50.0871 183.454L95.4535 157.302C95.1979 156.609 94.9536 155.933 94.715 155.257Z" fill="black"/>
<path d="M89.7948 138.479L45.1045 164.279C45.2522 165.023 45.3999 165.75 45.5533 166.466L90.3175 140.621C90.1698 139.911 89.9652 139.195 89.7948 138.479Z" fill="black"/>
<path d="M92.8742 149.774L47.7919 175.807C47.985 176.523 48.1839 177.227 48.36 177.915L93.5162 151.842C93.3117 151.155 93.0901 150.485 92.8742 149.774Z" fill="black"/>
<path d="M91.2436 144.178L46.3601 170.091C46.5306 170.824 46.701 171.54 46.8771 172.239L91.8344 146.286C91.6356 145.587 91.4367 144.888 91.2436 144.178Z" fill="black"/>
</g>
<g opacity="0.3">
<path d="M86.3631 120.845L42.2921 146.292C42.383 147.049 42.4739 147.807 42.5648 148.565L86.7211 123.072C86.6017 122.339 86.4768 121.595 86.3631 120.845Z" fill="white"/>
<path d="M88.5052 132.685L44.0081 158.376C44.1368 159.134 44.2675 159.872 44.4001 160.592L88.9711 134.861C88.812 134.139 88.6586 133.44 88.5052 132.685Z" fill="white"/>
<path d="M87.3631 126.804L43.0762 152.371C43.1841 153.132 43.2921 153.882 43.4057 154.643L87.7722 129.031L87.3631 126.804Z" fill="white"/>
<path d="M85.4882 114.811L41.6558 140.121C41.7239 140.9 41.7978 141.672 41.8773 142.434L85.8006 117.077C85.6927 116.322 85.5904 115.566 85.4882 114.811Z" fill="white"/>
<path d="M84.1077 102.533L40.798 127.532C40.8321 128.333 40.8718 129.122 40.9116 129.912L84.3293 104.846C84.2497 104.077 84.1759 103.306 84.1077 102.533Z" fill="white"/>
<path d="M84.7383 108.709L41.1559 133.866C41.2051 134.654 41.2619 135.438 41.3263 136.219L85.0053 110.999C84.9144 110.232 84.8235 109.47 84.7383 108.709Z" fill="white"/>
<path d="M94.715 155.257L49.4281 181.392C49.6497 182.102 49.8656 182.789 50.0871 183.454L95.4535 157.302C95.1979 156.609 94.9536 155.933 94.715 155.257Z" fill="white"/>
<path d="M89.7948 138.479L45.1045 164.279C45.2522 165.023 45.3999 165.75 45.5533 166.466L90.3175 140.621C90.1698 139.911 89.9652 139.195 89.7948 138.479Z" fill="white"/>
<path d="M92.8742 149.774L47.7919 175.807C47.985 176.523 48.1839 177.227 48.36 177.915L93.5162 151.842C93.3117 151.155 93.0901 150.485 92.8742 149.774Z" fill="white"/>
<path d="M91.2436 144.178L46.3601 170.091C46.5306 170.824 46.701 171.54 46.8771 172.239L91.8344 146.286C91.6356 145.587 91.4367 144.888 91.2436 144.178Z" fill="white"/>
</g>
<path d="M169.363 205.458C168.971 206.276 167.738 207.032 166.386 207.253C165.034 207.475 163.659 207.185 162.301 206.992C160.281 206.711 158.236 206.659 156.205 206.839C154.948 207.001 153.683 207.09 152.415 207.106C151.136 207.116 149.886 206.718 148.848 205.969C148.134 205.405 147.658 204.594 147.512 203.697C147.452 204.28 147.544 204.868 147.778 205.406C148.012 205.943 148.38 206.411 148.848 206.765C149.886 207.513 151.136 207.911 152.415 207.901C153.683 207.887 154.949 207.796 156.205 207.628C158.237 207.451 160.282 207.504 162.301 207.787C163.659 207.975 165.142 208.356 166.483 208.14C167.824 207.924 169.068 207.162 169.46 206.35L169.363 205.458Z" fill="#263238"/>
<path d="M154.569 203.05C155.705 203.05 155.285 201.345 156.37 200.237C155.927 200.237 155.489 200.271 155.046 200.266C154.074 201.669 153.802 203.05 154.569 203.05Z" fill="white"/>
<path d="M156.932 202.958C158.069 202.958 157.773 200.953 158.898 199.782C158.643 199.872 158.383 199.948 158.12 200.009C157.898 200.055 157.671 200.095 157.444 200.129C156.444 201.549 156.154 202.958 156.932 202.958Z" fill="white"/>
<path d="M168.187 199.112C168.113 198.746 167.912 198.418 167.619 198.186L161.472 198.033C160.817 198.859 159.928 199.469 158.921 199.783C157.785 200.953 158.097 202.959 156.955 202.959C156.177 202.959 156.466 201.55 157.466 200.118C157.108 200.169 156.751 200.203 156.393 200.226C155.307 201.362 155.728 203.038 154.592 203.038C153.825 203.038 154.097 201.657 155.069 200.254H154.205C153.944 200.254 153.683 200.254 153.421 200.209C151.149 201.998 150.967 203.936 151.262 206.981C151.651 207.049 152.044 207.089 152.438 207.1C153.706 207.085 154.971 206.996 156.228 206.833C158.259 206.654 160.304 206.706 162.324 206.987C163.682 207.18 165.057 207.47 166.409 207.248C167.761 207.026 168.994 206.271 169.386 205.453L168.187 199.112Z" fill="#455A64"/>
<path d="M153.398 200.214C152.38 200.055 151.343 200.055 150.325 200.214C149.693 200.338 149.105 200.626 148.619 201.049C148.134 201.471 147.768 202.014 147.558 202.623C147.472 202.976 147.456 203.343 147.512 203.703C147.658 204.6 148.134 205.411 148.848 205.975C149.55 206.502 150.372 206.847 151.239 206.981C150.961 203.941 151.137 202.004 153.398 200.214Z" fill="white"/>
<path d="M161.273 196.283V199.243C161.273 199.565 161.401 199.874 161.629 200.102C161.857 200.331 162.166 200.459 162.489 200.459H165.591C166.109 200.459 166.607 200.257 166.979 199.897C167.352 199.536 167.569 199.045 167.585 198.527L167.659 196.283H161.273Z" fill="#FFA8A7"/>
<path d="M181.755 194.965C181.586 195.327 181.325 195.639 180.998 195.868C180.671 196.097 180.289 196.237 179.891 196.271C179.063 196.333 178.237 196.135 177.528 195.703C176.465 195.027 176.05 193.959 175.323 192.999C174.562 192.07 173.698 191.229 172.749 190.493C171.73 189.741 170.892 188.77 170.295 187.653C170.147 187.322 170.049 186.972 170.005 186.613C169.913 187.293 170.014 187.986 170.295 188.613C170.891 189.731 171.729 190.702 172.749 191.453C173.697 192.193 174.56 193.035 175.323 193.965C176.05 194.925 176.459 195.993 177.528 196.669C178.237 197.1 179.063 197.299 179.891 197.237C180.289 197.202 180.671 197.063 180.998 196.834C181.325 196.604 181.586 196.293 181.755 195.93C181.879 195.391 181.917 194.835 181.868 194.283C181.867 194.515 181.829 194.745 181.755 194.965Z" fill="#263238"/>
<path d="M174.772 188.465C174.662 188.609 174.609 188.789 174.624 188.97C174.642 189.058 174.683 189.14 174.741 189.207C174.8 189.275 174.875 189.327 174.96 189.357C175.08 189.387 175.206 189.386 175.327 189.354C175.447 189.322 175.557 189.261 175.647 189.175C175.828 189.003 175.989 188.813 176.13 188.607C176.54 188.088 177.087 187.695 177.709 187.471C178.013 187.358 178.33 187.288 178.653 187.26L177.886 186.562C177.402 186.586 176.928 186.702 176.488 186.902C175.771 187.238 175.173 187.782 174.772 188.465Z" fill="white"/>
<path d="M174.937 186.022C174.222 186.363 173.627 186.914 173.232 187.601C173.125 187.749 173.072 187.93 173.085 188.112C173.103 188.199 173.144 188.28 173.202 188.347C173.261 188.413 173.336 188.464 173.42 188.493C173.54 188.524 173.667 188.524 173.787 188.492C173.908 188.46 174.018 188.398 174.107 188.311C174.289 188.141 174.451 187.95 174.59 187.743C174.957 187.272 175.437 186.901 175.985 186.664C176.533 186.426 177.132 186.331 177.726 186.385L176.954 185.709C176.266 185.632 175.569 185.74 174.937 186.022Z" fill="white"/>
<path d="M176.465 185.255C175.768 184.574 174.951 184.027 174.056 183.642C173.514 183.406 172.918 183.324 172.332 183.405C171.747 183.487 171.196 183.728 170.738 184.102C170.427 184.429 170.199 184.825 170.071 185.257C169.944 185.69 169.921 186.147 170.005 186.59C170.049 186.949 170.147 187.3 170.295 187.63C170.496 188.064 170.752 188.471 171.056 188.84C171.352 186.193 173.653 184.954 176.465 185.255Z" fill="white"/>
<path d="M181.817 192.368C181.83 191.47 181.624 190.583 181.215 189.783L179.721 188.215L178.652 187.244C178.33 187.271 178.013 187.342 177.709 187.454C177.087 187.678 176.54 188.072 176.13 188.59C175.989 188.796 175.827 188.986 175.647 189.158C175.557 189.244 175.447 189.306 175.327 189.337C175.206 189.369 175.08 189.37 174.96 189.34C174.875 189.31 174.8 189.258 174.741 189.191C174.683 189.123 174.642 189.042 174.624 188.954C174.609 188.773 174.662 188.593 174.772 188.448C175.167 187.761 175.761 187.21 176.477 186.869C176.917 186.668 177.391 186.552 177.874 186.528L177.704 186.369C177.109 186.314 176.51 186.41 175.962 186.647C175.414 186.884 174.935 187.256 174.568 187.727C174.428 187.934 174.266 188.124 174.085 188.295C173.995 188.381 173.885 188.444 173.765 188.475C173.644 188.507 173.518 188.508 173.397 188.477C173.313 188.447 173.238 188.397 173.18 188.33C173.121 188.263 173.08 188.183 173.062 188.096C173.05 187.913 173.102 187.732 173.21 187.585C173.577 186.936 174.127 186.41 174.79 186.071C175.453 185.732 176.202 185.594 176.942 185.676L176.914 185.647L176.454 185.238C173.641 184.937 171.34 186.176 171.045 188.823C171.563 189.42 172.133 189.97 172.749 190.465C173.699 191.201 174.562 192.042 175.323 192.971C176.05 193.931 176.459 194.999 177.528 195.675C178.237 196.106 179.063 196.305 179.891 196.243C180.289 196.208 180.671 196.069 180.998 195.84C181.325 195.61 181.586 195.299 181.755 194.936C181.83 194.715 181.868 194.483 181.868 194.249C181.897 193.584 181.834 192.641 181.817 192.368Z" fill="#455A64"/>
<path d="M176.425 187.692L176.602 190.868C178.607 192.005 180.715 191.397 181.414 190.664L181.55 187.692H176.425Z" fill="#FFA8A7"/>
<path d="M180.374 119.003C180.202 118.664 180.099 118.293 180.073 117.913L179.897 115.186L160.466 116.435C160.211 117.793 159.949 119.464 159.694 121.356C166.64 123.17 174.013 122.331 180.374 119.003Z" fill="#FFA8A7"/>
<path d="M179.993 108.004L184.135 115.998L180.374 122.293L184.533 128.895L190.811 119.146C191.233 118.485 191.509 117.742 191.62 116.966C191.731 116.189 191.674 115.398 191.453 114.646C190.379 110.847 189.015 107.135 187.373 103.544L179.993 108.004Z" fill="#FFA8A7"/>
<path d="M176.704 92.534C181.47 91.6477 184.192 93.2329 188.214 104.011C186.572 107.698 179.596 109.056 179.596 109.056L176.704 92.534Z" fill="#455A64"/>
<path opacity="0.2" d="M176.704 92.534C181.47 91.6477 184.192 93.2329 188.214 104.011C186.572 107.698 179.596 109.056 179.596 109.056L176.704 92.534Z" fill="white"/>
<path d="M160.625 81.3579L159.023 84.1532L160.779 84.8009L160.625 81.3579Z" fill="#FF9192"/>
<path d="M160.449 80.1142C160.705 77.6655 161.421 75.3589 163.017 74.1885C162.589 77.2334 163.238 80.3321 164.852 82.9493C165.011 82.1403 165.427 81.4046 166.04 80.8528C166.335 80.5666 166.704 80.369 167.106 80.2826C167.508 80.1963 167.926 80.2245 168.312 80.3642C168.84 80.6165 169.248 81.0651 169.449 81.6141C169.662 82.1421 169.72 82.7204 169.614 83.2801C169.508 83.8397 169.244 84.3572 168.852 84.7709C168.461 85.1845 167.958 85.4769 167.405 85.6133C166.852 85.7497 166.272 85.7242 165.733 85.54C165.953 86.6282 166.486 87.6286 167.266 88.4187C168.046 89.2088 169.039 89.7544 170.125 89.9886C171.552 90.2765 173.032 90.1362 174.38 89.5852L175.045 92.8804C172.358 95.7212 167.767 93.8236 167.767 93.8236L167.165 90.5738C161.881 90.8919 161.387 90.801 160.807 87.8921C160.329 85.3285 160.208 82.7109 160.449 80.1142Z" fill="#FFA8A7"/>
<path d="M159.818 74.251C160.294 73.1759 160.987 72.2112 161.854 71.4181C162.722 70.6249 163.745 70.0206 164.858 69.6433C167.092 68.9004 169.474 68.719 171.795 69.1149C173.236 69.2787 174.637 69.6921 175.937 70.3365C177.252 71.0043 178.324 72.0699 178.999 73.3817L179.272 71.1091C179.552 71.1685 179.812 71.3005 180.026 71.492C180.239 71.6834 180.398 71.9276 180.488 72.2C180.563 72.4882 180.564 72.7908 180.492 73.0797C180.419 73.3687 180.275 73.6348 180.073 73.8533H180.283C181.214 73.8525 182.136 74.0352 182.996 74.3909C183.856 74.7466 184.638 75.2684 185.296 75.9264C185.955 76.5843 186.477 77.3656 186.834 78.2255C187.19 79.0854 187.373 80.0072 187.373 80.938V92.9714C186.459 92.9721 185.554 92.7926 184.709 92.4431C183.864 92.0936 183.097 91.581 182.451 90.9346C181.804 90.2881 181.291 89.5206 180.942 88.6759C180.592 87.8311 180.413 86.9258 180.414 86.0116V83.2731C179.552 85.3194 178.183 87.1124 176.437 88.483C175.817 88.936 175.141 89.3065 174.425 89.5852C173.078 90.1362 171.597 90.2765 170.17 89.9886C169.085 89.7544 168.091 89.2088 167.311 88.4187C166.531 87.6286 165.999 86.6282 165.778 85.54C166.317 85.7242 166.898 85.7497 167.451 85.6133C168.004 85.477 168.506 85.1845 168.897 84.7709C169.289 84.3572 169.553 83.8397 169.659 83.2801C169.765 82.7204 169.708 82.1421 169.494 81.6141C169.293 81.0651 168.885 80.6165 168.358 80.3642C167.971 80.2245 167.553 80.1963 167.151 80.2827C166.749 80.369 166.38 80.5666 166.085 80.8528C165.473 81.4046 165.056 82.1403 164.898 82.9493C163.284 80.3321 162.635 77.2334 163.063 74.1885C161.466 75.3589 160.75 77.6655 160.495 80.1142C159.905 79.2695 159.534 78.2914 159.416 77.268C159.298 76.2445 159.436 75.2078 159.818 74.251Z" fill="#60A5FA"/>
<path opacity="0.4" d="M159.818 74.251C160.294 73.1759 160.987 72.2112 161.854 71.4181C162.722 70.6249 163.745 70.0206 164.858 69.6433C167.092 68.9004 169.474 68.719 171.795 69.1149C173.236 69.2787 174.637 69.6921 175.937 70.3365C177.252 71.0043 178.324 72.0699 178.999 73.3817L179.272 71.1091C179.552 71.1685 179.812 71.3005 180.026 71.492C180.239 71.6834 180.398 71.9276 180.488 72.2C180.563 72.4882 180.564 72.7908 180.492 73.0797C180.419 73.3687 180.275 73.6348 180.073 73.8533H180.283C181.214 73.8525 182.136 74.0352 182.996 74.3909C183.856 74.7466 184.638 75.2684 185.296 75.9264C185.955 76.5843 186.477 77.3656 186.834 78.2255C187.19 79.0854 187.373 80.0072 187.373 80.938V92.9714C186.459 92.9721 185.554 92.7926 184.709 92.4431C183.864 92.0936 183.097 91.581 182.451 90.9346C181.804 90.2881 181.291 89.5206 180.942 88.6759C180.592 87.8311 180.413 86.9258 180.414 86.0116V83.2731C179.552 85.3194 178.183 87.1124 176.437 88.483C175.817 88.936 175.141 89.3065 174.425 89.5852C173.078 90.1362 171.597 90.2765 170.17 89.9886C169.085 89.7544 168.091 89.2088 167.311 88.4187C166.531 87.6286 165.999 86.6282 165.778 85.54C166.317 85.7242 166.898 85.7497 167.451 85.6133C168.004 85.477 168.506 85.1845 168.897 84.7709C169.289 84.3572 169.553 83.8397 169.659 83.2801C169.765 82.7204 169.708 82.1421 169.494 81.6141C169.293 81.0651 168.885 80.6165 168.358 80.3642C167.971 80.2245 167.553 80.1963 167.151 80.2827C166.749 80.369 166.38 80.5666 166.085 80.8528C165.473 81.4046 165.056 82.1403 164.898 82.9493C163.284 80.3321 162.635 77.2334 163.063 74.1885C161.466 75.3589 160.75 77.6655 160.495 80.1142C159.905 79.2695 159.534 78.2914 159.416 77.268C159.298 76.2445 159.436 75.2078 159.818 74.251Z" fill="black"/>
<path d="M167.784 93.8232L162.585 94.8459C161.449 96.948 160.262 98.9251 159.114 101.027C158.25 102.612 157.358 104.294 157.41 106.101C157.46 107.064 157.778 107.994 158.33 108.785C158.881 109.576 159.643 110.197 160.529 110.578L159.926 117.68C168.091 120.174 178.073 117.981 180.266 116.094C180.914 113.117 181.482 109.953 182.124 106.976C182.606 105.056 182.901 103.095 183.005 101.118C183.104 99.1321 182.628 97.1596 181.635 95.4367L181.641 95.3742C180.958 94.3473 179.992 93.5411 178.859 93.0539C177.726 92.5667 176.476 92.4194 175.261 92.6301L167.784 93.8232Z" fill="#455A64"/>
<path opacity="0.3" d="M167.784 93.8232L162.585 94.8459C161.449 96.948 160.262 98.9251 159.114 101.027C158.25 102.612 157.358 104.294 157.41 106.101C157.46 107.064 157.778 107.994 158.33 108.785C158.881 109.576 159.643 110.197 160.529 110.578L159.926 117.68C168.091 120.174 178.073 117.981 180.266 116.094C180.914 113.117 181.482 109.953 182.124 106.976C182.606 105.056 182.901 103.095 183.005 101.118C183.104 99.1321 182.628 97.1596 181.635 95.4367L181.641 95.3742C180.958 94.3473 179.992 93.5411 178.859 93.0539C177.726 92.5667 176.476 92.4194 175.261 92.6301L167.784 93.8232Z" fill="white"/>
<path d="M180.675 119.503C180.557 119.348 180.456 119.18 180.374 119.003C174.013 122.331 166.64 123.17 159.693 121.356C158.228 132.258 156.972 150.717 157.745 162.898C158.387 177.074 160.994 197.152 160.994 197.152C164.403 198.169 166.949 197.549 167.914 196.811C169.051 182.744 171.545 173.108 169.619 163.807C170.909 157.302 171.738 149.138 171.738 149.138L172.721 163.501L176.05 188.755C176.984 189.235 178.028 189.46 179.076 189.407C180.125 189.354 181.141 189.025 182.022 188.453C184.442 174.011 185.351 164.228 183.232 157.058C186.459 133.36 186.623 127.298 180.675 119.503Z" fill="#455A64"/>
<path opacity="0.3" d="M173.164 146.297L174.948 138.815C177.028 138.474 180.277 137.11 181.988 134.27C179.522 136.203 176.49 137.272 173.357 137.315L171.733 149.149L172.079 154.206L172.221 152.365C172.372 150.32 172.688 148.291 173.164 146.297Z" fill="black"/>
<path d="M148.978 95.3401C146.271 95.3019 143.573 95.0051 140.922 94.4538C140.922 94.4538 135.718 88.4542 133.354 84.9032C133.067 84.4707 132.895 83.9721 132.854 83.4545C132.823 83.2055 132.823 82.9535 132.854 82.7045L133.638 77.7673C133.709 77.3364 133.676 76.8949 133.543 76.4791C133.409 76.0633 133.179 75.6851 132.871 75.3755L130.281 72.7563C130.156 72.6417 129.993 72.5779 129.824 72.5776C129.655 72.5774 129.491 72.6406 129.366 72.7548C129.242 72.869 129.164 73.0259 129.149 73.1944C129.134 73.363 129.183 73.5311 129.286 73.6653L131.195 75.9379L127.531 76.8242C127.319 76.8754 127.125 76.9818 126.969 77.1325C126.812 77.2832 126.698 77.4729 126.639 77.6821L126.218 79.1934C126.13 79.5064 126.16 79.841 126.302 80.1333C126.445 80.4257 126.69 80.6554 126.991 80.7785L127.485 80.9887V81.3353C127.463 82.1969 127.78 83.033 128.366 83.6647C128.514 84.1078 129.059 85.2555 129.059 85.2555L134.337 98.783C134.669 99.6605 135.225 100.436 135.948 101.034C136.671 101.632 137.538 102.031 138.462 102.192L147.41 103.754C148.453 102.655 149.157 101.278 149.438 99.7888C149.719 98.2998 149.565 96.7612 148.995 95.3571L148.978 95.3401Z" fill="#FFA8A7"/>
<path d="M161.756 94.7495C158.534 94.9029 153.705 95.4313 148.961 95.3176C149.531 96.7218 149.685 98.2603 149.404 99.7494C149.123 101.238 148.419 102.615 147.376 103.715L158.546 105.669C159.724 105.856 160.93 105.596 161.928 104.942C162.926 104.287 163.644 103.285 163.943 102.13C164.29 100.715 164.665 99.5276 164.881 98.1527C164.941 97.7155 164.903 97.2706 164.772 96.8495C164.64 96.4284 164.417 96.0415 164.118 95.7165C163.82 95.3915 163.453 95.1364 163.045 94.9692C162.637 94.802 162.197 94.727 161.756 94.7495Z" fill="#455A64"/>
<path opacity="0.2" d="M161.756 94.7495C158.534 94.9029 153.705 95.4313 148.961 95.3176C149.531 96.7218 149.685 98.2603 149.404 99.7494C149.123 101.238 148.419 102.615 147.376 103.715L158.546 105.669C159.724 105.856 160.93 105.596 161.928 104.942C162.926 104.287 163.644 103.285 163.943 102.13C164.29 100.715 164.665 99.5276 164.881 98.1527C164.941 97.7155 164.903 97.2706 164.772 96.8495C164.64 96.4284 164.417 96.0415 164.118 95.7165C163.82 95.3915 163.453 95.1364 163.045 94.9692C162.637 94.802 162.197 94.727 161.756 94.7495Z" fill="white"/>
</svg>
