<svg width="32" height="32" viewBox="0 0 32 32" fill="none" xmlns="http://www.w3.org/2000/svg">
<path fill-rule="evenodd" clip-rule="evenodd" d="M15.9844 0C24.7785 0 31.9688 7.19018 31.9688 15.9844C31.9688 24.7785 24.7786 31.9688 15.9844 31.9688C7.19024 31.9688 0 24.7785 0 15.9844C0 7.19024 7.19024 0 15.9844 0Z" fill="#60A5FA"/>
<path fill-rule="evenodd" clip-rule="evenodd" d="M17.0777 8.44116V9.93677C17.0781 10.3192 17.009 10.6984 16.8739 11.0561C16.8663 11.0702 16.8606 11.0851 16.8568 11.1006C16.4147 12.2174 15.3564 13.0256 14.1035 13.1035V11.6079C14.1035 9.925 15.4204 8.54399 17.0777 8.44116Z" fill="#FFFFFE"/>
<path fill-rule="evenodd" clip-rule="evenodd" d="M19.5801 12.117L18.5322 13.168C17.933 13.769 17.1363 14.0999 16.2888 14.0999C15.5984 14.0999 14.9413 13.8801 14.3975 13.4735C15.1644 13.3683 15.8726 13.0181 16.4293 12.4613C16.7583 12.1321 17.0153 11.7502 17.1921 11.3343C17.2882 11.3255 17.3845 11.3211 17.481 11.321C18.262 11.321 19.0001 11.6023 19.5801 12.117ZM13.7062 11.6078V13.1034C12.4533 13.0256 11.3951 12.2174 10.953 11.1005C10.9492 11.0851 10.9435 11.0702 10.9359 11.0561C10.8007 10.6984 10.7316 10.3192 10.732 9.93677V8.44116C12.3893 8.54393 13.7062 9.92493 13.7062 11.6078Z" fill="#FFFFFE"/>
<path fill-rule="evenodd" clip-rule="evenodd" d="M22.0605 19.0507C22.0522 19.0755 22.0489 19.1016 22.0508 19.1277C22.0526 19.1537 22.0596 19.1791 22.0713 19.2024L22.2765 19.613C22.4218 19.9033 22.4974 20.2235 22.4972 20.5481C22.4972 21.0026 22.1286 21.3725 21.6755 21.3725C21.6212 21.3724 21.5671 21.367 21.5138 21.3565L18.6151 20.7028L16.1153 20.1388C15.6325 20.0301 15.2954 19.6084 15.2954 19.1136C15.2954 19.0038 15.2065 18.9149 15.0967 18.9149C14.9869 18.9149 14.898 19.0038 14.898 19.1136C14.898 19.4411 15.0107 19.7624 15.2152 20.0182C15.4196 20.274 15.7082 20.4545 16.0278 20.5265L18.339 21.0479L17.6154 24.726H12.6133C12.6101 23.3517 12.4407 21.9721 12.1095 20.6249C11.7785 19.2788 11.2862 17.9641 10.6459 16.7174C10.2298 15.9068 9.9937 15.0382 9.94212 14.1306C10.4269 14.3706 10.964 14.4975 11.5207 14.4975C12.4096 14.4975 13.2489 14.174 13.9047 13.5824C14.5606 14.174 15.3998 14.4975 16.2887 14.4975C17.2425 14.4975 18.1392 14.1251 18.8134 13.4488L20.0054 12.2534C20.0425 12.2161 20.0634 12.1657 20.0634 12.1131C20.0634 12.0604 20.0425 12.01 20.0054 11.9727C19.3311 11.2964 18.4344 10.9239 17.4808 10.9239C17.4327 10.9238 17.3846 10.9249 17.3365 10.927C17.4286 10.6051 17.4752 10.2719 17.4749 9.93702V8.23653C17.4749 8.21043 17.4697 8.18459 17.4598 8.16048C17.4498 8.13637 17.4351 8.11446 17.4167 8.09601C17.3982 8.07756 17.3763 8.06292 17.3522 8.05294C17.3281 8.04296 17.3023 8.03782 17.2762 8.03783C16.3225 8.03783 15.426 8.40921 14.7517 9.08355C14.3659 9.46925 14.0793 9.92778 13.9046 10.4281C13.7299 9.92778 13.4433 9.46925 13.0575 9.08355C12.876 8.90167 12.6755 8.73983 12.4594 8.60082C13.5989 7.72092 14.9979 7.24348 16.4377 7.24316C19.9845 7.24316 23.3396 10.5711 23.3904 14.1149L22.5553 14.9502C22.5239 14.9815 22.5039 15.0224 22.4985 15.0664C22.4931 15.1103 22.5025 15.1548 22.5253 15.1928L23.7389 17.2155L22.6329 17.5842C22.6058 17.5932 22.5811 17.6079 22.5602 17.6273C22.5394 17.6467 22.523 17.6703 22.5121 17.6966C22.5012 17.723 22.4961 17.7513 22.4971 17.7797C22.4981 17.8082 22.5052 17.8361 22.518 17.8616L22.8761 18.5778L22.1598 18.936C22.1128 18.9596 22.0771 19.0008 22.0605 19.0507Z" fill="#FFFFFE"/>
<path fill-rule="evenodd" clip-rule="evenodd" d="M13.4122 13.4736C12.8684 13.8802 12.2113 14.1 11.5208 14.1C10.9206 14.1 10.3457 13.934 9.84852 13.6235C9.84179 13.6186 9.8347 13.6141 9.82732 13.6102L9.82667 13.6098C9.62793 13.4832 9.44375 13.335 9.27747 13.1681L8.2296 12.1171C8.80956 11.6024 9.54764 11.321 10.3287 11.321C10.425 11.321 10.5218 11.3255 10.6175 11.3343C10.7943 11.7501 11.0513 12.1321 11.3804 12.4613C11.937 13.0182 12.6453 13.3684 13.4122 13.4736Z" fill="#FFFFFE"/>
</svg>
