<svg width="402" height="874" viewBox="0 0 402 874" fill="none" xmlns="http://www.w3.org/2000/svg">
<g clip-path="url(#clip0_59_1040)">
<rect width="402" height="874" fill="#F9FAFB"/>
<path d="M59.7103 34.5V25.2109H59.5697L56.765 27.1875V25.2969L59.7103 23.2266H61.7181V34.5H59.7103ZM67.2966 34.5V25.2109H67.1559L64.3512 27.1875V25.2969L67.2966 23.2266H69.3044V34.5H67.2966ZM73.1484 34.6484C72.7943 34.6484 72.4974 34.5312 72.2578 34.2969C72.0234 34.0573 71.9062 33.7656 71.9062 33.4219C71.9062 33.0729 72.0234 32.7812 72.2578 32.5469C72.4974 32.3073 72.7943 32.1875 73.1484 32.1875C73.5078 32.1875 73.8047 32.3073 74.0391 32.5469C74.2734 32.7812 74.3906 33.0729 74.3906 33.4219C74.3906 33.7656 74.2734 34.0573 74.0391 34.2969C73.8047 34.5312 73.5078 34.6484 73.1484 34.6484ZM78.7347 34.5V25.2109H78.5941L75.7894 27.1875V25.2969L78.7347 23.2266H80.7425V34.5H78.7347ZM87.6256 34.7812C86.86 34.7812 86.1855 34.638 85.6022 34.3516C85.0189 34.0651 84.5553 33.6771 84.2116 33.1875C83.8678 32.6927 83.6699 32.138 83.6178 31.5234L83.61 31.4219H85.4616L85.4772 31.4766C85.5293 31.7839 85.6517 32.0625 85.8444 32.3125C86.0371 32.5625 86.2871 32.763 86.5944 32.9141C86.9017 33.0599 87.248 33.1328 87.6334 33.1328C88.0709 33.1328 88.4564 33.0365 88.7897 32.8438C89.1282 32.651 89.3913 32.3854 89.5788 32.0469C89.7663 31.7031 89.86 31.3125 89.86 30.875V30.8594C89.86 30.4219 89.7636 30.0365 89.5709 29.7031C89.3834 29.3646 89.123 29.1016 88.7897 28.9141C88.4616 28.7214 88.0814 28.625 87.6491 28.625C87.3314 28.625 87.0371 28.6719 86.7663 28.7656C86.5006 28.8594 86.2636 29 86.0553 29.1875C85.9511 29.276 85.8548 29.375 85.7663 29.4844C85.6777 29.5885 85.5996 29.7031 85.5319 29.8281H83.8053L84.3522 23.2266H91.1178V24.875H85.9225L85.6022 28.3125H85.7428C85.8991 28.0573 86.097 27.8411 86.3366 27.6641C86.5761 27.4818 86.8496 27.3438 87.1569 27.25C87.4642 27.151 87.7923 27.1016 88.1413 27.1016C88.8496 27.1016 89.4746 27.263 90.0163 27.5859C90.5631 27.9036 90.9928 28.3438 91.3053 28.9062C91.6178 29.4635 91.7741 30.1016 91.7741 30.8203V30.8359C91.7741 31.6172 91.597 32.3047 91.2428 32.8984C90.8939 33.487 90.4069 33.9479 89.7819 34.2812C89.1569 34.6146 88.4381 34.7812 87.6256 34.7812Z" fill="black"/>
<path d="M298.049 26C298.049 25.4477 298.497 25 299.049 25H300.049C300.602 25 301.049 25.4477 301.049 26V34C301.049 34.5523 300.602 35 300.049 35H299.049C298.497 35 298.049 34.5523 298.049 34V26Z" fill="black"/>
<path d="M303.049 24C303.049 23.4477 303.497 23 304.049 23H305.049C305.602 23 306.049 23.4477 306.049 24V34C306.049 34.5523 305.602 35 305.049 35H304.049C303.497 35 303.049 34.5523 303.049 34V24Z" fill="black"/>
<path d="M293.049 29.5C293.049 28.9477 293.497 28.5 294.049 28.5H295.049C295.602 28.5 296.049 28.9477 296.049 29.5V34C296.049 34.5523 295.602 35 295.049 35H294.049C293.497 35 293.049 34.5523 293.049 34V29.5Z" fill="black"/>
<path d="M288.049 32C288.049 31.4477 288.497 31 289.049 31H290.049C290.602 31 291.049 31.4477 291.049 32V34C291.049 34.5523 290.602 35 290.049 35H289.049C288.497 35 288.049 34.5523 288.049 34V32Z" fill="black"/>
<path d="M320.165 31.9189C321.584 30.6934 323.664 30.6935 325.083 31.9189C325.155 31.9849 325.197 32.0785 325.199 32.1768C325.201 32.275 325.163 32.3696 325.094 32.4385L322.871 34.7285C322.806 34.7958 322.717 34.8339 322.625 34.834C322.532 34.834 322.443 34.7958 322.377 34.7285L320.154 32.4385C320.085 32.3696 320.047 32.275 320.049 32.1768C320.051 32.0785 320.093 31.9848 320.165 31.9189ZM317.159 29.1787C320.218 26.2741 324.955 26.2741 328.014 29.1787C328.083 29.2468 328.123 29.3405 328.124 29.4385C328.124 29.5364 328.087 29.6308 328.019 29.7002L326.734 31.0254C326.601 31.1607 326.387 31.164 326.251 31.0322C325.247 30.1038 323.941 29.5898 322.585 29.5898C321.231 29.5904 319.925 30.1043 318.921 31.0322C318.786 31.164 318.571 31.1607 318.439 31.0254L317.154 29.7002C317.086 29.6308 317.048 29.5364 317.049 29.4385C317.05 29.3405 317.09 29.2468 317.159 29.1787ZM314.157 26.4424C318.849 21.8528 326.25 21.8528 330.942 26.4424C331.01 26.5106 331.049 26.6039 331.049 26.7012C331.05 26.7983 331.012 26.892 330.945 26.9609L329.659 28.2861C329.526 28.4221 329.311 28.4238 329.176 28.29C327.389 26.5553 325.016 25.588 322.549 25.5879C320.083 25.588 317.71 26.5553 315.922 28.29C315.788 28.4239 315.572 28.4223 315.44 28.2861L314.153 26.9609C314.086 26.892 314.049 26.7982 314.049 26.7012C314.05 26.6039 314.089 26.5105 314.157 26.4424Z" fill="black"/>
<path opacity="0.35" d="M343.049 23.5H360.049C361.982 23.5 363.549 25.067 363.549 27V32C363.549 33.933 361.982 35.5 360.049 35.5H343.049C341.116 35.5 339.549 33.933 339.549 32V27C339.549 25.067 341.116 23.5 343.049 23.5Z" stroke="black"/>
<path opacity="0.4" d="M365.049 28V32.2203C365.898 31.8629 366.451 31.0314 366.451 30.1102C366.451 29.1889 365.898 28.3574 365.049 28Z" fill="black"/>
<path d="M341.049 27C341.049 25.8954 341.945 25 343.049 25H354.049C355.154 25 356.049 25.8954 356.049 27V32C356.049 33.1046 355.154 34 354.049 34H343.049C341.945 34 341.049 33.1046 341.049 32V27Z" fill="black"/>
<rect x="129.712" y="863.688" width="144" height="5" rx="2.5" fill="#111111"/>
<g filter="url(#filter0_f_59_1040)">
<circle cx="201.5" cy="734.5" r="139.5" fill="#60A5FA" fill-opacity="0.35"/>
</g>
<path fill-rule="evenodd" clip-rule="evenodd" d="M181.437 319.669C179.407 321.398 178.393 322.263 177.309 322.99C174.825 324.655 172.035 325.81 169.101 326.389C167.821 326.642 166.492 326.748 163.834 326.96C157.156 327.493 153.817 327.76 151.031 328.744C144.588 331.02 139.519 336.088 137.244 342.531C136.26 345.317 135.993 348.656 135.46 355.334C135.248 357.992 135.142 359.321 134.889 360.601C134.31 363.535 133.154 366.325 131.489 368.809C130.763 369.893 129.898 370.907 128.169 372.937C123.824 378.036 121.651 380.585 120.377 383.251C117.43 389.416 117.43 396.584 120.377 402.749C121.651 405.415 123.824 407.964 128.169 413.063C129.898 415.093 130.763 416.108 131.489 417.191C133.154 419.675 134.31 422.465 134.889 425.399C135.142 426.679 135.248 428.008 135.46 430.666C135.993 437.344 136.26 440.683 137.244 443.469C139.519 449.912 144.588 454.981 151.031 457.257C153.817 458.24 157.156 458.507 163.834 459.04C166.492 459.252 167.821 459.358 169.101 459.611C172.035 460.19 174.825 461.346 177.309 463.011C178.393 463.737 179.407 464.602 181.437 466.331C186.536 470.677 189.085 472.849 191.751 474.123C197.916 477.07 205.084 477.07 211.249 474.123C213.915 472.849 216.464 470.677 221.563 466.331C223.593 464.602 224.607 463.737 225.691 463.011C228.175 461.346 230.965 460.19 233.899 459.611C235.179 459.358 236.508 459.252 239.166 459.04C245.844 458.507 249.183 458.24 251.969 457.257C258.412 454.981 263.481 449.913 265.756 443.469C266.74 440.683 267.007 437.344 267.54 430.666C267.752 428.008 267.858 426.679 268.111 425.399C268.69 422.465 269.845 419.675 271.51 417.191C272.237 416.108 273.102 415.093 274.831 413.063C279.176 407.964 281.349 405.415 282.623 402.749C285.57 396.584 285.57 389.416 282.623 383.251C281.349 380.585 279.176 378.036 274.831 372.937C273.102 370.907 272.237 369.893 271.51 368.809C269.845 366.325 268.69 363.535 268.111 360.601C267.858 359.321 267.752 357.992 267.54 355.334C267.007 348.656 266.74 345.317 265.756 342.531C263.481 336.088 258.412 331.02 251.969 328.744C249.183 327.76 245.844 327.493 239.166 326.96C236.508 326.748 235.179 326.642 233.899 326.389C230.965 325.81 228.175 324.655 225.691 322.99C224.607 322.263 223.593 321.398 221.563 319.669C216.464 315.324 213.915 313.151 211.249 311.877C205.084 308.93 197.916 308.93 191.751 311.877C189.085 313.151 186.536 315.324 181.437 319.669ZM237.946 375.193C240.594 372.544 240.594 368.25 237.946 365.601C235.297 362.953 231.003 362.953 228.354 365.601L187.936 406.02L174.645 392.73C171.997 390.082 167.703 390.082 165.054 392.73C162.405 395.379 162.405 399.673 165.054 402.322L183.14 420.407C185.788 423.056 190.083 423.056 192.731 420.407L237.946 375.193Z" fill="#60A5FA"/>
<path d="M112.874 542.288C111.594 542.288 110.41 542.056 109.322 541.592C108.25 541.128 107.306 540.48 106.49 539.648C105.69 538.816 105.066 537.84 104.618 536.72C104.17 535.6 103.946 534.376 103.946 533.048C103.946 531.72 104.162 530.496 104.594 529.376C105.042 528.24 105.666 527.264 106.466 526.448C107.282 525.616 108.234 524.976 109.322 524.528C110.41 524.064 111.594 523.832 112.874 523.832C114.154 523.832 115.298 524.048 116.306 524.48C117.33 524.912 118.194 525.488 118.898 526.208C119.602 526.912 120.106 527.688 120.41 528.536L117.482 529.904C117.146 529.008 116.578 528.272 115.778 527.696C114.978 527.104 114.01 526.808 112.874 526.808C111.754 526.808 110.762 527.072 109.898 527.6C109.05 528.128 108.386 528.856 107.906 529.784C107.442 530.712 107.21 531.8 107.21 533.048C107.21 534.296 107.442 535.392 107.906 536.336C108.386 537.264 109.05 537.992 109.898 538.52C110.762 539.048 111.754 539.312 112.874 539.312C114.01 539.312 114.978 539.024 115.778 538.448C116.578 537.856 117.146 537.112 117.482 536.216L120.41 537.584C120.106 538.432 119.602 539.216 118.898 539.936C118.194 540.64 117.33 541.208 116.306 541.64C115.298 542.072 114.154 542.288 112.874 542.288ZM128.946 542.288C127.666 542.288 126.498 541.992 125.442 541.4C124.402 540.808 123.57 540 122.946 538.976C122.338 537.952 122.034 536.784 122.034 535.472C122.034 534.16 122.338 532.992 122.946 531.968C123.57 530.944 124.402 530.136 125.442 529.544C126.482 528.952 127.65 528.656 128.946 528.656C130.226 528.656 131.386 528.952 132.426 529.544C133.466 530.136 134.29 530.944 134.898 531.968C135.522 532.976 135.834 534.144 135.834 535.472C135.834 536.784 135.522 537.952 134.898 538.976C134.274 540 133.442 540.808 132.402 541.4C131.362 541.992 130.21 542.288 128.946 542.288ZM128.946 539.408C129.65 539.408 130.266 539.24 130.794 538.904C131.338 538.568 131.762 538.104 132.066 537.512C132.386 536.904 132.546 536.224 132.546 535.472C132.546 534.704 132.386 534.032 132.066 533.456C131.762 532.864 131.338 532.4 130.794 532.064C130.266 531.712 129.65 531.536 128.946 531.536C128.226 531.536 127.594 531.712 127.05 532.064C126.506 532.4 126.074 532.864 125.754 533.456C125.45 534.032 125.298 534.704 125.298 535.472C125.298 536.224 125.45 536.904 125.754 537.512C126.074 538.104 126.506 538.568 127.05 538.904C127.594 539.24 128.226 539.408 128.946 539.408ZM138.218 542V528.944H141.17V531.512L140.93 531.056C141.234 530.272 141.73 529.68 142.418 529.28C143.122 528.864 143.938 528.656 144.866 528.656C145.826 528.656 146.674 528.864 147.41 529.28C148.162 529.696 148.746 530.28 149.162 531.032C149.578 531.768 149.786 532.624 149.786 533.6V542H146.642V534.344C146.642 533.768 146.53 533.272 146.306 532.856C146.082 532.44 145.77 532.12 145.37 531.896C144.986 531.656 144.53 531.536 144.002 531.536C143.49 531.536 143.034 531.656 142.634 531.896C142.234 532.12 141.922 532.44 141.698 532.856C141.474 533.272 141.362 533.768 141.362 534.344V542H138.218ZM158.78 547.28C157.804 547.28 156.9 547.12 156.068 546.8C155.236 546.48 154.516 546.032 153.908 545.456C153.316 544.896 152.884 544.232 152.612 543.464L155.54 542.36C155.732 542.968 156.108 543.456 156.668 543.824C157.244 544.208 157.948 544.4 158.78 544.4C159.42 544.4 159.98 544.28 160.46 544.04C160.956 543.8 161.34 543.448 161.612 542.984C161.884 542.536 162.02 541.992 162.02 541.352V538.376L162.62 539.096C162.172 539.88 161.572 540.472 160.82 540.872C160.068 541.272 159.212 541.472 158.252 541.472C157.036 541.472 155.948 541.192 154.988 540.632C154.028 540.072 153.276 539.304 152.732 538.328C152.188 537.352 151.916 536.256 151.916 535.04C151.916 533.808 152.188 532.712 152.732 531.752C153.276 530.792 154.02 530.04 154.964 529.496C155.908 528.936 156.98 528.656 158.18 528.656C159.156 528.656 160.012 528.864 160.748 529.28C161.5 529.68 162.124 530.264 162.62 531.032L162.188 531.824V528.944H165.164V541.352C165.164 542.488 164.884 543.504 164.324 544.4C163.78 545.296 163.028 546 162.068 546.512C161.124 547.024 160.028 547.28 158.78 547.28ZM158.636 538.568C159.308 538.568 159.892 538.424 160.388 538.136C160.9 537.832 161.3 537.416 161.588 536.888C161.876 536.36 162.02 535.752 162.02 535.064C162.02 534.392 161.868 533.792 161.564 533.264C161.276 532.72 160.876 532.296 160.364 531.992C159.868 531.688 159.292 531.536 158.636 531.536C157.98 531.536 157.388 531.688 156.86 531.992C156.332 532.296 155.916 532.72 155.612 533.264C155.324 533.792 155.18 534.392 155.18 535.064C155.18 535.736 155.324 536.336 155.612 536.864C155.916 537.392 156.324 537.808 156.836 538.112C157.364 538.416 157.964 538.568 158.636 538.568ZM168.101 542V528.944H171.053V531.848L170.813 531.416C171.117 530.44 171.589 529.76 172.229 529.376C172.885 528.992 173.669 528.8 174.581 528.8H175.349V531.584H174.221C173.325 531.584 172.605 531.864 172.061 532.424C171.517 532.968 171.245 533.736 171.245 534.728V542H168.101ZM181.037 542.288C180.125 542.288 179.333 542.136 178.661 541.832C177.989 541.528 177.469 541.096 177.101 540.536C176.733 539.96 176.549 539.296 176.549 538.544C176.549 537.824 176.709 537.184 177.029 536.624C177.349 536.048 177.845 535.568 178.517 535.184C179.189 534.8 180.037 534.528 181.061 534.368L185.333 533.672V536.072L181.661 536.696C181.037 536.808 180.573 537.008 180.269 537.296C179.965 537.584 179.813 537.96 179.813 538.424C179.813 538.872 179.981 539.232 180.317 539.504C180.669 539.76 181.101 539.888 181.613 539.888C182.269 539.888 182.845 539.752 183.341 539.48C183.853 539.192 184.245 538.8 184.517 538.304C184.805 537.808 184.949 537.264 184.949 536.672V533.312C184.949 532.752 184.725 532.288 184.277 531.92C183.845 531.536 183.269 531.344 182.549 531.344C181.877 531.344 181.277 531.528 180.749 531.896C180.237 532.248 179.861 532.72 179.621 533.312L177.053 532.064C177.309 531.376 177.709 530.784 178.253 530.288C178.813 529.776 179.469 529.376 180.221 529.088C180.973 528.8 181.789 528.656 182.669 528.656C183.741 528.656 184.685 528.856 185.501 529.256C186.317 529.64 186.949 530.184 187.397 530.888C187.861 531.576 188.093 532.384 188.093 533.312V542H185.117V539.768L185.789 539.72C185.453 540.28 185.053 540.752 184.589 541.136C184.125 541.504 183.597 541.792 183.005 542C182.413 542.192 181.757 542.288 181.037 542.288ZM196.717 542.144C195.245 542.144 194.101 541.744 193.285 540.944C192.485 540.128 192.085 538.984 192.085 537.512V531.752H189.829V528.944H190.069C190.709 528.944 191.205 528.776 191.557 528.44C191.909 528.104 192.085 527.616 192.085 526.976V525.968H195.229V528.944H198.229V531.752H195.229V537.344C195.229 537.776 195.301 538.144 195.445 538.448C195.605 538.752 195.845 538.984 196.165 539.144C196.501 539.304 196.925 539.384 197.437 539.384C197.549 539.384 197.677 539.376 197.821 539.36C197.981 539.344 198.133 539.328 198.277 539.312V542C198.053 542.032 197.797 542.064 197.509 542.096C197.221 542.128 196.957 542.144 196.717 542.144ZM205.335 542.288C204.327 542.288 203.447 542.064 202.695 541.616C201.959 541.168 201.391 540.544 200.991 539.744C200.607 538.944 200.415 538.008 200.415 536.936V528.944H203.559V536.672C203.559 537.216 203.663 537.696 203.871 538.112C204.095 538.512 204.407 538.832 204.807 539.072C205.223 539.296 205.687 539.408 206.199 539.408C206.711 539.408 207.167 539.296 207.567 539.072C207.967 538.832 208.279 538.504 208.503 538.088C208.727 537.672 208.839 537.176 208.839 536.6V528.944H211.983V542H209.007V539.432L209.271 539.888C208.967 540.688 208.463 541.288 207.759 541.688C207.071 542.088 206.263 542.288 205.335 542.288ZM214.905 542V523.832H218.049V542H214.905ZM224.912 542.288C224 542.288 223.208 542.136 222.536 541.832C221.864 541.528 221.344 541.096 220.976 540.536C220.608 539.96 220.424 539.296 220.424 538.544C220.424 537.824 220.584 537.184 220.904 536.624C221.224 536.048 221.72 535.568 222.392 535.184C223.064 534.8 223.912 534.528 224.936 534.368L229.208 533.672V536.072L225.536 536.696C224.912 536.808 224.448 537.008 224.144 537.296C223.84 537.584 223.688 537.96 223.688 538.424C223.688 538.872 223.856 539.232 224.192 539.504C224.544 539.76 224.976 539.888 225.488 539.888C226.144 539.888 226.72 539.752 227.216 539.48C227.728 539.192 228.12 538.8 228.392 538.304C228.68 537.808 228.824 537.264 228.824 536.672V533.312C228.824 532.752 228.6 532.288 228.152 531.92C227.72 531.536 227.144 531.344 226.424 531.344C225.752 531.344 225.152 531.528 224.624 531.896C224.112 532.248 223.736 532.72 223.496 533.312L220.928 532.064C221.184 531.376 221.584 530.784 222.128 530.288C222.688 529.776 223.344 529.376 224.096 529.088C224.848 528.8 225.664 528.656 226.544 528.656C227.616 528.656 228.56 528.856 229.376 529.256C230.192 529.64 230.824 530.184 231.272 530.888C231.736 531.576 231.968 532.384 231.968 533.312V542H228.992V539.768L229.664 539.72C229.328 540.28 228.928 540.752 228.464 541.136C228 541.504 227.472 541.792 226.88 542C226.288 542.192 225.632 542.288 224.912 542.288ZM240.592 542.144C239.12 542.144 237.976 541.744 237.16 540.944C236.36 540.128 235.96 538.984 235.96 537.512V531.752H233.704V528.944H233.944C234.584 528.944 235.08 528.776 235.432 528.44C235.784 528.104 235.96 527.616 235.96 526.976V525.968H239.104V528.944H242.104V531.752H239.104V537.344C239.104 537.776 239.176 538.144 239.32 538.448C239.48 538.752 239.72 538.984 240.04 539.144C240.376 539.304 240.8 539.384 241.312 539.384C241.424 539.384 241.552 539.376 241.696 539.36C241.856 539.344 242.008 539.328 242.152 539.312V542C241.928 542.032 241.672 542.064 241.384 542.096C241.096 542.128 240.832 542.144 240.592 542.144ZM244.554 542V528.944H247.698V542H244.554ZM244.554 527.48V524.12H247.698V527.48H244.554ZM256.985 542.288C255.705 542.288 254.537 541.992 253.481 541.4C252.441 540.808 251.609 540 250.985 538.976C250.377 537.952 250.073 536.784 250.073 535.472C250.073 534.16 250.377 532.992 250.985 531.968C251.609 530.944 252.441 530.136 253.481 529.544C254.521 528.952 255.689 528.656 256.985 528.656C258.265 528.656 259.425 528.952 260.465 529.544C261.505 530.136 262.329 530.944 262.937 531.968C263.561 532.976 263.873 534.144 263.873 535.472C263.873 536.784 263.561 537.952 262.937 538.976C262.313 540 261.481 540.808 260.441 541.4C259.401 541.992 258.249 542.288 256.985 542.288ZM256.985 539.408C257.689 539.408 258.305 539.24 258.833 538.904C259.377 538.568 259.801 538.104 260.105 537.512C260.425 536.904 260.585 536.224 260.585 535.472C260.585 534.704 260.425 534.032 260.105 533.456C259.801 532.864 259.377 532.4 258.833 532.064C258.305 531.712 257.689 531.536 256.985 531.536C256.265 531.536 255.633 531.712 255.089 532.064C254.545 532.4 254.113 532.864 253.793 533.456C253.489 534.032 253.337 534.704 253.337 535.472C253.337 536.224 253.489 536.904 253.793 537.512C254.113 538.104 254.545 538.568 255.089 538.904C255.633 539.24 256.265 539.408 256.985 539.408ZM266.257 542V528.944H269.209V531.512L268.969 531.056C269.273 530.272 269.769 529.68 270.457 529.28C271.161 528.864 271.977 528.656 272.905 528.656C273.865 528.656 274.713 528.864 275.449 529.28C276.201 529.696 276.785 530.28 277.201 531.032C277.617 531.768 277.825 532.624 277.825 533.6V542H274.681V534.344C274.681 533.768 274.569 533.272 274.345 532.856C274.121 532.44 273.809 532.12 273.409 531.896C273.025 531.656 272.569 531.536 272.041 531.536C271.529 531.536 271.073 531.656 270.673 531.896C270.273 532.12 269.961 532.44 269.737 532.856C269.513 533.272 269.401 533.768 269.401 534.344V542H266.257ZM285.452 542.288C284.06 542.288 282.844 541.96 281.804 541.304C280.78 540.632 280.076 539.728 279.692 538.592L282.044 537.464C282.38 538.2 282.844 538.776 283.436 539.192C284.044 539.608 284.716 539.816 285.452 539.816C286.028 539.816 286.484 539.688 286.82 539.432C287.156 539.176 287.324 538.84 287.324 538.424C287.324 538.168 287.252 537.96 287.108 537.8C286.98 537.624 286.796 537.48 286.556 537.368C286.332 537.24 286.084 537.136 285.812 537.056L283.676 536.456C282.572 536.136 281.732 535.648 281.156 534.992C280.596 534.336 280.316 533.56 280.316 532.664C280.316 531.864 280.516 531.168 280.916 530.576C281.332 529.968 281.9 529.496 282.62 529.16C283.356 528.824 284.196 528.656 285.14 528.656C286.372 528.656 287.46 528.952 288.404 529.544C289.348 530.136 290.02 530.968 290.42 532.04L288.02 533.168C287.796 532.576 287.42 532.104 286.892 531.752C286.364 531.4 285.772 531.224 285.116 531.224C284.588 531.224 284.172 531.344 283.868 531.584C283.564 531.824 283.412 532.136 283.412 532.52C283.412 532.76 283.476 532.968 283.604 533.144C283.732 533.32 283.908 533.464 284.132 533.576C284.372 533.688 284.644 533.792 284.948 533.888L287.036 534.512C288.108 534.832 288.932 535.312 289.508 535.952C290.1 536.592 290.396 537.376 290.396 538.304C290.396 539.088 290.188 539.784 289.772 540.392C289.356 540.984 288.78 541.448 288.044 541.784C287.308 542.12 286.444 542.288 285.452 542.288ZM294.42 536.576L294.204 524.12H297.396L297.18 536.576H294.42ZM294.204 542V538.64H297.396V542H294.204Z" fill="#121212"/>
<path d="M59.0053 578V573.156L55.3513 567.57H56.5973L59.7893 572.428H59.3413L62.5193 567.57H63.7653L60.1253 573.156V578H59.0053ZM67.1174 578.168C66.4081 578.168 65.7641 578 65.1854 577.664C64.6067 577.319 64.1447 576.852 63.7994 576.264C63.4634 575.667 63.2954 574.99 63.2954 574.234C63.2954 573.487 63.4634 572.82 63.7994 572.232C64.1354 571.644 64.5881 571.182 65.1574 570.846C65.7361 570.501 66.3894 570.328 67.1174 570.328C67.8454 570.328 68.4941 570.496 69.0634 570.832C69.6421 571.168 70.0947 571.63 70.4214 572.218C70.7574 572.806 70.9254 573.478 70.9254 574.234C70.9254 574.999 70.7527 575.681 70.4074 576.278C70.0621 576.866 69.6001 577.328 69.0214 577.664C68.4521 578 67.8174 578.168 67.1174 578.168ZM67.1174 577.118C67.6214 577.118 68.0741 576.992 68.4754 576.74C68.8861 576.488 69.2081 576.143 69.4414 575.704C69.6841 575.265 69.8054 574.775 69.8054 574.234C69.8054 573.693 69.6841 573.207 69.4414 572.778C69.2081 572.349 68.8861 572.008 68.4754 571.756C68.0741 571.504 67.6214 571.378 67.1174 571.378C66.6134 571.378 66.1561 571.504 65.7454 571.756C65.3441 572.008 65.0221 572.349 64.7794 572.778C64.5367 573.207 64.4154 573.693 64.4154 574.234C64.4154 574.775 64.5367 575.265 64.7794 575.704C65.0221 576.143 65.3441 576.488 65.7454 576.74C66.1561 576.992 66.6134 577.118 67.1174 577.118ZM75.4372 578.168C74.9146 578.168 74.4386 578.047 74.0092 577.804C73.5799 577.552 73.2392 577.207 72.9872 576.768C72.7446 576.32 72.6232 575.807 72.6232 575.228V570.496H73.6732V575.102C73.6732 575.503 73.7526 575.858 73.9112 576.166C74.0792 576.465 74.3079 576.698 74.5972 576.866C74.8959 577.034 75.2366 577.118 75.6192 577.118C76.0019 577.118 76.3426 577.034 76.6412 576.866C76.9399 576.689 77.1732 576.441 77.3412 576.124C77.5092 575.797 77.5932 575.41 77.5932 574.962V570.496H78.6432V578H77.5932V576.544L77.8312 576.6C77.6539 577.085 77.3506 577.468 76.9212 577.748C76.4919 578.028 75.9972 578.168 75.4372 578.168ZM80.8026 578V570.496H81.8526V571.728L81.7126 571.546C81.8899 571.191 82.1559 570.911 82.5106 570.706C82.8746 570.501 83.3133 570.398 83.8266 570.398H84.3026V571.448H83.6446C83.1033 571.448 82.6693 571.616 82.3426 571.952C82.0159 572.288 81.8526 572.764 81.8526 573.38V578H80.8026ZM90.082 578.168C89.606 578.168 89.1813 578.079 88.808 577.902C88.4347 577.715 88.1407 577.463 87.926 577.146C87.7113 576.829 87.604 576.465 87.604 576.054C87.604 575.662 87.688 575.307 87.856 574.99C88.024 574.663 88.2853 574.388 88.64 574.164C88.9947 573.94 89.4473 573.781 89.998 573.688L92.938 573.198V574.15L90.25 574.598C89.7087 574.691 89.3167 574.864 89.074 575.116C88.8407 575.368 88.724 575.667 88.724 576.012C88.724 576.348 88.8547 576.633 89.116 576.866C89.3867 577.099 89.732 577.216 90.152 577.216C90.6653 577.216 91.1133 577.109 91.496 576.894C91.8787 576.67 92.1773 576.371 92.392 575.998C92.6067 575.625 92.714 575.209 92.714 574.752V572.848C92.714 572.4 92.5507 572.036 92.224 571.756C91.8973 571.476 91.4727 571.336 90.95 571.336C90.4927 571.336 90.0913 571.453 89.746 571.686C89.4007 571.91 89.144 572.204 88.976 572.568L88.024 572.05C88.164 571.733 88.3833 571.443 88.682 571.182C88.99 570.921 89.34 570.715 89.732 570.566C90.124 570.407 90.53 570.328 90.95 570.328C91.5007 570.328 91.986 570.435 92.406 570.65C92.8353 570.865 93.1667 571.163 93.4 571.546C93.6427 571.919 93.764 572.353 93.764 572.848V578H92.714V576.502L92.868 576.656C92.7373 576.936 92.532 577.193 92.252 577.426C91.9813 577.65 91.6593 577.832 91.286 577.972C90.922 578.103 90.5207 578.168 90.082 578.168ZM99.3537 578.168C98.6164 578.168 97.9677 577.995 97.4077 577.65C96.8477 577.305 96.409 576.838 96.0917 576.25C95.7744 575.653 95.6157 574.981 95.6157 574.234C95.6157 573.487 95.7744 572.82 96.0917 572.232C96.409 571.644 96.8477 571.182 97.4077 570.846C97.9677 570.501 98.6164 570.328 99.3537 570.328C99.8204 570.328 100.259 570.412 100.67 570.58C101.08 570.748 101.444 570.977 101.762 571.266C102.079 571.546 102.317 571.873 102.476 572.246L101.524 572.736C101.337 572.335 101.052 572.008 100.67 571.756C100.287 571.504 99.8484 571.378 99.3537 571.378C98.859 571.378 98.411 571.504 98.0097 571.756C97.6177 571.999 97.305 572.339 97.0717 572.778C96.8477 573.207 96.7357 573.697 96.7357 574.248C96.7357 574.789 96.8477 575.279 97.0717 575.718C97.305 576.147 97.6177 576.488 98.0097 576.74C98.411 576.992 98.859 577.118 99.3537 577.118C99.8484 577.118 100.282 576.992 100.656 576.74C101.038 576.488 101.328 576.152 101.524 575.732L102.476 576.25C102.317 576.614 102.079 576.941 101.762 577.23C101.444 577.519 101.08 577.748 100.67 577.916C100.259 578.084 99.8204 578.168 99.3537 578.168ZM107.748 578.168C107.011 578.168 106.362 577.995 105.802 577.65C105.242 577.305 104.804 576.838 104.486 576.25C104.169 575.653 104.01 574.981 104.01 574.234C104.01 573.487 104.169 572.82 104.486 572.232C104.804 571.644 105.242 571.182 105.802 570.846C106.362 570.501 107.011 570.328 107.748 570.328C108.215 570.328 108.654 570.412 109.064 570.58C109.475 570.748 109.839 570.977 110.156 571.266C110.474 571.546 110.712 571.873 110.87 572.246L109.918 572.736C109.732 572.335 109.447 572.008 109.064 571.756C108.682 571.504 108.243 571.378 107.748 571.378C107.254 571.378 106.806 571.504 106.404 571.756C106.012 571.999 105.7 572.339 105.466 572.778C105.242 573.207 105.13 573.697 105.13 574.248C105.13 574.789 105.242 575.279 105.466 575.718C105.7 576.147 106.012 576.488 106.404 576.74C106.806 576.992 107.254 577.118 107.748 577.118C108.243 577.118 108.677 576.992 109.05 576.74C109.433 576.488 109.722 576.152 109.918 575.732L110.87 576.25C110.712 576.614 110.474 576.941 110.156 577.23C109.839 577.519 109.475 577.748 109.064 577.916C108.654 578.084 108.215 578.168 107.748 578.168ZM116.227 578.168C115.517 578.168 114.873 578 114.295 577.664C113.716 577.319 113.254 576.852 112.909 576.264C112.573 575.667 112.405 574.99 112.405 574.234C112.405 573.487 112.573 572.82 112.909 572.232C113.245 571.644 113.697 571.182 114.267 570.846C114.845 570.501 115.499 570.328 116.227 570.328C116.955 570.328 117.603 570.496 118.173 570.832C118.751 571.168 119.204 571.63 119.531 572.218C119.867 572.806 120.035 573.478 120.035 574.234C120.035 574.999 119.862 575.681 119.517 576.278C119.171 576.866 118.709 577.328 118.131 577.664C117.561 578 116.927 578.168 116.227 578.168ZM116.227 577.118C116.731 577.118 117.183 576.992 117.585 576.74C117.995 576.488 118.317 576.143 118.551 575.704C118.793 575.265 118.915 574.775 118.915 574.234C118.915 573.693 118.793 573.207 118.551 572.778C118.317 572.349 117.995 572.008 117.585 571.756C117.183 571.504 116.731 571.378 116.227 571.378C115.723 571.378 115.265 571.504 114.855 571.756C114.453 572.008 114.131 572.349 113.889 572.778C113.646 573.207 113.525 573.693 113.525 574.234C113.525 574.775 113.646 575.265 113.889 575.704C114.131 576.143 114.453 576.488 114.855 576.74C115.265 576.992 115.723 577.118 116.227 577.118ZM124.547 578.168C124.024 578.168 123.548 578.047 123.119 577.804C122.689 577.552 122.349 577.207 122.097 576.768C121.854 576.32 121.733 575.807 121.733 575.228V570.496H122.783V575.102C122.783 575.503 122.862 575.858 123.021 576.166C123.189 576.465 123.417 576.698 123.707 576.866C124.005 577.034 124.346 577.118 124.729 577.118C125.111 577.118 125.452 577.034 125.751 576.866C126.049 576.689 126.283 576.441 126.451 576.124C126.619 575.797 126.703 575.41 126.703 574.962V570.496H127.753V578H126.703V576.544L126.941 576.6C126.763 577.085 126.46 577.468 126.031 577.748C125.601 578.028 125.107 578.168 124.547 578.168ZM129.912 578V570.496H130.962V571.952L130.724 571.896C130.911 571.411 131.214 571.028 131.634 570.748C132.063 570.468 132.558 570.328 133.118 570.328C133.65 570.328 134.126 570.449 134.546 570.692C134.975 570.935 135.311 571.271 135.554 571.7C135.806 572.12 135.932 572.596 135.932 573.128V578H134.882V573.534C134.882 573.077 134.798 572.689 134.63 572.372C134.471 572.055 134.243 571.812 133.944 571.644C133.655 571.467 133.319 571.378 132.936 571.378C132.553 571.378 132.213 571.467 131.914 571.644C131.615 571.812 131.382 572.059 131.214 572.386C131.046 572.703 130.962 573.086 130.962 573.534V578H129.912ZM140.807 578.084C140.135 578.084 139.617 577.888 139.253 577.496C138.889 577.104 138.707 576.544 138.707 575.816V571.546H137.321V570.496H137.671C137.989 570.496 138.241 570.393 138.427 570.188C138.614 569.973 138.707 569.707 138.707 569.39V568.76H139.757V570.496H141.409V571.546H139.757V575.816C139.757 576.068 139.795 576.292 139.869 576.488C139.944 576.675 140.07 576.824 140.247 576.936C140.434 577.048 140.681 577.104 140.989 577.104C141.064 577.104 141.153 577.099 141.255 577.09C141.358 577.081 141.447 577.071 141.521 577.062V578C141.409 578.028 141.283 578.047 141.143 578.056C141.003 578.075 140.891 578.084 140.807 578.084ZM145.744 578V567.402H146.794V571.952L146.556 571.896C146.743 571.411 147.046 571.028 147.466 570.748C147.895 570.468 148.39 570.328 148.95 570.328C149.482 570.328 149.958 570.449 150.378 570.692C150.807 570.935 151.143 571.271 151.386 571.7C151.638 572.12 151.764 572.596 151.764 573.128V578H150.714V573.534C150.714 573.077 150.63 572.689 150.462 572.372C150.294 572.055 150.061 571.812 149.762 571.644C149.473 571.467 149.141 571.378 148.768 571.378C148.395 571.378 148.059 571.467 147.76 571.644C147.461 571.812 147.223 572.059 147.046 572.386C146.878 572.703 146.794 573.086 146.794 573.534V578H145.744ZM155.939 578.168C155.463 578.168 155.039 578.079 154.665 577.902C154.292 577.715 153.998 577.463 153.783 577.146C153.569 576.829 153.461 576.465 153.461 576.054C153.461 575.662 153.545 575.307 153.713 574.99C153.881 574.663 154.143 574.388 154.497 574.164C154.852 573.94 155.305 573.781 155.855 573.688L158.795 573.198V574.15L156.107 574.598C155.566 574.691 155.174 574.864 154.931 575.116C154.698 575.368 154.581 575.667 154.581 576.012C154.581 576.348 154.712 576.633 154.973 576.866C155.244 577.099 155.589 577.216 156.009 577.216C156.523 577.216 156.971 577.109 157.353 576.894C157.736 576.67 158.035 576.371 158.249 575.998C158.464 575.625 158.571 575.209 158.571 574.752V572.848C158.571 572.4 158.408 572.036 158.081 571.756C157.755 571.476 157.33 571.336 156.807 571.336C156.35 571.336 155.949 571.453 155.603 571.686C155.258 571.91 155.001 572.204 154.833 572.568L153.881 572.05C154.021 571.733 154.241 571.443 154.539 571.182C154.847 570.921 155.197 570.715 155.589 570.566C155.981 570.407 156.387 570.328 156.807 570.328C157.358 570.328 157.843 570.435 158.263 570.65C158.693 570.865 159.024 571.163 159.257 571.546C159.5 571.919 159.621 572.353 159.621 572.848V578H158.571V576.502L158.725 576.656C158.595 576.936 158.389 577.193 158.109 577.426C157.839 577.65 157.517 577.832 157.143 577.972C156.779 578.103 156.378 578.168 155.939 578.168ZM164.385 578.168C163.666 578.168 163.036 577.986 162.495 577.622C161.954 577.258 161.562 576.763 161.319 576.138L162.201 575.718C162.416 576.175 162.714 576.539 163.097 576.81C163.489 577.081 163.918 577.216 164.385 577.216C164.833 577.216 165.211 577.109 165.519 576.894C165.827 576.67 165.981 576.381 165.981 576.026C165.981 575.765 165.906 575.559 165.757 575.41C165.608 575.251 165.435 575.13 165.239 575.046C165.043 574.962 164.87 574.901 164.721 574.864L163.643 574.556C162.952 574.36 162.453 574.085 162.145 573.73C161.837 573.375 161.683 572.965 161.683 572.498C161.683 572.059 161.795 571.677 162.019 571.35C162.243 571.023 162.546 570.771 162.929 570.594C163.312 570.417 163.736 570.328 164.203 570.328C164.838 570.328 165.412 570.496 165.925 570.832C166.448 571.159 166.816 571.616 167.031 572.204L166.135 572.624C165.948 572.204 165.678 571.877 165.323 571.644C164.978 571.401 164.59 571.28 164.161 571.28C163.741 571.28 163.405 571.387 163.153 571.602C162.901 571.817 162.775 572.087 162.775 572.414C162.775 572.666 162.84 572.867 162.971 573.016C163.102 573.165 163.251 573.277 163.419 573.352C163.596 573.427 163.75 573.483 163.881 573.52L165.127 573.884C165.734 574.061 166.205 574.337 166.541 574.71C166.886 575.083 167.059 575.522 167.059 576.026C167.059 576.437 166.942 576.805 166.709 577.132C166.485 577.459 166.172 577.715 165.771 577.902C165.37 578.079 164.908 578.168 164.385 578.168ZM175.077 578.168C174.433 578.168 173.85 578.023 173.327 577.734C172.814 577.435 172.426 577.015 172.165 576.474L172.333 576.32V578H171.283V567.402H172.333V572.176L172.165 571.882C172.464 571.406 172.86 571.028 173.355 570.748C173.859 570.468 174.433 570.328 175.077 570.328C175.786 570.328 176.416 570.501 176.967 570.846C177.527 571.182 177.966 571.644 178.283 572.232C178.61 572.82 178.773 573.492 178.773 574.248C178.773 574.995 178.61 575.667 178.283 576.264C177.966 576.852 177.527 577.319 176.967 577.664C176.416 578 175.786 578.168 175.077 578.168ZM175.021 577.118C175.525 577.118 175.973 576.992 176.365 576.74C176.766 576.488 177.079 576.147 177.303 575.718C177.536 575.279 177.653 574.789 177.653 574.248C177.653 573.697 177.536 573.207 177.303 572.778C177.079 572.349 176.766 572.008 176.365 571.756C175.973 571.504 175.525 571.378 175.021 571.378C174.517 571.378 174.06 571.504 173.649 571.756C173.248 572.008 172.926 572.353 172.683 572.792C172.45 573.221 172.333 573.707 172.333 574.248C172.333 574.789 172.45 575.279 172.683 575.718C172.926 576.147 173.248 576.488 173.649 576.74C174.06 576.992 174.517 577.118 175.021 577.118ZM184.037 578.168C183.337 578.168 182.702 578 182.133 577.664C181.573 577.319 181.13 576.847 180.803 576.25C180.476 575.653 180.313 574.976 180.313 574.22C180.313 573.464 180.472 572.797 180.789 572.218C181.106 571.63 181.536 571.168 182.077 570.832C182.628 570.496 183.244 570.328 183.925 570.328C184.466 570.328 184.947 570.431 185.367 570.636C185.796 570.832 186.16 571.103 186.459 571.448C186.758 571.784 186.986 572.167 187.145 572.596C187.304 573.016 187.383 573.45 187.383 573.898C187.383 573.991 187.378 574.099 187.369 574.22C187.36 574.332 187.346 574.449 187.327 574.57H180.985V573.59H186.725L186.221 574.01C186.305 573.497 186.244 573.039 186.039 572.638C185.843 572.227 185.558 571.905 185.185 571.672C184.812 571.429 184.392 571.308 183.925 571.308C183.458 571.308 183.024 571.429 182.623 571.672C182.231 571.915 181.923 572.255 181.699 572.694C181.475 573.123 181.386 573.637 181.433 574.234C181.386 574.831 181.48 575.354 181.713 575.802C181.956 576.241 182.282 576.581 182.693 576.824C183.113 577.067 183.561 577.188 184.037 577.188C184.588 577.188 185.05 577.057 185.423 576.796C185.796 576.535 186.1 576.208 186.333 575.816L187.229 576.292C187.08 576.628 186.851 576.941 186.543 577.23C186.235 577.51 185.866 577.739 185.437 577.916C185.017 578.084 184.55 578.168 184.037 578.168ZM192.65 578.168C191.95 578.168 191.316 578 190.746 577.664C190.186 577.319 189.743 576.847 189.416 576.25C189.09 575.653 188.926 574.976 188.926 574.22C188.926 573.464 189.085 572.797 189.402 572.218C189.72 571.63 190.149 571.168 190.69 570.832C191.241 570.496 191.857 570.328 192.538 570.328C193.08 570.328 193.56 570.431 193.98 570.636C194.41 570.832 194.774 571.103 195.072 571.448C195.371 571.784 195.6 572.167 195.758 572.596C195.917 573.016 195.996 573.45 195.996 573.898C195.996 573.991 195.992 574.099 195.982 574.22C195.973 574.332 195.959 574.449 195.94 574.57H189.598V573.59H195.338L194.834 574.01C194.918 573.497 194.858 573.039 194.652 572.638C194.456 572.227 194.172 571.905 193.798 571.672C193.425 571.429 193.005 571.308 192.538 571.308C192.072 571.308 191.638 571.429 191.236 571.672C190.844 571.915 190.536 572.255 190.312 572.694C190.088 573.123 190 573.637 190.046 574.234C190 574.831 190.093 575.354 190.326 575.802C190.569 576.241 190.896 576.581 191.306 576.824C191.726 577.067 192.174 577.188 192.65 577.188C193.201 577.188 193.663 577.057 194.036 576.796C194.41 576.535 194.713 576.208 194.946 575.816L195.842 576.292C195.693 576.628 195.464 576.941 195.156 577.23C194.848 577.51 194.48 577.739 194.05 577.916C193.63 578.084 193.164 578.168 192.65 578.168ZM197.848 578V570.496H198.898V571.952L198.66 571.896C198.846 571.411 199.15 571.028 199.57 570.748C199.999 570.468 200.494 570.328 201.054 570.328C201.586 570.328 202.062 570.449 202.482 570.692C202.911 570.935 203.247 571.271 203.49 571.7C203.742 572.12 203.868 572.596 203.868 573.128V578H202.818V573.534C202.818 573.077 202.734 572.689 202.566 572.372C202.407 572.055 202.178 571.812 201.88 571.644C201.59 571.467 201.254 571.378 200.872 571.378C200.489 571.378 200.148 571.467 199.85 571.644C199.551 571.812 199.318 572.059 199.15 572.386C198.982 572.703 198.898 573.086 198.898 573.534V578H197.848ZM211.682 578.168C210.944 578.168 210.296 577.995 209.736 577.65C209.176 577.305 208.737 576.838 208.42 576.25C208.102 575.653 207.944 574.981 207.944 574.234C207.944 573.487 208.102 572.82 208.42 572.232C208.737 571.644 209.176 571.182 209.736 570.846C210.296 570.501 210.944 570.328 211.682 570.328C212.148 570.328 212.587 570.412 212.998 570.58C213.408 570.748 213.772 570.977 214.09 571.266C214.407 571.546 214.645 571.873 214.804 572.246L213.852 572.736C213.665 572.335 213.38 572.008 212.998 571.756C212.615 571.504 212.176 571.378 211.682 571.378C211.187 571.378 210.739 571.504 210.338 571.756C209.946 571.999 209.633 572.339 209.4 572.778C209.176 573.207 209.064 573.697 209.064 574.248C209.064 574.789 209.176 575.279 209.4 575.718C209.633 576.147 209.946 576.488 210.338 576.74C210.739 576.992 211.187 577.118 211.682 577.118C212.176 577.118 212.61 576.992 212.984 576.74C213.366 576.488 213.656 576.152 213.852 575.732L214.804 576.25C214.645 576.614 214.407 576.941 214.09 577.23C213.772 577.519 213.408 577.748 212.998 577.916C212.587 578.084 212.148 578.168 211.682 578.168ZM216.646 578V570.496H217.696V571.728L217.556 571.546C217.734 571.191 218 570.911 218.354 570.706C218.718 570.501 219.157 570.398 219.67 570.398H220.146V571.448H219.488C218.947 571.448 218.513 571.616 218.186 571.952C217.86 572.288 217.696 572.764 217.696 573.38V578H216.646ZM224.793 578.168C224.093 578.168 223.458 578 222.889 577.664C222.329 577.319 221.885 576.847 221.559 576.25C221.232 575.653 221.069 574.976 221.069 574.22C221.069 573.464 221.227 572.797 221.545 572.218C221.862 571.63 222.291 571.168 222.833 570.832C223.383 570.496 223.999 570.328 224.681 570.328C225.222 570.328 225.703 570.431 226.123 570.636C226.552 570.832 226.916 571.103 227.215 571.448C227.513 571.784 227.742 572.167 227.901 572.596C228.059 573.016 228.139 573.45 228.139 573.898C228.139 573.991 228.134 574.099 228.125 574.22C228.115 574.332 228.101 574.449 228.083 574.57H221.741V573.59H227.481L226.977 574.01C227.061 573.497 227 573.039 226.795 572.638C226.599 572.227 226.314 571.905 225.941 571.672C225.567 571.429 225.147 571.308 224.681 571.308C224.214 571.308 223.78 571.429 223.379 571.672C222.987 571.915 222.679 572.255 222.455 572.694C222.231 573.123 222.142 573.637 222.189 574.234C222.142 574.831 222.235 575.354 222.469 575.802C222.711 576.241 223.038 576.581 223.449 576.824C223.869 577.067 224.317 577.188 224.793 577.188C225.343 577.188 225.805 577.057 226.179 576.796C226.552 576.535 226.855 576.208 227.089 575.816L227.985 576.292C227.835 576.628 227.607 576.941 227.299 577.23C226.991 577.51 226.622 577.739 226.193 577.916C225.773 578.084 225.306 578.168 224.793 578.168ZM232.023 578.168C231.547 578.168 231.123 578.079 230.749 577.902C230.376 577.715 230.082 577.463 229.867 577.146C229.653 576.829 229.545 576.465 229.545 576.054C229.545 575.662 229.629 575.307 229.797 574.99C229.965 574.663 230.227 574.388 230.581 574.164C230.936 573.94 231.389 573.781 231.939 573.688L234.879 573.198V574.15L232.191 574.598C231.65 574.691 231.258 574.864 231.015 575.116C230.782 575.368 230.665 575.667 230.665 576.012C230.665 576.348 230.796 576.633 231.057 576.866C231.328 577.099 231.673 577.216 232.093 577.216C232.607 577.216 233.055 577.109 233.437 576.894C233.82 576.67 234.119 576.371 234.333 575.998C234.548 575.625 234.655 575.209 234.655 574.752V572.848C234.655 572.4 234.492 572.036 234.165 571.756C233.839 571.476 233.414 571.336 232.891 571.336C232.434 571.336 232.033 571.453 231.687 571.686C231.342 571.91 231.085 572.204 230.917 572.568L229.965 572.05C230.105 571.733 230.325 571.443 230.623 571.182C230.931 570.921 231.281 570.715 231.673 570.566C232.065 570.407 232.471 570.328 232.891 570.328C233.442 570.328 233.927 570.435 234.347 570.65C234.777 570.865 235.108 571.163 235.341 571.546C235.584 571.919 235.705 572.353 235.705 572.848V578H234.655V576.502L234.809 576.656C234.679 576.936 234.473 577.193 234.193 577.426C233.923 577.65 233.601 577.832 233.227 577.972C232.863 578.103 232.462 578.168 232.023 578.168ZM240.598 578.084C239.926 578.084 239.408 577.888 239.044 577.496C238.68 577.104 238.498 576.544 238.498 575.816V571.546H237.112V570.496H237.462C237.78 570.496 238.032 570.393 238.218 570.188C238.405 569.973 238.498 569.707 238.498 569.39V568.76H239.548V570.496H241.2V571.546H239.548V575.816C239.548 576.068 239.586 576.292 239.66 576.488C239.735 576.675 239.861 576.824 240.038 576.936C240.225 577.048 240.472 577.104 240.78 577.104C240.855 577.104 240.944 577.099 241.046 577.09C241.149 577.081 241.238 577.071 241.312 577.062V578C241.2 578.028 241.074 578.047 240.934 578.056C240.794 578.075 240.682 578.084 240.598 578.084ZM246.299 578.168C245.599 578.168 244.964 578 244.395 577.664C243.835 577.319 243.391 576.847 243.065 576.25C242.738 575.653 242.575 574.976 242.575 574.22C242.575 573.464 242.733 572.797 243.051 572.218C243.368 571.63 243.797 571.168 244.339 570.832C244.889 570.496 245.505 570.328 246.187 570.328C246.728 570.328 247.209 570.431 247.629 570.636C248.058 570.832 248.422 571.103 248.721 571.448C249.019 571.784 249.248 572.167 249.407 572.596C249.565 573.016 249.645 573.45 249.645 573.898C249.645 573.991 249.64 574.099 249.631 574.22C249.621 574.332 249.607 574.449 249.589 574.57H243.247V573.59H248.987L248.483 574.01C248.567 573.497 248.506 573.039 248.301 572.638C248.105 572.227 247.82 571.905 247.447 571.672C247.073 571.429 246.653 571.308 246.187 571.308C245.72 571.308 245.286 571.429 244.885 571.672C244.493 571.915 244.185 572.255 243.961 572.694C243.737 573.123 243.648 573.637 243.695 574.234C243.648 574.831 243.741 575.354 243.975 575.802C244.217 576.241 244.544 576.581 244.955 576.824C245.375 577.067 245.823 577.188 246.299 577.188C246.849 577.188 247.311 577.057 247.685 576.796C248.058 576.535 248.361 576.208 248.595 575.816L249.491 576.292C249.341 576.628 249.113 576.941 248.805 577.23C248.497 577.51 248.128 577.739 247.699 577.916C247.279 578.084 246.812 578.168 246.299 578.168ZM254.884 578.168C254.184 578.168 253.554 578 252.994 577.664C252.434 577.319 251.991 576.852 251.664 576.264C251.347 575.667 251.188 574.995 251.188 574.248C251.188 573.492 251.347 572.82 251.664 572.232C251.991 571.644 252.429 571.182 252.98 570.846C253.54 570.501 254.175 570.328 254.884 570.328C255.528 570.328 256.102 570.468 256.606 570.748C257.11 571.028 257.507 571.406 257.796 571.882L257.628 572.176V567.402H258.678V578H257.628V576.32L257.796 576.474C257.535 577.015 257.143 577.435 256.62 577.734C256.107 578.023 255.528 578.168 254.884 578.168ZM254.94 577.118C255.444 577.118 255.897 576.992 256.298 576.74C256.709 576.488 257.031 576.147 257.264 575.718C257.507 575.279 257.628 574.789 257.628 574.248C257.628 573.707 257.507 573.221 257.264 572.792C257.031 572.353 256.709 572.008 256.298 571.756C255.897 571.504 255.444 571.378 254.94 571.378C254.445 571.378 253.997 571.504 253.596 571.756C253.195 572.008 252.877 572.349 252.644 572.778C252.42 573.207 252.308 573.697 252.308 574.248C252.308 574.789 252.42 575.279 252.644 575.718C252.877 576.147 253.19 576.488 253.582 576.74C253.983 576.992 254.436 577.118 254.94 577.118ZM265.817 578.168C265.098 578.168 264.468 577.986 263.927 577.622C263.385 577.258 262.993 576.763 262.751 576.138L263.633 575.718C263.847 576.175 264.146 576.539 264.529 576.81C264.921 577.081 265.35 577.216 265.817 577.216C266.265 577.216 266.643 577.109 266.951 576.894C267.259 576.67 267.413 576.381 267.413 576.026C267.413 575.765 267.338 575.559 267.189 575.41C267.039 575.251 266.867 575.13 266.671 575.046C266.475 574.962 266.302 574.901 266.153 574.864L265.075 574.556C264.384 574.36 263.885 574.085 263.577 573.73C263.269 573.375 263.115 572.965 263.115 572.498C263.115 572.059 263.227 571.677 263.451 571.35C263.675 571.023 263.978 570.771 264.361 570.594C264.743 570.417 265.168 570.328 265.635 570.328C266.269 570.328 266.843 570.496 267.357 570.832C267.879 571.159 268.248 571.616 268.463 572.204L267.567 572.624C267.38 572.204 267.109 571.877 266.755 571.644C266.409 571.401 266.022 571.28 265.593 571.28C265.173 571.28 264.837 571.387 264.585 571.602C264.333 571.817 264.207 572.087 264.207 572.414C264.207 572.666 264.272 572.867 264.403 573.016C264.533 573.165 264.683 573.277 264.851 573.352C265.028 573.427 265.182 573.483 265.313 573.52L266.559 573.884C267.165 574.061 267.637 574.337 267.973 574.71C268.318 575.083 268.491 575.522 268.491 576.026C268.491 576.437 268.374 576.805 268.141 577.132C267.917 577.459 267.604 577.715 267.203 577.902C266.801 578.079 266.339 578.168 265.817 578.168ZM272.996 578.168C272.473 578.168 271.997 578.047 271.568 577.804C271.138 577.552 270.798 577.207 270.546 576.768C270.303 576.32 270.182 575.807 270.182 575.228V570.496H271.232V575.102C271.232 575.503 271.311 575.858 271.47 576.166C271.638 576.465 271.866 576.698 272.156 576.866C272.454 577.034 272.795 577.118 273.178 577.118C273.56 577.118 273.901 577.034 274.2 576.866C274.498 576.689 274.732 576.441 274.9 576.124C275.068 575.797 275.152 575.41 275.152 574.962V570.496H276.202V578H275.152V576.544L275.39 576.6C275.212 577.085 274.909 577.468 274.48 577.748C274.05 578.028 273.556 578.168 272.996 578.168ZM281.791 578.168C281.054 578.168 280.405 577.995 279.845 577.65C279.285 577.305 278.847 576.838 278.529 576.25C278.212 575.653 278.053 574.981 278.053 574.234C278.053 573.487 278.212 572.82 278.529 572.232C278.847 571.644 279.285 571.182 279.845 570.846C280.405 570.501 281.054 570.328 281.791 570.328C282.258 570.328 282.697 570.412 283.107 570.58C283.518 570.748 283.882 570.977 284.199 571.266C284.517 571.546 284.755 571.873 284.913 572.246L283.961 572.736C283.775 572.335 283.49 572.008 283.107 571.756C282.725 571.504 282.286 571.378 281.791 571.378C281.297 571.378 280.849 571.504 280.447 571.756C280.055 571.999 279.743 572.339 279.509 572.778C279.285 573.207 279.173 573.697 279.173 574.248C279.173 574.789 279.285 575.279 279.509 575.718C279.743 576.147 280.055 576.488 280.447 576.74C280.849 576.992 281.297 577.118 281.791 577.118C282.286 577.118 282.72 576.992 283.093 576.74C283.476 576.488 283.765 576.152 283.961 575.732L284.913 576.25C284.755 576.614 284.517 576.941 284.199 577.23C283.882 577.519 283.518 577.748 283.107 577.916C282.697 578.084 282.258 578.168 281.791 578.168ZM290.186 578.168C289.448 578.168 288.8 577.995 288.24 577.65C287.68 577.305 287.241 576.838 286.924 576.25C286.606 575.653 286.448 574.981 286.448 574.234C286.448 573.487 286.606 572.82 286.924 572.232C287.241 571.644 287.68 571.182 288.24 570.846C288.8 570.501 289.448 570.328 290.186 570.328C290.652 570.328 291.091 570.412 291.502 570.58C291.912 570.748 292.276 570.977 292.594 571.266C292.911 571.546 293.149 571.873 293.308 572.246L292.356 572.736C292.169 572.335 291.884 572.008 291.502 571.756C291.119 571.504 290.68 571.378 290.186 571.378C289.691 571.378 289.243 571.504 288.842 571.756C288.45 571.999 288.137 572.339 287.904 572.778C287.68 573.207 287.568 573.697 287.568 574.248C287.568 574.789 287.68 575.279 287.904 575.718C288.137 576.147 288.45 576.488 288.842 576.74C289.243 576.992 289.691 577.118 290.186 577.118C290.68 577.118 291.114 576.992 291.488 576.74C291.87 576.488 292.16 576.152 292.356 575.732L293.308 576.25C293.149 576.614 292.911 576.941 292.594 577.23C292.276 577.519 291.912 577.748 291.502 577.916C291.091 578.084 290.652 578.168 290.186 578.168ZM298.566 578.168C297.866 578.168 297.232 578 296.662 577.664C296.102 577.319 295.659 576.847 295.332 576.25C295.006 575.653 294.842 574.976 294.842 574.22C294.842 573.464 295.001 572.797 295.318 572.218C295.636 571.63 296.065 571.168 296.606 570.832C297.157 570.496 297.773 570.328 298.454 570.328C298.996 570.328 299.476 570.431 299.896 570.636C300.326 570.832 300.69 571.103 300.988 571.448C301.287 571.784 301.516 572.167 301.674 572.596C301.833 573.016 301.912 573.45 301.912 573.898C301.912 573.991 301.908 574.099 301.898 574.22C301.889 574.332 301.875 574.449 301.856 574.57H295.514V573.59H301.254L300.75 574.01C300.834 573.497 300.774 573.039 300.568 572.638C300.372 572.227 300.088 571.905 299.714 571.672C299.341 571.429 298.921 571.308 298.454 571.308C297.988 571.308 297.554 571.429 297.152 571.672C296.76 571.915 296.452 572.255 296.228 572.694C296.004 573.123 295.916 573.637 295.962 574.234C295.916 574.831 296.009 575.354 296.242 575.802C296.485 576.241 296.812 576.581 297.222 576.824C297.642 577.067 298.09 577.188 298.566 577.188C299.117 577.188 299.579 577.057 299.952 576.796C300.326 576.535 300.629 576.208 300.862 575.816L301.758 576.292C301.609 576.628 301.38 576.941 301.072 577.23C300.764 577.51 300.396 577.739 299.966 577.916C299.546 578.084 299.08 578.168 298.566 578.168ZM306.368 578.168C305.649 578.168 305.019 577.986 304.478 577.622C303.936 577.258 303.544 576.763 303.302 576.138L304.184 575.718C304.398 576.175 304.697 576.539 305.08 576.81C305.472 577.081 305.901 577.216 306.368 577.216C306.816 577.216 307.194 577.109 307.502 576.894C307.81 576.67 307.964 576.381 307.964 576.026C307.964 575.765 307.889 575.559 307.74 575.41C307.59 575.251 307.418 575.13 307.222 575.046C307.026 574.962 306.853 574.901 306.704 574.864L305.626 574.556C304.935 574.36 304.436 574.085 304.128 573.73C303.82 573.375 303.666 572.965 303.666 572.498C303.666 572.059 303.778 571.677 304.002 571.35C304.226 571.023 304.529 570.771 304.912 570.594C305.294 570.417 305.719 570.328 306.186 570.328C306.82 570.328 307.394 570.496 307.908 570.832C308.43 571.159 308.799 571.616 309.014 572.204L308.118 572.624C307.931 572.204 307.66 571.877 307.306 571.644C306.96 571.401 306.573 571.28 306.144 571.28C305.724 571.28 305.388 571.387 305.136 571.602C304.884 571.817 304.758 572.087 304.758 572.414C304.758 572.666 304.823 572.867 304.954 573.016C305.084 573.165 305.234 573.277 305.402 573.352C305.579 573.427 305.733 573.483 305.864 573.52L307.11 573.884C307.716 574.061 308.188 574.337 308.524 574.71C308.869 575.083 309.042 575.522 309.042 576.026C309.042 576.437 308.925 576.805 308.692 577.132C308.468 577.459 308.155 577.715 307.754 577.902C307.352 578.079 306.89 578.168 306.368 578.168ZM313.491 578.168C312.772 578.168 312.142 577.986 311.601 577.622C311.059 577.258 310.667 576.763 310.425 576.138L311.307 575.718C311.521 576.175 311.82 576.539 312.203 576.81C312.595 577.081 313.024 577.216 313.491 577.216C313.939 577.216 314.317 577.109 314.625 576.894C314.933 576.67 315.087 576.381 315.087 576.026C315.087 575.765 315.012 575.559 314.863 575.41C314.713 575.251 314.541 575.13 314.345 575.046C314.149 574.962 313.976 574.901 313.827 574.864L312.749 574.556C312.058 574.36 311.559 574.085 311.251 573.73C310.943 573.375 310.789 572.965 310.789 572.498C310.789 572.059 310.901 571.677 311.125 571.35C311.349 571.023 311.652 570.771 312.035 570.594C312.417 570.417 312.842 570.328 313.309 570.328C313.943 570.328 314.517 570.496 315.031 570.832C315.553 571.159 315.922 571.616 316.137 572.204L315.241 572.624C315.054 572.204 314.783 571.877 314.429 571.644C314.083 571.401 313.696 571.28 313.267 571.28C312.847 571.28 312.511 571.387 312.259 571.602C312.007 571.817 311.881 572.087 311.881 572.414C311.881 572.666 311.946 572.867 312.077 573.016C312.207 573.165 312.357 573.277 312.525 573.352C312.702 573.427 312.856 573.483 312.987 573.52L314.233 573.884C314.839 574.061 315.311 574.337 315.647 574.71C315.992 575.083 316.165 575.522 316.165 576.026C316.165 576.437 316.048 576.805 315.815 577.132C315.591 577.459 315.278 577.715 314.877 577.902C314.475 578.079 314.013 578.168 313.491 578.168ZM318.78 578V571.546H317.282V570.496H318.78V569.824C318.78 569.301 318.896 568.863 319.13 568.508C319.363 568.144 319.671 567.869 320.054 567.682C320.436 567.495 320.847 567.402 321.286 567.402C321.379 567.402 321.486 567.411 321.608 567.43C321.729 567.439 321.827 567.453 321.902 567.472V568.424C321.836 568.405 321.748 568.396 321.636 568.396C321.524 568.387 321.444 568.382 321.398 568.382C320.95 568.382 320.576 568.489 320.278 568.704C319.979 568.919 319.83 569.292 319.83 569.824V570.496H321.664V571.546H319.83V578H318.78ZM326.166 578.168C325.643 578.168 325.167 578.047 324.738 577.804C324.308 577.552 323.968 577.207 323.716 576.768C323.473 576.32 323.352 575.807 323.352 575.228V570.496H324.402V575.102C324.402 575.503 324.481 575.858 324.64 576.166C324.808 576.465 325.036 576.698 325.326 576.866C325.624 577.034 325.965 577.118 326.348 577.118C326.73 577.118 327.071 577.034 327.37 576.866C327.668 576.689 327.902 576.441 328.07 576.124C328.238 575.797 328.322 575.41 328.322 574.962V570.496H329.372V578H328.322V576.544L328.56 576.6C328.382 577.085 328.079 577.468 327.65 577.748C327.22 578.028 326.726 578.168 326.166 578.168ZM331.531 578V567.402H332.581V578H331.531ZM334.73 578V567.402H335.78V578H334.73ZM338.084 581.08C337.934 581.08 337.78 581.066 337.622 581.038C337.472 581.019 337.323 580.982 337.174 580.926V579.946C337.267 579.955 337.384 579.969 337.524 579.988C337.673 580.016 337.822 580.03 337.972 580.03C338.429 580.03 338.779 579.932 339.022 579.736C339.264 579.549 339.502 579.185 339.736 578.644L340.212 577.524L340.184 578.448L337.006 570.496H338.14L340.744 577.062H340.45L343.04 570.496H344.202L340.772 578.952C340.622 579.316 340.431 579.661 340.198 579.988C339.974 580.315 339.689 580.576 339.344 580.772C338.998 580.977 338.578 581.08 338.084 581.08ZM345.239 578V576.46H346.359V578H345.239Z" fill="#555555"/>
</g>
<defs>
<filter id="filter0_f_59_1040" x="-238" y="295" width="879" height="879" filterUnits="userSpaceOnUse" color-interpolation-filters="sRGB">
<feFlood flood-opacity="0" result="BackgroundImageFix"/>
<feBlend mode="normal" in="SourceGraphic" in2="BackgroundImageFix" result="shape"/>
<feGaussianBlur stdDeviation="150" result="effect1_foregroundBlur_59_1040"/>
</filter>
<clipPath id="clip0_59_1040">
<rect width="402" height="874" fill="white"/>
</clipPath>
</defs>
</svg>
