<svg width="31" height="32" viewBox="0 0 31 32" fill="none" xmlns="http://www.w3.org/2000/svg">
<path d="M5.72976 31.9414C4.97908 31.7192 4.55058 30.9305 4.77276 30.1798L6.04764 25.8723L8.7662 26.6769L7.49133 30.9844C7.26914 31.7351 6.48045 32.1636 5.72976 31.9414ZM21.4444 31.9414C22.1951 31.7192 22.6236 30.9305 22.4014 30.1798L21.1265 25.8723L18.408 26.6769L19.6828 30.9844C19.905 31.7351 20.6937 32.1636 21.4444 31.9414Z" fill="#E19974"/>
<path d="M8.76605 26.677L7.49124 30.9845C7.26924 31.7351 6.48011 32.1637 5.72949 31.9411C5.63081 31.9123 5.53569 31.8724 5.44592 31.8224C5.77178 31.6427 6.01345 31.3415 6.1183 30.9845L7.56311 26.3209L8.76605 26.677ZM21.4441 31.9411C21.2639 31.9948 21.0747 32.0119 20.8878 31.9916C20.7008 31.9712 20.5198 31.9137 20.3554 31.8224C20.9257 31.5086 21.2215 30.8299 21.0284 30.1799L19.8639 26.2458L21.1265 25.8724L22.4014 30.1799C22.6233 30.9306 22.1954 31.7191 21.4441 31.9411Z" fill="#DC8758"/>
<path d="M13.5871 30.0582C21.091 30.0582 27.1741 23.975 27.1741 16.4711C27.1741 8.96717 21.091 2.88403 13.5871 2.88403C6.08313 2.88403 0 8.96717 0 16.4711C0 23.975 6.08313 30.0582 13.5871 30.0582Z" fill="#FE646F"/>
<path d="M27.174 16.4709C27.174 23.9747 21.0913 30.0581 13.5868 30.0581C10.4502 30.0581 7.56251 28.9956 5.26245 27.2101C7.29108 28.4156 9.66108 29.1079 12.192 29.1079C19.6958 29.1079 25.7791 23.0245 25.7791 15.5207C25.7791 11.1517 23.7171 7.26443 20.5125 4.77893C24.5012 7.14699 27.174 11.4968 27.174 16.4709Z" fill="#FD4755"/>
<path d="M13.5871 27.2649C19.5483 27.2649 24.3808 22.4323 24.3808 16.4711C24.3808 10.5099 19.5483 5.67737 13.5871 5.67737C7.62586 5.67737 2.79333 10.5099 2.79333 16.4711C2.79333 22.4323 7.62586 27.2649 13.5871 27.2649Z" fill="#F9F8F9"/>
<path d="M24.3806 16.471C24.3806 22.4324 19.5483 27.2647 13.5868 27.2647C12.0298 27.2647 10.5503 26.935 9.21326 26.3422C10.1955 26.636 11.2361 26.7938 12.3139 26.7938C18.2748 26.7938 23.1077 21.9615 23.1077 16.0001C23.1077 11.5957 20.4696 7.80728 16.6875 6.12891C21.1374 7.46141 24.3806 11.588 24.3806 16.471Z" fill="#EFEDEF"/>
<path d="M13.5871 24.558C18.0533 24.558 21.6739 20.9374 21.6739 16.4712C21.6739 12.0049 18.0533 8.38428 13.5871 8.38428C9.1208 8.38428 5.50018 12.0049 5.50018 16.4712C5.50018 20.9374 9.1208 24.558 13.5871 24.558Z" fill="#FE646F"/>
<path d="M21.6738 16.471C21.6738 20.9377 18.0534 24.558 13.5868 24.558C12.083 24.558 10.6748 24.1473 9.46857 23.432C10.3283 23.7432 11.2559 23.9132 12.2228 23.9132C16.6894 23.9132 20.3098 20.2928 20.3098 15.8262C20.3098 12.8647 18.7174 10.2747 16.3424 8.86584C19.4521 9.99247 21.6738 12.9725 21.6738 16.471Z" fill="#FD4755"/>
<path d="M13.587 21.6793C16.4635 21.6793 18.7953 19.3475 18.7953 16.4711C18.7953 13.5946 16.4635 11.2628 13.587 11.2628C10.7106 11.2628 8.37878 13.5946 8.37878 16.4711C8.37878 19.3475 10.7106 21.6793 13.587 21.6793Z" fill="#F9F8F9"/>
<path d="M18.795 16.471C18.795 19.3478 16.4636 21.6793 13.5868 21.6793C12.5051 21.6793 11.5004 21.3495 10.6677 20.7856C11.1865 20.9532 11.7283 21.0383 12.2735 21.0377C15.1497 21.0377 17.4818 18.7063 17.4818 15.8294C17.4818 14.0343 16.5734 12.4509 15.1914 11.5155C17.2829 12.1911 18.795 14.1549 18.795 16.471Z" fill="#EFEDEF"/>
<path d="M13.587 18.8206C14.8846 18.8206 15.9365 17.7687 15.9365 16.4711C15.9365 15.1735 14.8846 14.1216 13.587 14.1216C12.2895 14.1216 11.2375 15.1735 11.2375 16.4711C11.2375 17.7687 12.2895 18.8206 13.587 18.8206Z" fill="#FE646F"/>
<path d="M15.9362 16.471C15.9362 17.7689 14.8847 18.8205 13.5868 18.8205C13.0718 18.8211 12.571 18.652 12.1619 18.3393C12.2344 18.3463 12.3075 18.3495 12.3819 18.3495C13.6792 18.3495 14.7314 17.298 14.7314 16.0001C14.7314 15.2385 14.3689 14.561 13.8069 14.1318C15.0015 14.2428 15.9362 15.2481 15.9362 16.471Z" fill="#FD4755"/>
<path d="M13.5871 16.9523C13.4919 16.9522 13.3989 16.924 13.3198 16.8711C13.2407 16.8182 13.179 16.7431 13.1426 16.6552C13.1062 16.5673 13.0966 16.4705 13.1152 16.3772C13.1337 16.2839 13.1795 16.1981 13.2468 16.1308L26.0616 3.31608C26.1522 3.22779 26.274 3.17875 26.4005 3.17958C26.527 3.1804 26.6482 3.23103 26.7376 3.3205C26.8271 3.40998 26.8778 3.53109 26.8786 3.65762C26.8794 3.78416 26.8304 3.90593 26.7421 3.99658L13.9273 16.8113C13.8827 16.8561 13.8296 16.8915 13.7712 16.9157C13.7128 16.9399 13.6503 16.9523 13.5871 16.9523Z" fill="#8B8089"/>
<path d="M26.8676 3.19053L26.4925 0.22466C26.4658 0.0130348 26.2074 -0.0754027 26.0566 0.0754723L21.5146 4.61741C21.4851 4.64693 21.4633 4.68321 21.4509 4.72309C21.4386 4.76298 21.4362 4.80526 21.4439 4.84628L22.0411 8.0171L26.8676 3.19053Z" fill="#FEE97D"/>
<path d="M26.8679 3.19053L22.0407 8.01703L21.7559 6.50228L26.6658 1.59241L26.8679 3.19053Z" fill="#FEDF30"/>
<path d="M26.8676 3.19055L29.8335 3.56568C30.0451 3.59243 30.1335 3.8508 29.9826 4.00161L25.4407 8.54355C25.4112 8.57306 25.3749 8.59493 25.335 8.60725C25.2951 8.61956 25.2529 8.62196 25.2118 8.61424L22.041 8.01711L26.8676 3.19055Z" fill="#FEDF30"/>
<path d="M29.9828 4.00141L25.4411 8.54373C25.4114 8.5731 25.3751 8.59487 25.3352 8.60715C25.2953 8.61944 25.253 8.62189 25.212 8.61429L23.7993 8.34804L28.5693 3.57798C28.6135 3.5347 28.6402 3.47672 28.6444 3.41504L29.8332 3.56579C30.045 3.59273 30.1335 3.85066 29.9828 4.00141Z" fill="#FED402"/>
</svg>
