<svg width="258" height="258" viewBox="0 0 258 258" fill="none" xmlns="http://www.w3.org/2000/svg">
<path fill-rule="evenodd" clip-rule="evenodd" d="M41.4287 121.952C42.1247 121.704 42.8571 121.374 43.4219 120.897C44.0927 120.33 44.3655 119.6 44.5487 118.832C44.7839 117.844 44.8779 116.793 45.1631 115.804C45.2687 115.437 45.4719 115.298 45.5591 115.236C45.7795 115.081 46.0023 115.039 46.2119 115.055C46.4603 115.073 46.8015 115.167 47.0259 115.583C47.0579 115.643 47.0995 115.734 47.1275 115.858C47.1479 115.949 47.1611 116.234 47.1827 116.352C47.2367 116.642 47.2819 116.931 47.3243 117.222C47.4655 118.192 47.5467 119.015 47.9927 119.905C48.5979 121.114 49.2043 121.854 50.0267 122.181C50.8219 122.498 51.7727 122.438 52.9875 122.19C53.1031 122.162 53.2175 122.138 53.3307 122.118C53.8663 122.025 54.3783 122.376 54.4835 122.91C54.5887 123.443 54.2483 123.963 53.7175 124.08C53.6067 124.104 53.4975 124.128 53.3895 124.149C51.7479 124.555 49.8475 126.006 48.7431 127.276C48.4027 127.667 47.9043 128.762 47.3959 129.46C47.0207 129.976 46.5991 130.315 46.2451 130.435C46.0079 130.516 45.8079 130.504 45.6427 130.463C45.4027 130.404 45.2035 130.274 45.0507 130.067C44.9675 129.954 44.8903 129.802 44.8535 129.608C44.8359 129.515 44.8339 129.278 44.8343 129.171C44.7307 128.815 44.6039 128.467 44.5115 128.107C44.2911 127.249 43.8587 126.706 43.3451 125.988C42.8647 125.317 42.3487 124.895 41.5923 124.558C41.4939 124.534 40.6999 124.34 40.4195 124.228C40.0099 124.064 39.8147 123.79 39.7439 123.643C39.6235 123.392 39.6111 123.174 39.6351 122.991C39.6707 122.722 39.7915 122.492 40.0059 122.306C40.1387 122.19 40.3371 122.078 40.6027 122.023C40.8079 121.98 41.3523 121.955 41.4287 121.952ZM46.0867 120.553C46.1235 120.635 46.1627 120.718 46.2043 120.801C47.0907 122.571 48.0819 123.56 49.2867 124.039L49.3271 124.055C48.5211 124.653 47.7915 125.322 47.2339 125.963C47.0043 126.227 46.7003 126.776 46.3719 127.338C46.0735 126.368 45.5855 125.682 44.9719 124.824C44.5031 124.17 44.0119 123.677 43.4083 123.275C43.8767 123.035 44.3235 122.753 44.7127 122.424C45.3607 121.877 45.7891 121.242 46.0867 120.553Z" fill="#60A5FA"/>
<circle cx="59.1249" cy="3.90342" r="3.9" fill="#60A5FA"/>
<circle cx="214.475" cy="85.1524" r="3.9" fill="#60A5FA"/>
<path d="M123.475 148.203C164.399 148.203 197.575 115.028 197.575 74.1034C197.575 33.1791 164.399 0.00341797 123.475 0.00341797C82.5507 0.00341797 49.375 33.1791 49.375 74.1034C49.375 115.028 82.5507 148.203 123.475 148.203Z" fill="#F1F5F9"/>
<path d="M123.15 0C131.227 0 137.775 6.54784 137.775 14.625C137.775 22.7022 131.227 29.25 123.15 29.25C115.073 29.25 108.525 22.7022 108.525 14.625C108.525 6.54784 115.073 0 123.15 0ZM122.825 7.15039C118.517 7.15048 115.025 10.6424 115.025 14.9502C115.025 19.2578 118.517 22.7499 122.825 22.75C127.132 22.75 130.624 19.2579 130.625 14.9502C130.625 10.6424 127.133 7.15039 122.825 7.15039Z" fill="black"/>
<path d="M122.858 132.017C138.671 132.017 151.49 119.198 151.49 103.385C151.49 87.5716 138.671 74.7524 122.858 74.7524C107.044 74.7524 94.2251 87.5716 94.2251 103.385C94.2251 119.198 107.044 132.017 122.858 132.017Z" fill="#60A5FA"/>
<path d="M168.174 82.0945V60.1277C168.174 48.1459 163.414 36.6548 154.941 28.1824C146.469 19.71 134.978 14.9502 122.996 14.9502C111.014 14.9502 99.5232 19.71 91.0507 28.1824C82.5783 36.6548 77.8186 48.1459 77.8186 60.1277V82.0945C77.8191 87.1412 76.3914 92.085 73.7006 96.3545C71.0098 100.624 67.1657 104.045 62.6126 106.222C61.5661 106.72 60.6827 107.505 60.0653 108.486C59.4479 109.467 59.1218 110.603 59.125 111.763V111.882C59.1242 112.3 59.206 112.715 59.3657 113.102C59.5253 113.489 59.7598 113.841 60.0555 114.137C60.3512 114.433 60.7025 114.668 61.0892 114.829C61.4759 114.989 61.8904 115.072 62.3091 115.072H183.677C184.096 115.072 184.51 114.989 184.897 114.829C185.284 114.668 185.635 114.433 185.931 114.137C186.226 113.841 186.461 113.489 186.62 113.102C186.78 112.715 186.862 112.3 186.861 111.882V111.763C186.862 110.607 186.535 109.475 185.919 108.498C185.302 107.52 184.422 106.737 183.38 106.24C178.824 104.061 174.978 100.638 172.287 96.3648C169.596 92.0919 168.17 87.1442 168.174 82.0945Z" fill="#60A5FA"/>
<path fill-rule="evenodd" clip-rule="evenodd" d="M187.175 115.05H59.125V111.15H187.175V115.05Z" fill="black"/>
<path d="M159.225 56.5484C169.277 56.5484 177.425 48.4 177.425 38.3485C177.425 28.2969 169.277 20.1484 159.225 20.1484C149.174 20.1484 141.025 28.2969 141.025 38.3485C141.025 48.4 149.174 56.5484 159.225 56.5484Z" fill="white"/>
<path d="M154.675 38.3409C154.675 36.7266 155.044 35.4575 155.782 34.5337C156.53 33.6099 157.678 33.1479 159.225 33.1479C160.762 33.1479 161.904 33.6145 162.653 34.5477C163.401 35.4715 163.775 36.7359 163.775 38.3409C163.775 39.9553 163.401 41.2291 162.653 42.1622C161.904 43.086 160.762 43.5479 159.225 43.5479C157.678 43.5479 156.53 43.086 155.782 42.1622C155.044 41.2291 154.675 39.9553 154.675 38.3409ZM160.454 38.3409C160.454 37.5944 160.373 37.0345 160.211 36.6613C160.049 36.2787 159.72 36.0874 159.225 36.0874C158.719 36.0874 158.386 36.2787 158.224 36.6613C158.062 37.0345 157.981 37.5944 157.981 38.3409C157.981 39.0968 158.062 39.666 158.224 40.0486C158.386 40.4219 158.719 40.6085 159.225 40.6085C159.72 40.6085 160.049 40.4219 160.211 40.0486C160.373 39.666 160.454 39.0968 160.454 38.3409Z" fill="black"/>
<path fill-rule="evenodd" clip-rule="evenodd" d="M87.7951 124.996C84.6812 127.812 81.5762 130.571 78.5458 133.477C77.8915 134.099 77.8669 135.126 78.4858 135.773C79.1067 136.426 80.1392 136.447 80.7872 135.826C83.803 132.939 86.8811 130.203 89.9742 127.407C90.6406 126.801 90.6921 125.772 90.096 125.111C89.4916 124.445 88.4615 124.39 87.7951 124.996Z" fill="black"/>
<path fill-rule="evenodd" clip-rule="evenodd" d="M158.136 124.998C161.232 127.815 164.32 130.575 167.332 133.481C167.983 134.103 168.002 135.129 167.381 135.775C166.757 136.427 165.726 136.446 165.081 135.826C162.083 132.938 159.023 130.201 155.947 127.405C155.284 126.799 155.238 125.771 155.837 125.111C156.444 124.446 157.473 124.392 158.136 124.998Z" fill="black"/>
<path fill-rule="evenodd" clip-rule="evenodd" d="M120.974 143.194C120.924 147.383 120.839 151.527 120.912 155.716C120.924 156.617 121.66 157.329 122.554 157.313C123.454 157.299 124.17 156.555 124.155 155.659C124.086 151.494 124.17 147.385 124.22 143.225C124.228 142.326 123.509 141.592 122.619 141.583C121.722 141.576 120.982 142.295 120.974 143.194Z" fill="black"/>
<path d="M54.578 210.046V198.126H55.89L62.738 207.758L62.146 207.822V198.126H63.73V210.046H62.418L55.602 200.35L56.146 200.286V210.046H54.578ZM70.3105 210.238C69.4785 210.238 68.7265 210.046 68.0545 209.662C67.3825 209.268 66.8492 208.729 66.4545 208.046C66.0598 207.364 65.8625 206.59 65.8625 205.726C65.8625 204.862 66.0545 204.094 66.4385 203.422C66.8332 202.75 67.3665 202.217 68.0385 201.822C68.7105 201.428 69.4678 201.23 70.3105 201.23C71.1425 201.23 71.8945 201.428 72.5665 201.822C73.2385 202.206 73.7665 202.734 74.1505 203.406C74.5452 204.078 74.7425 204.852 74.7425 205.726C74.7425 206.601 74.5398 207.38 74.1345 208.062C73.7292 208.734 73.1905 209.268 72.5185 209.662C71.8572 210.046 71.1212 210.238 70.3105 210.238ZM70.3105 208.798C70.8438 208.798 71.3238 208.665 71.7505 208.398C72.1878 208.132 72.5292 207.764 72.7745 207.294C73.0305 206.825 73.1585 206.302 73.1585 205.726C73.1585 205.14 73.0305 204.622 72.7745 204.174C72.5292 203.716 72.1878 203.353 71.7505 203.086C71.3238 202.809 70.8438 202.67 70.3105 202.67C69.7665 202.67 69.2758 202.809 68.8385 203.086C68.4118 203.353 68.0705 203.716 67.8145 204.174C67.5585 204.622 67.4305 205.14 67.4305 205.726C67.4305 206.302 67.5585 206.825 67.8145 207.294C68.0705 207.764 68.4118 208.132 68.8385 208.398C69.2758 208.665 69.7665 208.798 70.3105 208.798ZM79.6249 210.046V198.126H80.9369L87.7849 207.758L87.1929 207.822V198.126H88.7769V210.046H87.4649L80.6489 200.35L81.1929 200.286V210.046H79.6249ZM95.3574 210.238C94.5254 210.238 93.7734 210.046 93.1014 209.662C92.4294 209.268 91.896 208.729 91.5014 208.046C91.1067 207.364 90.9094 206.59 90.9094 205.726C90.9094 204.862 91.1014 204.094 91.4854 203.422C91.88 202.75 92.4134 202.217 93.0854 201.822C93.7574 201.428 94.5147 201.23 95.3574 201.23C96.1894 201.23 96.9414 201.428 97.6134 201.822C98.2854 202.206 98.8134 202.734 99.1974 203.406C99.592 204.078 99.7894 204.852 99.7894 205.726C99.7894 206.601 99.5867 207.38 99.1814 208.062C98.776 208.734 98.2374 209.268 97.5654 209.662C96.904 210.046 96.168 210.238 95.3574 210.238ZM95.3574 208.798C95.8907 208.798 96.3707 208.665 96.7974 208.398C97.2347 208.132 97.576 207.764 97.8214 207.294C98.0774 206.825 98.2054 206.302 98.2054 205.726C98.2054 205.14 98.0774 204.622 97.8214 204.174C97.576 203.716 97.2347 203.353 96.7974 203.086C96.3707 202.809 95.8907 202.67 95.3574 202.67C94.8134 202.67 94.3227 202.809 93.8854 203.086C93.4587 203.353 93.1174 203.716 92.8614 204.174C92.6054 204.622 92.4774 205.14 92.4774 205.726C92.4774 206.302 92.6054 206.825 92.8614 207.294C93.1174 207.764 93.4587 208.132 93.8854 208.398C94.3227 208.665 94.8134 208.798 95.3574 208.798ZM105.078 210.142C104.235 210.142 103.585 209.902 103.126 209.422C102.678 208.942 102.454 208.265 102.454 207.39V202.846H100.886V201.422H101.206C101.59 201.422 101.894 201.305 102.118 201.07C102.342 200.836 102.454 200.526 102.454 200.142V199.438H103.942V201.422H105.878V202.846H103.942V207.342C103.942 207.63 103.985 207.881 104.07 208.094C104.166 208.308 104.321 208.478 104.534 208.606C104.747 208.724 105.03 208.782 105.382 208.782C105.457 208.782 105.547 208.777 105.654 208.766C105.771 208.756 105.878 208.745 105.974 208.734V210.046C105.835 210.078 105.681 210.1 105.51 210.11C105.339 210.132 105.195 210.142 105.078 210.142ZM107.918 210.046V201.422H109.406V210.046H107.918ZM107.918 200.046V198.126H109.406V200.046H107.918ZM112.627 210.046V202.846H110.979V201.422H112.627V200.814C112.627 200.196 112.76 199.673 113.027 199.246C113.304 198.82 113.667 198.494 114.115 198.27C114.573 198.046 115.08 197.934 115.635 197.934C115.752 197.934 115.88 197.945 116.019 197.966C116.168 197.977 116.291 197.993 116.387 198.014V199.342C116.301 199.321 116.2 199.31 116.083 199.31C115.965 199.3 115.875 199.294 115.811 199.294C115.32 199.294 114.915 199.412 114.595 199.646C114.285 199.881 114.131 200.27 114.131 200.814V201.422H116.179V202.846H114.131V210.046H112.627ZM117.918 210.046V201.422H119.406V210.046H117.918ZM117.918 200.046V198.126H119.406V200.046H117.918ZM125.715 210.238C124.872 210.238 124.12 210.041 123.459 209.646C122.808 209.252 122.296 208.713 121.923 208.03C121.549 207.348 121.363 206.58 121.363 205.726C121.363 204.862 121.549 204.094 121.923 203.422C122.296 202.75 122.808 202.217 123.459 201.822C124.12 201.428 124.872 201.23 125.715 201.23C126.28 201.23 126.808 201.332 127.299 201.534C127.789 201.737 128.221 202.009 128.595 202.35C128.968 202.692 129.24 203.092 129.411 203.55L128.083 204.19C127.88 203.742 127.571 203.38 127.155 203.102C126.739 202.814 126.259 202.67 125.715 202.67C125.192 202.67 124.717 202.804 124.291 203.07C123.875 203.337 123.544 203.7 123.299 204.158C123.053 204.617 122.931 205.145 122.931 205.742C122.931 206.318 123.053 206.841 123.299 207.31C123.544 207.769 123.875 208.132 124.291 208.398C124.717 208.665 125.192 208.798 125.715 208.798C126.259 208.798 126.739 208.66 127.155 208.382C127.571 208.094 127.88 207.716 128.083 207.246L129.411 207.918C129.24 208.366 128.968 208.766 128.595 209.118C128.221 209.46 127.789 209.732 127.299 209.934C126.808 210.137 126.28 210.238 125.715 210.238ZM133.774 210.238C133.208 210.238 132.707 210.137 132.27 209.934C131.843 209.721 131.507 209.433 131.262 209.07C131.016 208.697 130.894 208.27 130.894 207.79C130.894 207.332 130.99 206.921 131.182 206.558C131.384 206.185 131.694 205.87 132.11 205.614C132.536 205.358 133.07 205.177 133.71 205.07L136.91 204.542V205.79L134.046 206.27C133.491 206.366 133.086 206.542 132.83 206.798C132.584 207.054 132.462 207.369 132.462 207.742C132.462 208.094 132.6 208.388 132.878 208.622C133.166 208.857 133.523 208.974 133.95 208.974C134.494 208.974 134.963 208.862 135.358 208.638C135.763 208.404 136.078 208.089 136.302 207.694C136.536 207.3 136.654 206.862 136.654 206.382V204.19C136.654 203.721 136.478 203.342 136.126 203.054C135.784 202.756 135.331 202.606 134.766 202.606C134.275 202.606 133.838 202.734 133.454 202.99C133.08 203.236 132.803 203.566 132.622 203.982L131.326 203.31C131.486 202.916 131.742 202.564 132.094 202.254C132.446 201.934 132.856 201.684 133.326 201.502C133.795 201.321 134.286 201.23 134.798 201.23C135.459 201.23 136.04 201.358 136.542 201.614C137.043 201.86 137.432 202.206 137.71 202.654C137.998 203.092 138.142 203.604 138.142 204.19V210.046H136.686V208.414L136.958 208.51C136.776 208.852 136.531 209.15 136.222 209.406C135.912 209.662 135.55 209.865 135.134 210.014C134.718 210.164 134.264 210.238 133.774 210.238ZM143.797 210.142C142.954 210.142 142.303 209.902 141.845 209.422C141.397 208.942 141.173 208.265 141.173 207.39V202.846H139.605V201.422H139.925C140.309 201.422 140.613 201.305 140.837 201.07C141.061 200.836 141.173 200.526 141.173 200.142V199.438H142.661V201.422H144.597V202.846H142.661V207.342C142.661 207.63 142.703 207.881 142.789 208.094C142.885 208.308 143.039 208.478 143.253 208.606C143.466 208.724 143.749 208.782 144.101 208.782C144.175 208.782 144.266 208.777 144.373 208.766C144.49 208.756 144.597 208.745 144.693 208.734V210.046C144.554 210.078 144.399 210.1 144.229 210.11C144.058 210.132 143.914 210.142 143.797 210.142ZM146.636 210.046V201.422H148.124V210.046H146.636ZM146.636 200.046V198.126H148.124V200.046H146.636ZM154.529 210.238C153.697 210.238 152.945 210.046 152.273 209.662C151.601 209.268 151.068 208.729 150.673 208.046C150.279 207.364 150.081 206.59 150.081 205.726C150.081 204.862 150.273 204.094 150.657 203.422C151.052 202.75 151.585 202.217 152.257 201.822C152.929 201.428 153.687 201.23 154.529 201.23C155.361 201.23 156.113 201.428 156.785 201.822C157.457 202.206 157.985 202.734 158.369 203.406C158.764 204.078 158.961 204.852 158.961 205.726C158.961 206.601 158.759 207.38 158.353 208.062C157.948 208.734 157.409 209.268 156.737 209.662C156.076 210.046 155.34 210.238 154.529 210.238ZM154.529 208.798C155.063 208.798 155.543 208.665 155.969 208.398C156.407 208.132 156.748 207.764 156.993 207.294C157.249 206.825 157.377 206.302 157.377 205.726C157.377 205.14 157.249 204.622 156.993 204.174C156.748 203.716 156.407 203.353 155.969 203.086C155.543 202.809 155.063 202.67 154.529 202.67C153.985 202.67 153.495 202.809 153.057 203.086C152.631 203.353 152.289 203.716 152.033 204.174C151.777 204.622 151.649 205.14 151.649 205.726C151.649 206.302 151.777 206.825 152.033 207.294C152.289 207.764 152.631 208.132 153.057 208.398C153.495 208.665 153.985 208.798 154.529 208.798ZM160.902 210.046V201.422H162.358V203.102L162.118 202.958C162.331 202.414 162.673 201.993 163.142 201.694C163.622 201.385 164.182 201.23 164.822 201.23C165.441 201.23 165.99 201.369 166.47 201.646C166.961 201.924 167.345 202.308 167.622 202.798C167.91 203.289 168.054 203.844 168.054 204.462V210.046H166.55V204.942C166.55 204.462 166.465 204.057 166.294 203.726C166.123 203.396 165.878 203.14 165.558 202.958C165.249 202.766 164.891 202.67 164.486 202.67C164.081 202.67 163.718 202.766 163.398 202.958C163.089 203.14 162.843 203.401 162.662 203.742C162.481 204.073 162.39 204.473 162.39 204.942V210.046H160.902ZM173.271 210.238C172.407 210.238 171.655 210.025 171.015 209.598C170.375 209.172 169.922 208.596 169.655 207.87L170.839 207.294C171.085 207.806 171.421 208.212 171.847 208.51C172.274 208.809 172.749 208.958 173.271 208.958C173.741 208.958 174.13 208.846 174.439 208.622C174.749 208.398 174.903 208.105 174.903 207.742C174.903 207.486 174.829 207.284 174.679 207.134C174.541 206.974 174.37 206.852 174.167 206.766C173.965 206.67 173.778 206.601 173.607 206.558L172.311 206.19C171.533 205.966 170.962 205.646 170.599 205.23C170.247 204.814 170.071 204.329 170.071 203.774C170.071 203.262 170.199 202.82 170.455 202.446C170.722 202.062 171.079 201.764 171.527 201.55C171.986 201.337 172.498 201.23 173.063 201.23C173.821 201.23 174.498 201.422 175.095 201.806C175.703 202.19 176.135 202.729 176.391 203.422L175.175 203.982C174.983 203.534 174.695 203.182 174.311 202.926C173.927 202.66 173.495 202.526 173.015 202.526C172.578 202.526 172.231 202.638 171.975 202.862C171.719 203.076 171.591 203.348 171.591 203.678C171.591 203.924 171.655 204.126 171.783 204.286C171.911 204.436 172.066 204.553 172.247 204.638C172.429 204.713 172.605 204.777 172.775 204.83L174.183 205.246C174.887 205.449 175.431 205.764 175.815 206.19C176.21 206.617 176.407 207.129 176.407 207.726C176.407 208.206 176.274 208.638 176.007 209.022C175.741 209.406 175.373 209.705 174.903 209.918C174.434 210.132 173.89 210.238 173.271 210.238ZM184.273 210.046V204.59L180.145 198.126H181.921L185.377 203.55H184.737L188.177 198.126H189.953L185.857 204.59V210.046H184.273ZM193.698 210.238C192.866 210.238 192.125 210.041 191.474 209.646C190.823 209.252 190.311 208.713 189.938 208.03C189.565 207.337 189.378 206.564 189.378 205.71C189.378 204.846 189.559 204.078 189.922 203.406C190.295 202.734 190.797 202.206 191.426 201.822C192.066 201.428 192.781 201.23 193.57 201.23C194.21 201.23 194.775 201.348 195.266 201.582C195.767 201.806 196.189 202.116 196.53 202.51C196.882 202.894 197.149 203.337 197.33 203.838C197.522 204.329 197.618 204.841 197.618 205.374C197.618 205.492 197.607 205.625 197.586 205.774C197.575 205.913 197.559 206.046 197.538 206.174H190.466V204.894H196.674L195.97 205.47C196.066 204.916 196.013 204.42 195.81 203.982C195.607 203.545 195.309 203.198 194.914 202.942C194.519 202.686 194.071 202.558 193.57 202.558C193.069 202.558 192.61 202.686 192.194 202.942C191.778 203.198 191.453 203.566 191.218 204.046C190.994 204.516 190.903 205.076 190.946 205.726C190.903 206.356 190.999 206.91 191.234 207.39C191.479 207.86 191.821 208.228 192.258 208.494C192.706 208.75 193.191 208.878 193.714 208.878C194.29 208.878 194.775 208.745 195.17 208.478C195.565 208.212 195.885 207.87 196.13 207.454L197.378 208.094C197.207 208.489 196.941 208.852 196.578 209.182C196.226 209.502 195.805 209.758 195.314 209.95C194.834 210.142 194.295 210.238 193.698 210.238ZM203.062 210.142C202.22 210.142 201.569 209.902 201.11 209.422C200.662 208.942 200.438 208.265 200.438 207.39V202.846H198.87V201.422H199.19C199.574 201.422 199.878 201.305 200.102 201.07C200.326 200.836 200.438 200.526 200.438 200.142V199.438H201.926V201.422H203.862V202.846H201.926V207.342C201.926 207.63 201.969 207.881 202.054 208.094C202.15 208.308 202.305 208.478 202.518 208.606C202.732 208.724 203.014 208.782 203.366 208.782C203.441 208.782 203.532 208.777 203.638 208.766C203.756 208.756 203.862 208.745 203.958 208.734V210.046C203.82 210.078 203.665 210.1 203.494 210.11C203.324 210.132 203.18 210.142 203.062 210.142Z" fill="#202020"/>
<path d="M17.3695 236.046V231.202L13.7155 225.616H14.9615L18.1535 230.474H17.7055L20.8835 225.616H22.1295L18.4895 231.202V236.046H17.3695ZM25.4816 236.214C24.7723 236.214 24.1283 236.046 23.5496 235.71C22.971 235.365 22.509 234.898 22.1636 234.31C21.8276 233.713 21.6596 233.036 21.6596 232.28C21.6596 231.534 21.8276 230.866 22.1636 230.278C22.4996 229.69 22.9523 229.228 23.5216 228.892C24.1003 228.547 24.7536 228.374 25.4816 228.374C26.2096 228.374 26.8583 228.542 27.4276 228.878C28.0063 229.214 28.459 229.676 28.7856 230.264C29.1216 230.852 29.2896 231.524 29.2896 232.28C29.2896 233.046 29.117 233.727 28.7716 234.324C28.4263 234.912 27.9643 235.374 27.3856 235.71C26.8163 236.046 26.1816 236.214 25.4816 236.214ZM25.4816 235.164C25.9856 235.164 26.4383 235.038 26.8396 234.786C27.2503 234.534 27.5723 234.189 27.8056 233.75C28.0483 233.312 28.1696 232.822 28.1696 232.28C28.1696 231.739 28.0483 231.254 27.8056 230.824C27.5723 230.395 27.2503 230.054 26.8396 229.802C26.4383 229.55 25.9856 229.424 25.4816 229.424C24.9776 229.424 24.5203 229.55 24.1096 229.802C23.7083 230.054 23.3863 230.395 23.1436 230.824C22.901 231.254 22.7796 231.739 22.7796 232.28C22.7796 232.822 22.901 233.312 23.1436 233.75C23.3863 234.189 23.7083 234.534 24.1096 234.786C24.5203 235.038 24.9776 235.164 25.4816 235.164ZM33.8015 236.214C33.2788 236.214 32.8028 236.093 32.3735 235.85C31.9441 235.598 31.6035 235.253 31.3515 234.814C31.1088 234.366 30.9875 233.853 30.9875 233.274V228.542H32.0375V233.148C32.0375 233.55 32.1168 233.904 32.2755 234.212C32.4435 234.511 32.6721 234.744 32.9615 234.912C33.2601 235.08 33.6008 235.164 33.9835 235.164C34.3661 235.164 34.7068 235.08 35.0055 234.912C35.3041 234.735 35.5375 234.488 35.7055 234.17C35.8735 233.844 35.9575 233.456 35.9575 233.008V228.542H37.0075V236.046H35.9575V234.59L36.1955 234.646C36.0181 235.132 35.7148 235.514 35.2855 235.794C34.8561 236.074 34.3615 236.214 33.8015 236.214ZM41.5458 236.046V225.448H42.5958V229.998L42.3578 229.942C42.5444 229.457 42.8478 229.074 43.2678 228.794C43.6971 228.514 44.1918 228.374 44.7518 228.374C45.2838 228.374 45.7598 228.496 46.1798 228.738C46.6091 228.981 46.9451 229.317 47.1878 229.746C47.4398 230.166 47.5658 230.642 47.5658 231.174V236.046H46.5158V231.58C46.5158 231.123 46.4318 230.736 46.2638 230.418C46.0958 230.101 45.8624 229.858 45.5638 229.69C45.2744 229.513 44.9431 229.424 44.5698 229.424C44.1964 229.424 43.8604 229.513 43.5618 229.69C43.2631 229.858 43.0251 230.106 42.8478 230.432C42.6798 230.75 42.5958 231.132 42.5958 231.58V236.046H41.5458ZM51.7412 236.214C51.2652 236.214 50.8405 236.126 50.4672 235.948C50.0938 235.762 49.7998 235.51 49.5852 235.192C49.3705 234.875 49.2632 234.511 49.2632 234.1C49.2632 233.708 49.3472 233.354 49.5152 233.036C49.6832 232.71 49.9445 232.434 50.2992 232.21C50.6538 231.986 51.1065 231.828 51.6572 231.734L54.5972 231.244V232.196L51.9092 232.644C51.3678 232.738 50.9758 232.91 50.7332 233.162C50.4998 233.414 50.3832 233.713 50.3832 234.058C50.3832 234.394 50.5138 234.679 50.7752 234.912C51.0458 235.146 51.3912 235.262 51.8112 235.262C52.3245 235.262 52.7725 235.155 53.1552 234.94C53.5378 234.716 53.8365 234.418 54.0512 234.044C54.2658 233.671 54.3732 233.256 54.3732 232.798V230.894C54.3732 230.446 54.2098 230.082 53.8832 229.802C53.5565 229.522 53.1318 229.382 52.6092 229.382C52.1518 229.382 51.7505 229.499 51.4052 229.732C51.0598 229.956 50.8032 230.25 50.6352 230.614L49.6832 230.096C49.8232 229.779 50.0425 229.49 50.3412 229.228C50.6492 228.967 50.9992 228.762 51.3912 228.612C51.7832 228.454 52.1892 228.374 52.6092 228.374C53.1598 228.374 53.6452 228.482 54.0652 228.696C54.4945 228.911 54.8258 229.21 55.0592 229.592C55.3018 229.966 55.4232 230.4 55.4232 230.894V236.046H54.3732V234.548L54.5272 234.702C54.3965 234.982 54.1912 235.239 53.9112 235.472C53.6405 235.696 53.3185 235.878 52.9452 236.018C52.5812 236.149 52.1798 236.214 51.7412 236.214ZM59.4482 236.046L56.5222 228.542H57.6982L60.1622 235.122H59.7842L62.2622 228.542H63.4522L60.4982 236.046H59.4482ZM67.9579 236.214C67.2579 236.214 66.6232 236.046 66.0539 235.71C65.4939 235.365 65.0505 234.894 64.7239 234.296C64.3972 233.699 64.2339 233.022 64.2339 232.266C64.2339 231.51 64.3925 230.843 64.7099 230.264C65.0272 229.676 65.4565 229.214 65.9979 228.878C66.5485 228.542 67.1645 228.374 67.8459 228.374C68.3872 228.374 68.8679 228.477 69.2879 228.682C69.7172 228.878 70.0812 229.149 70.3799 229.494C70.6785 229.83 70.9072 230.213 71.0659 230.642C71.2245 231.062 71.3039 231.496 71.3039 231.944C71.3039 232.038 71.2992 232.145 71.2899 232.266C71.2805 232.378 71.2665 232.495 71.2479 232.616H64.9059V231.636H70.6459L70.1419 232.056C70.2259 231.543 70.1652 231.086 69.9599 230.684C69.7639 230.274 69.4792 229.952 69.1059 229.718C68.7325 229.476 68.3125 229.354 67.8459 229.354C67.3792 229.354 66.9452 229.476 66.5439 229.718C66.1519 229.961 65.8439 230.302 65.6199 230.74C65.3959 231.17 65.3072 231.683 65.3539 232.28C65.3072 232.878 65.4005 233.4 65.6339 233.848C65.8765 234.287 66.2032 234.628 66.6139 234.87C67.0339 235.113 67.4819 235.234 67.9579 235.234C68.5085 235.234 68.9705 235.104 69.3439 234.842C69.7172 234.581 70.0205 234.254 70.2539 233.862L71.1499 234.338C71.0005 234.674 70.7719 234.987 70.4639 235.276C70.1559 235.556 69.7872 235.785 69.3579 235.962C68.9379 236.13 68.4712 236.214 67.9579 236.214ZM75.5341 236.046V228.542H76.5841V229.998L76.3461 229.942C76.5327 229.457 76.8361 229.074 77.2561 228.794C77.6854 228.514 78.1801 228.374 78.7401 228.374C79.2721 228.374 79.7481 228.496 80.1681 228.738C80.5974 228.981 80.9334 229.317 81.1761 229.746C81.4281 230.166 81.5541 230.642 81.5541 231.174V236.046H80.5041V231.58C80.5041 231.123 80.4201 230.736 80.2521 230.418C80.0934 230.101 79.8647 229.858 79.5661 229.69C79.2767 229.513 78.9407 229.424 78.5581 229.424C78.1754 229.424 77.8347 229.513 77.5361 229.69C77.2374 229.858 77.0041 230.106 76.8361 230.432C76.6681 230.75 76.5841 231.132 76.5841 231.58V236.046H75.5341ZM87.0734 236.214C86.3641 236.214 85.7201 236.046 85.1414 235.71C84.5628 235.365 84.1008 234.898 83.7554 234.31C83.4194 233.713 83.2514 233.036 83.2514 232.28C83.2514 231.534 83.4194 230.866 83.7554 230.278C84.0914 229.69 84.5441 229.228 85.1134 228.892C85.6921 228.547 86.3454 228.374 87.0734 228.374C87.8014 228.374 88.4501 228.542 89.0194 228.878C89.5981 229.214 90.0508 229.676 90.3774 230.264C90.7134 230.852 90.8814 231.524 90.8814 232.28C90.8814 233.046 90.7088 233.727 90.3634 234.324C90.0181 234.912 89.5561 235.374 88.9774 235.71C88.4081 236.046 87.7734 236.214 87.0734 236.214ZM87.0734 235.164C87.5774 235.164 88.0301 235.038 88.4314 234.786C88.8421 234.534 89.1641 234.189 89.3974 233.75C89.6401 233.312 89.7614 232.822 89.7614 232.28C89.7614 231.739 89.6401 231.254 89.3974 230.824C89.1641 230.395 88.8421 230.054 88.4314 229.802C88.0301 229.55 87.5774 229.424 87.0734 229.424C86.5694 229.424 86.1121 229.55 85.7014 229.802C85.3001 230.054 84.9781 230.395 84.7354 230.824C84.4928 231.254 84.3714 231.739 84.3714 232.28C84.3714 232.822 84.4928 233.312 84.7354 233.75C84.9781 234.189 85.3001 234.534 85.7014 234.786C86.1121 235.038 86.5694 235.164 87.0734 235.164ZM95.1122 236.046V228.542H96.1622V229.998L95.9242 229.942C96.1108 229.457 96.4142 229.074 96.8342 228.794C97.2635 228.514 97.7582 228.374 98.3182 228.374C98.8502 228.374 99.3262 228.496 99.7462 228.738C100.176 228.981 100.512 229.317 100.754 229.746C101.006 230.166 101.132 230.642 101.132 231.174V236.046H100.082V231.58C100.082 231.123 99.9982 230.736 99.8302 230.418C99.6715 230.101 99.4428 229.858 99.1442 229.69C98.8548 229.513 98.5188 229.424 98.1362 229.424C97.7535 229.424 97.4128 229.513 97.1142 229.69C96.8155 229.858 96.5822 230.106 96.4142 230.432C96.2462 230.75 96.1622 231.132 96.1622 231.58V236.046H95.1122ZM106.652 236.214C105.942 236.214 105.298 236.046 104.72 235.71C104.141 235.365 103.679 234.898 103.334 234.31C102.998 233.713 102.83 233.036 102.83 232.28C102.83 231.534 102.998 230.866 103.334 230.278C103.67 229.69 104.122 229.228 104.692 228.892C105.27 228.547 105.924 228.374 106.652 228.374C107.38 228.374 108.028 228.542 108.598 228.878C109.176 229.214 109.629 229.676 109.956 230.264C110.292 230.852 110.46 231.524 110.46 232.28C110.46 233.046 110.287 233.727 109.942 234.324C109.596 234.912 109.134 235.374 108.556 235.71C107.986 236.046 107.352 236.214 106.652 236.214ZM106.652 235.164C107.156 235.164 107.608 235.038 108.01 234.786C108.42 234.534 108.742 234.189 108.976 233.75C109.218 233.312 109.34 232.822 109.34 232.28C109.34 231.739 109.218 231.254 108.976 230.824C108.742 230.395 108.42 230.054 108.01 229.802C107.608 229.55 107.156 229.424 106.652 229.424C106.148 229.424 105.69 229.55 105.28 229.802C104.878 230.054 104.556 230.395 104.314 230.824C104.071 231.254 103.95 231.739 103.95 232.28C103.95 232.822 104.071 233.312 104.314 233.75C104.556 234.189 104.878 234.534 105.28 234.786C105.69 235.038 106.148 235.164 106.652 235.164ZM115.045 236.13C114.373 236.13 113.855 235.934 113.491 235.542C113.127 235.15 112.945 234.59 112.945 233.862V229.592H111.559V228.542H111.909C112.226 228.542 112.478 228.44 112.665 228.234C112.851 228.02 112.945 227.754 112.945 227.436V226.806H113.995V228.542H115.647V229.592H113.995V233.862C113.995 234.114 114.032 234.338 114.107 234.534C114.181 234.721 114.307 234.87 114.485 234.982C114.671 235.094 114.919 235.15 115.227 235.15C115.301 235.15 115.39 235.146 115.493 235.136C115.595 235.127 115.684 235.118 115.759 235.108V236.046C115.647 236.074 115.521 236.093 115.381 236.102C115.241 236.121 115.129 236.13 115.045 236.13ZM117.602 236.046V228.542H118.652V236.046H117.602ZM117.602 227.156V225.616H118.652V227.156H117.602ZM121.572 236.046V229.592H120.074V228.542H121.572V227.87C121.572 227.348 121.688 226.909 121.922 226.554C122.155 226.19 122.463 225.915 122.846 225.728C123.228 225.542 123.639 225.448 124.078 225.448C124.171 225.448 124.278 225.458 124.4 225.476C124.521 225.486 124.619 225.5 124.694 225.518V226.47C124.628 226.452 124.54 226.442 124.428 226.442C124.316 226.433 124.236 226.428 124.19 226.428C123.742 226.428 123.368 226.536 123.07 226.75C122.771 226.965 122.622 227.338 122.622 227.87V228.542H124.456V229.592H122.622V236.046H121.572ZM126.161 236.046V228.542H127.211V236.046H126.161ZM126.161 227.156V225.616H127.211V227.156H126.161ZM132.79 236.214C132.053 236.214 131.404 236.042 130.844 235.696C130.284 235.351 129.846 234.884 129.528 234.296C129.211 233.699 129.052 233.027 129.052 232.28C129.052 231.534 129.211 230.866 129.528 230.278C129.846 229.69 130.284 229.228 130.844 228.892C131.404 228.547 132.053 228.374 132.79 228.374C133.257 228.374 133.696 228.458 134.106 228.626C134.517 228.794 134.881 229.023 135.198 229.312C135.516 229.592 135.754 229.919 135.912 230.292L134.96 230.782C134.774 230.381 134.489 230.054 134.106 229.802C133.724 229.55 133.285 229.424 132.79 229.424C132.296 229.424 131.848 229.55 131.446 229.802C131.054 230.045 130.742 230.386 130.508 230.824C130.284 231.254 130.172 231.744 130.172 232.294C130.172 232.836 130.284 233.326 130.508 233.764C130.742 234.194 131.054 234.534 131.446 234.786C131.848 235.038 132.296 235.164 132.79 235.164C133.285 235.164 133.719 235.038 134.092 234.786C134.475 234.534 134.764 234.198 134.96 233.778L135.912 234.296C135.754 234.66 135.516 234.987 135.198 235.276C134.881 235.566 134.517 235.794 134.106 235.962C133.696 236.13 133.257 236.214 132.79 236.214ZM139.788 236.214C139.312 236.214 138.887 236.126 138.514 235.948C138.141 235.762 137.847 235.51 137.632 235.192C137.417 234.875 137.31 234.511 137.31 234.1C137.31 233.708 137.394 233.354 137.562 233.036C137.73 232.71 137.991 232.434 138.346 232.21C138.701 231.986 139.153 231.828 139.704 231.734L142.644 231.244V232.196L139.956 232.644C139.415 232.738 139.023 232.91 138.78 233.162C138.547 233.414 138.43 233.713 138.43 234.058C138.43 234.394 138.561 234.679 138.822 234.912C139.093 235.146 139.438 235.262 139.858 235.262C140.371 235.262 140.819 235.155 141.202 234.94C141.585 234.716 141.883 234.418 142.098 234.044C142.313 233.671 142.42 233.256 142.42 232.798V230.894C142.42 230.446 142.257 230.082 141.93 229.802C141.603 229.522 141.179 229.382 140.656 229.382C140.199 229.382 139.797 229.499 139.452 229.732C139.107 229.956 138.85 230.25 138.682 230.614L137.73 230.096C137.87 229.779 138.089 229.49 138.388 229.228C138.696 228.967 139.046 228.762 139.438 228.612C139.83 228.454 140.236 228.374 140.656 228.374C141.207 228.374 141.692 228.482 142.112 228.696C142.541 228.911 142.873 229.21 143.106 229.592C143.349 229.966 143.47 230.4 143.47 230.894V236.046H142.42V234.548L142.574 234.702C142.443 234.982 142.238 235.239 141.958 235.472C141.687 235.696 141.365 235.878 140.992 236.018C140.628 236.149 140.227 236.214 139.788 236.214ZM148.363 236.13C147.691 236.13 147.173 235.934 146.809 235.542C146.445 235.15 146.263 234.59 146.263 233.862V229.592H144.877V228.542H145.227C145.544 228.542 145.796 228.44 145.983 228.234C146.17 228.02 146.263 227.754 146.263 227.436V226.806H147.313V228.542H148.965V229.592H147.313V233.862C147.313 234.114 147.35 234.338 147.425 234.534C147.5 234.721 147.626 234.87 147.803 234.982C147.99 235.094 148.237 235.15 148.545 235.15C148.62 235.15 148.708 235.146 148.811 235.136C148.914 235.127 149.002 235.118 149.077 235.108V236.046C148.965 236.074 148.839 236.093 148.699 236.102C148.559 236.121 148.447 236.13 148.363 236.13ZM150.921 236.046V228.542H151.971V236.046H150.921ZM150.921 227.156V225.616H151.971V227.156H150.921ZM157.634 236.214C156.925 236.214 156.281 236.046 155.702 235.71C155.123 235.365 154.661 234.898 154.316 234.31C153.98 233.713 153.812 233.036 153.812 232.28C153.812 231.534 153.98 230.866 154.316 230.278C154.652 229.69 155.105 229.228 155.674 228.892C156.253 228.547 156.906 228.374 157.634 228.374C158.362 228.374 159.011 228.542 159.58 228.878C160.159 229.214 160.611 229.676 160.938 230.264C161.274 230.852 161.442 231.524 161.442 232.28C161.442 233.046 161.269 233.727 160.924 234.324C160.579 234.912 160.117 235.374 159.538 235.71C158.969 236.046 158.334 236.214 157.634 236.214ZM157.634 235.164C158.138 235.164 158.591 235.038 158.992 234.786C159.403 234.534 159.725 234.189 159.958 233.75C160.201 233.312 160.322 232.822 160.322 232.28C160.322 231.739 160.201 231.254 159.958 230.824C159.725 230.395 159.403 230.054 158.992 229.802C158.591 229.55 158.138 229.424 157.634 229.424C157.13 229.424 156.673 229.55 156.262 229.802C155.861 230.054 155.539 230.395 155.296 230.824C155.053 231.254 154.932 231.739 154.932 232.28C154.932 232.822 155.053 233.312 155.296 233.75C155.539 234.189 155.861 234.534 156.262 234.786C156.673 235.038 157.13 235.164 157.634 235.164ZM163.294 236.046V228.542H164.344V229.998L164.106 229.942C164.292 229.457 164.596 229.074 165.016 228.794C165.445 228.514 165.94 228.374 166.5 228.374C167.032 228.374 167.508 228.496 167.928 228.738C168.357 228.981 168.693 229.317 168.936 229.746C169.188 230.166 169.314 230.642 169.314 231.174V236.046H168.264V231.58C168.264 231.123 168.18 230.736 168.012 230.418C167.853 230.101 167.624 229.858 167.326 229.69C167.036 229.513 166.7 229.424 166.318 229.424C165.935 229.424 165.594 229.513 165.296 229.69C164.997 229.858 164.764 230.106 164.596 230.432C164.428 230.75 164.344 231.132 164.344 231.58V236.046H163.294ZM173.923 236.214C173.205 236.214 172.575 236.032 172.033 235.668C171.492 235.304 171.1 234.81 170.857 234.184L171.739 233.764C171.954 234.222 172.253 234.586 172.635 234.856C173.027 235.127 173.457 235.262 173.923 235.262C174.371 235.262 174.749 235.155 175.057 234.94C175.365 234.716 175.519 234.427 175.519 234.072C175.519 233.811 175.445 233.606 175.295 233.456C175.146 233.298 174.973 233.176 174.777 233.092C174.581 233.008 174.409 232.948 174.259 232.91L173.181 232.602C172.491 232.406 171.991 232.131 171.683 231.776C171.375 231.422 171.221 231.011 171.221 230.544C171.221 230.106 171.333 229.723 171.557 229.396C171.781 229.07 172.085 228.818 172.467 228.64C172.85 228.463 173.275 228.374 173.741 228.374C174.376 228.374 174.95 228.542 175.463 228.878C175.986 229.205 176.355 229.662 176.569 230.25L175.673 230.67C175.487 230.25 175.216 229.924 174.861 229.69C174.516 229.448 174.129 229.326 173.699 229.326C173.279 229.326 172.943 229.434 172.691 229.648C172.439 229.863 172.313 230.134 172.313 230.46C172.313 230.712 172.379 230.913 172.509 231.062C172.64 231.212 172.789 231.324 172.957 231.398C173.135 231.473 173.289 231.529 173.419 231.566L174.665 231.93C175.272 232.108 175.743 232.383 176.079 232.756C176.425 233.13 176.597 233.568 176.597 234.072C176.597 234.483 176.481 234.852 176.247 235.178C176.023 235.505 175.711 235.762 175.309 235.948C174.908 236.126 174.446 236.214 173.923 236.214ZM180.821 236.046V228.542H181.871V229.774L181.731 229.592C181.908 229.238 182.174 228.958 182.529 228.752C182.893 228.547 183.332 228.444 183.845 228.444H184.321V229.494H183.663C183.122 229.494 182.688 229.662 182.361 229.998C182.034 230.334 181.871 230.81 181.871 231.426V236.046H180.821ZM185.552 236.046V228.542H186.602V236.046H185.552ZM185.552 227.156V225.616H186.602V227.156H185.552ZM192.307 239.126C191.794 239.126 191.318 239.047 190.879 238.888C190.45 238.73 190.076 238.51 189.759 238.23C189.451 237.96 189.213 237.642 189.045 237.278L190.011 236.76C190.16 237.115 190.426 237.423 190.809 237.684C191.192 237.946 191.682 238.076 192.279 238.076C192.736 238.076 193.156 237.988 193.539 237.81C193.922 237.633 194.23 237.372 194.463 237.026C194.696 236.681 194.813 236.256 194.813 235.752V234.086L194.981 234.24C194.72 234.782 194.332 235.202 193.819 235.5C193.306 235.79 192.746 235.934 192.139 235.934C191.439 235.934 190.809 235.766 190.249 235.43C189.689 235.094 189.246 234.642 188.919 234.072C188.602 233.494 188.443 232.854 188.443 232.154C188.443 231.445 188.602 230.806 188.919 230.236C189.246 229.667 189.684 229.214 190.235 228.878C190.795 228.542 191.43 228.374 192.139 228.374C192.746 228.374 193.296 228.514 193.791 228.794C194.295 229.074 194.692 229.452 194.981 229.928L194.813 230.222V228.542H195.863V235.752C195.863 236.396 195.709 236.97 195.401 237.474C195.102 237.988 194.682 238.389 194.141 238.678C193.609 238.977 192.998 239.126 192.307 239.126ZM192.195 234.884C192.68 234.884 193.119 234.763 193.511 234.52C193.903 234.268 194.216 233.937 194.449 233.526C194.692 233.106 194.813 232.649 194.813 232.154C194.813 231.66 194.692 231.207 194.449 230.796C194.216 230.376 193.903 230.045 193.511 229.802C193.119 229.55 192.68 229.424 192.195 229.424C191.7 229.424 191.252 229.55 190.851 229.802C190.45 230.045 190.132 230.372 189.899 230.782C189.675 231.193 189.563 231.65 189.563 232.154C189.563 232.649 189.675 233.106 189.899 233.526C190.132 233.937 190.445 234.268 190.837 234.52C191.238 234.763 191.691 234.884 192.195 234.884ZM198.02 236.046V225.448H199.07V229.998L198.832 229.942C199.019 229.457 199.322 229.074 199.742 228.794C200.172 228.514 200.666 228.374 201.226 228.374C201.758 228.374 202.234 228.496 202.654 228.738C203.084 228.981 203.42 229.317 203.662 229.746C203.914 230.166 204.04 230.642 204.04 231.174V236.046H202.99V231.58C202.99 231.123 202.906 230.736 202.738 230.418C202.57 230.101 202.337 229.858 202.038 229.69C201.749 229.513 201.418 229.424 201.044 229.424C200.671 229.424 200.335 229.513 200.036 229.69C199.738 229.858 199.5 230.106 199.322 230.432C199.154 230.75 199.07 231.132 199.07 231.58V236.046H198.02ZM208.916 236.13C208.244 236.13 207.726 235.934 207.362 235.542C206.998 235.15 206.816 234.59 206.816 233.862V229.592H205.43V228.542H205.78C206.097 228.542 206.349 228.44 206.536 228.234C206.722 228.02 206.816 227.754 206.816 227.436V226.806H207.866V228.542H209.518V229.592H207.866V233.862C207.866 234.114 207.903 234.338 207.978 234.534C208.052 234.721 208.178 234.87 208.356 234.982C208.542 235.094 208.79 235.15 209.098 235.15C209.172 235.15 209.261 235.146 209.364 235.136C209.466 235.127 209.555 235.118 209.63 235.108V236.046C209.518 236.074 209.392 236.093 209.252 236.102C209.112 236.121 209 236.13 208.916 236.13ZM213.852 236.046V228.542H214.902V229.998L214.664 229.942C214.851 229.457 215.154 229.074 215.574 228.794C216.004 228.514 216.498 228.374 217.058 228.374C217.59 228.374 218.066 228.496 218.486 228.738C218.916 228.981 219.252 229.317 219.494 229.746C219.746 230.166 219.872 230.642 219.872 231.174V236.046H218.822V231.58C218.822 231.123 218.738 230.736 218.57 230.418C218.412 230.101 218.183 229.858 217.884 229.69C217.595 229.513 217.259 229.424 216.876 229.424C216.494 229.424 216.153 229.513 215.854 229.69C215.556 229.858 215.322 230.106 215.154 230.432C214.986 230.75 214.902 231.132 214.902 231.58V236.046H213.852ZM225.392 236.214C224.682 236.214 224.038 236.046 223.46 235.71C222.881 235.365 222.419 234.898 222.074 234.31C221.738 233.713 221.57 233.036 221.57 232.28C221.57 231.534 221.738 230.866 222.074 230.278C222.41 229.69 222.862 229.228 223.432 228.892C224.01 228.547 224.664 228.374 225.392 228.374C226.12 228.374 226.768 228.542 227.338 228.878C227.916 229.214 228.369 229.676 228.696 230.264C229.032 230.852 229.2 231.524 229.2 232.28C229.2 233.046 229.027 233.727 228.682 234.324C228.336 234.912 227.874 235.374 227.296 235.71C226.726 236.046 226.092 236.214 225.392 236.214ZM225.392 235.164C225.896 235.164 226.348 235.038 226.75 234.786C227.16 234.534 227.482 234.189 227.716 233.75C227.958 233.312 228.08 232.822 228.08 232.28C228.08 231.739 227.958 231.254 227.716 230.824C227.482 230.395 227.16 230.054 226.75 229.802C226.348 229.55 225.896 229.424 225.392 229.424C224.888 229.424 224.43 229.55 224.02 229.802C223.618 230.054 223.296 230.395 223.054 230.824C222.811 231.254 222.69 231.739 222.69 232.28C222.69 232.822 222.811 233.312 223.054 233.75C223.296 234.189 223.618 234.534 224.02 234.786C224.43 235.038 224.888 235.164 225.392 235.164ZM232.567 236.046L229.991 228.542H231.181L233.309 235.108H232.889L234.891 228.542H235.941L237.943 235.108H237.523L239.665 228.542H240.841L238.265 236.046H237.215L235.269 229.62H235.563L233.617 236.046H232.567ZM241.875 236.046V234.506H242.995V236.046H241.875ZM78.7459 254.214C78.0086 254.214 77.3319 254.084 76.7159 253.822C76.0999 253.552 75.5632 253.178 75.1059 252.702C74.6579 252.217 74.3079 251.648 74.0559 250.994C73.8039 250.341 73.6779 249.622 73.6779 248.838C73.6779 248.054 73.8039 247.336 74.0559 246.682C74.3079 246.029 74.6579 245.46 75.1059 244.974C75.5632 244.489 76.0999 244.116 76.7159 243.854C77.3319 243.584 78.0086 243.448 78.7459 243.448C79.4552 243.448 80.0899 243.574 80.6499 243.826C81.2192 244.078 81.6952 244.405 82.0779 244.806C82.4699 245.198 82.7499 245.614 82.9179 246.052L81.8679 246.514C81.6066 245.908 81.2052 245.422 80.6639 245.058C80.1319 244.685 79.4926 244.498 78.7459 244.498C77.9806 244.498 77.2992 244.68 76.7019 245.044C76.1046 245.408 75.6379 245.917 75.3019 246.57C74.9659 247.214 74.7979 247.97 74.7979 248.838C74.7979 249.697 74.9659 250.453 75.3019 251.106C75.6379 251.76 76.1046 252.268 76.7019 252.632C77.2992 252.987 77.9806 253.164 78.7459 253.164C79.4926 253.164 80.1319 252.982 80.6639 252.618C81.2052 252.254 81.6066 251.769 81.8679 251.162L82.9179 251.624C82.7499 252.054 82.4699 252.469 82.0779 252.87C81.6952 253.262 81.2192 253.584 80.6499 253.836C80.0899 254.088 79.4552 254.214 78.7459 254.214ZM88.1467 254.214C87.4374 254.214 86.7934 254.046 86.2147 253.71C85.636 253.365 85.174 252.898 84.8287 252.31C84.4927 251.713 84.3247 251.036 84.3247 250.28C84.3247 249.534 84.4927 248.866 84.8287 248.278C85.1647 247.69 85.6174 247.228 86.1867 246.892C86.7654 246.547 87.4187 246.374 88.1467 246.374C88.8747 246.374 89.5234 246.542 90.0927 246.878C90.6714 247.214 91.124 247.676 91.4507 248.264C91.7867 248.852 91.9547 249.524 91.9547 250.28C91.9547 251.046 91.782 251.727 91.4367 252.324C91.0914 252.912 90.6294 253.374 90.0507 253.71C89.4814 254.046 88.8467 254.214 88.1467 254.214ZM88.1467 253.164C88.6507 253.164 89.1034 253.038 89.5047 252.786C89.9154 252.534 90.2374 252.189 90.4707 251.75C90.7134 251.312 90.8347 250.822 90.8347 250.28C90.8347 249.739 90.7134 249.254 90.4707 248.824C90.2374 248.395 89.9154 248.054 89.5047 247.802C89.1034 247.55 88.6507 247.424 88.1467 247.424C87.6427 247.424 87.1854 247.55 86.7747 247.802C86.3734 248.054 86.0514 248.395 85.8087 248.824C85.566 249.254 85.4447 249.739 85.4447 250.28C85.4447 250.822 85.566 251.312 85.8087 251.75C86.0514 252.189 86.3734 252.534 86.7747 252.786C87.1854 253.038 87.6427 253.164 88.1467 253.164ZM93.8065 254.046V246.542H94.8565V247.97L94.6885 247.76C94.8938 247.322 95.1972 246.981 95.5985 246.738C96.0092 246.496 96.4572 246.374 96.9425 246.374C97.5212 246.374 98.0438 246.538 98.5105 246.864C98.9772 247.191 99.3085 247.616 99.5045 248.138L99.2105 248.152C99.3972 247.574 99.7192 247.135 100.177 246.836C100.643 246.528 101.157 246.374 101.717 246.374C102.221 246.374 102.683 246.496 103.103 246.738C103.532 246.981 103.873 247.317 104.125 247.746C104.386 248.166 104.517 248.642 104.517 249.174V254.046H103.467V249.58C103.467 249.123 103.383 248.736 103.215 248.418C103.056 248.101 102.837 247.858 102.557 247.69C102.277 247.513 101.955 247.424 101.591 247.424C101.236 247.424 100.914 247.513 100.625 247.69C100.335 247.858 100.107 248.106 99.9385 248.432C99.7705 248.75 99.6865 249.132 99.6865 249.58V254.046H98.6365V249.58C98.6365 249.123 98.5525 248.736 98.3845 248.418C98.2258 248.101 98.0065 247.858 97.7265 247.69C97.4465 247.513 97.1245 247.424 96.7605 247.424C96.3965 247.424 96.0698 247.513 95.7805 247.69C95.5005 247.858 95.2765 248.106 95.1085 248.432C94.9405 248.75 94.8565 249.132 94.8565 249.58V254.046H93.8065ZM109.937 254.214C109.237 254.214 108.603 254.046 108.033 253.71C107.473 253.365 107.03 252.894 106.703 252.296C106.377 251.699 106.213 251.022 106.213 250.266C106.213 249.51 106.372 248.843 106.689 248.264C107.007 247.676 107.436 247.214 107.977 246.878C108.528 246.542 109.144 246.374 109.825 246.374C110.367 246.374 110.847 246.477 111.267 246.682C111.697 246.878 112.061 247.149 112.359 247.494C112.658 247.83 112.887 248.213 113.045 248.642C113.204 249.062 113.283 249.496 113.283 249.944C113.283 250.038 113.279 250.145 113.269 250.266C113.26 250.378 113.246 250.495 113.227 250.616H106.885V249.636H112.625L112.121 250.056C112.205 249.543 112.145 249.086 111.939 248.684C111.743 248.274 111.459 247.952 111.085 247.718C110.712 247.476 110.292 247.354 109.825 247.354C109.359 247.354 108.925 247.476 108.523 247.718C108.131 247.961 107.823 248.302 107.599 248.74C107.375 249.17 107.287 249.683 107.333 250.28C107.287 250.878 107.38 251.4 107.613 251.848C107.856 252.287 108.183 252.628 108.593 252.87C109.013 253.113 109.461 253.234 109.937 253.234C110.488 253.234 110.95 253.104 111.323 252.842C111.697 252.581 112 252.254 112.233 251.862L113.129 252.338C112.98 252.674 112.751 252.987 112.443 253.276C112.135 253.556 111.767 253.785 111.337 253.962C110.917 254.13 110.451 254.214 109.937 254.214ZM121.308 254.214C120.664 254.214 120.08 254.07 119.558 253.78C119.044 253.482 118.657 253.062 118.396 252.52L118.564 252.366V254.046H117.514V243.448H118.564V248.222L118.396 247.928C118.694 247.452 119.091 247.074 119.586 246.794C120.09 246.514 120.664 246.374 121.308 246.374C122.017 246.374 122.647 246.547 123.198 246.892C123.758 247.228 124.196 247.69 124.514 248.278C124.84 248.866 125.004 249.538 125.004 250.294C125.004 251.041 124.84 251.713 124.514 252.31C124.196 252.898 123.758 253.365 123.198 253.71C122.647 254.046 122.017 254.214 121.308 254.214ZM121.252 253.164C121.756 253.164 122.204 253.038 122.596 252.786C122.997 252.534 123.31 252.194 123.534 251.764C123.767 251.326 123.884 250.836 123.884 250.294C123.884 249.744 123.767 249.254 123.534 248.824C123.31 248.395 122.997 248.054 122.596 247.802C122.204 247.55 121.756 247.424 121.252 247.424C120.748 247.424 120.29 247.55 119.88 247.802C119.478 248.054 119.156 248.4 118.914 248.838C118.68 249.268 118.564 249.753 118.564 250.294C118.564 250.836 118.68 251.326 118.914 251.764C119.156 252.194 119.478 252.534 119.88 252.786C120.29 253.038 120.748 253.164 121.252 253.164ZM129.021 254.214C128.545 254.214 128.121 254.126 127.747 253.948C127.374 253.762 127.08 253.51 126.865 253.192C126.651 252.875 126.543 252.511 126.543 252.1C126.543 251.708 126.627 251.354 126.795 251.036C126.963 250.71 127.225 250.434 127.579 250.21C127.934 249.986 128.387 249.828 128.937 249.734L131.877 249.244V250.196L129.189 250.644C128.648 250.738 128.256 250.91 128.013 251.162C127.78 251.414 127.663 251.713 127.663 252.058C127.663 252.394 127.794 252.679 128.055 252.912C128.326 253.146 128.671 253.262 129.091 253.262C129.605 253.262 130.053 253.155 130.435 252.94C130.818 252.716 131.117 252.418 131.331 252.044C131.546 251.671 131.653 251.256 131.653 250.798V248.894C131.653 248.446 131.49 248.082 131.163 247.802C130.837 247.522 130.412 247.382 129.889 247.382C129.432 247.382 129.031 247.499 128.685 247.732C128.34 247.956 128.083 248.25 127.915 248.614L126.963 248.096C127.103 247.779 127.323 247.49 127.621 247.228C127.929 246.967 128.279 246.762 128.671 246.612C129.063 246.454 129.469 246.374 129.889 246.374C130.44 246.374 130.925 246.482 131.345 246.696C131.775 246.911 132.106 247.21 132.339 247.592C132.582 247.966 132.703 248.4 132.703 248.894V254.046H131.653V252.548L131.807 252.702C131.677 252.982 131.471 253.239 131.191 253.472C130.921 253.696 130.599 253.878 130.225 254.018C129.861 254.149 129.46 254.214 129.021 254.214ZM138.293 254.214C137.556 254.214 136.907 254.042 136.347 253.696C135.787 253.351 135.348 252.884 135.031 252.296C134.714 251.699 134.555 251.027 134.555 250.28C134.555 249.534 134.714 248.866 135.031 248.278C135.348 247.69 135.787 247.228 136.347 246.892C136.907 246.547 137.556 246.374 138.293 246.374C138.76 246.374 139.198 246.458 139.609 246.626C140.02 246.794 140.384 247.023 140.701 247.312C141.018 247.592 141.256 247.919 141.415 248.292L140.463 248.782C140.276 248.381 139.992 248.054 139.609 247.802C139.226 247.55 138.788 247.424 138.293 247.424C137.798 247.424 137.35 247.55 136.949 247.802C136.557 248.045 136.244 248.386 136.011 248.824C135.787 249.254 135.675 249.744 135.675 250.294C135.675 250.836 135.787 251.326 136.011 251.764C136.244 252.194 136.557 252.534 136.949 252.786C137.35 253.038 137.798 253.164 138.293 253.164C138.788 253.164 139.222 253.038 139.595 252.786C139.978 252.534 140.267 252.198 140.463 251.778L141.415 252.296C141.256 252.66 141.018 252.987 140.701 253.276C140.384 253.566 140.02 253.794 139.609 253.962C139.198 254.13 138.76 254.214 138.293 254.214ZM143.258 254.046V243.448H144.308V250.868L143.86 250.798L148.074 246.542H149.432L146.492 249.552L149.698 254.046H148.438L145.428 249.888L146.1 249.944L143.958 252.156L144.308 251.288V254.046H143.258ZM153.307 254.046V243.448H154.357V254.046H153.307ZM158.676 254.214C158.2 254.214 157.775 254.126 157.402 253.948C157.028 253.762 156.734 253.51 156.52 253.192C156.305 252.875 156.198 252.511 156.198 252.1C156.198 251.708 156.282 251.354 156.45 251.036C156.618 250.71 156.879 250.434 157.234 250.21C157.588 249.986 158.041 249.828 158.592 249.734L161.532 249.244V250.196L158.844 250.644C158.302 250.738 157.91 250.91 157.668 251.162C157.434 251.414 157.318 251.713 157.318 252.058C157.318 252.394 157.448 252.679 157.71 252.912C157.98 253.146 158.326 253.262 158.746 253.262C159.259 253.262 159.707 253.155 160.09 252.94C160.472 252.716 160.771 252.418 160.986 252.044C161.2 251.671 161.308 251.256 161.308 250.798V248.894C161.308 248.446 161.144 248.082 160.818 247.802C160.491 247.522 160.066 247.382 159.544 247.382C159.086 247.382 158.685 247.499 158.34 247.732C157.994 247.956 157.738 248.25 157.57 248.614L156.618 248.096C156.758 247.779 156.977 247.49 157.276 247.228C157.584 246.967 157.934 246.762 158.326 246.612C158.718 246.454 159.124 246.374 159.544 246.374C160.094 246.374 160.58 246.482 161 246.696C161.429 246.911 161.76 247.21 161.994 247.592C162.236 247.966 162.358 248.4 162.358 248.894V254.046H161.308V252.548L161.462 252.702C161.331 252.982 161.126 253.239 160.846 253.472C160.575 253.696 160.253 253.878 159.88 254.018C159.516 254.149 159.114 254.214 158.676 254.214ZM167.251 254.13C166.579 254.13 166.061 253.934 165.697 253.542C165.333 253.15 165.151 252.59 165.151 251.862V247.592H163.765V246.542H164.115C164.432 246.542 164.684 246.44 164.871 246.234C165.057 246.02 165.151 245.754 165.151 245.436V244.806H166.201V246.542H167.853V247.592H166.201V251.862C166.201 252.114 166.238 252.338 166.313 252.534C166.387 252.721 166.513 252.87 166.691 252.982C166.877 253.094 167.125 253.15 167.433 253.15C167.507 253.15 167.596 253.146 167.699 253.136C167.801 253.127 167.89 253.118 167.965 253.108V254.046C167.853 254.074 167.727 254.093 167.587 254.102C167.447 254.121 167.335 254.13 167.251 254.13ZM172.951 254.214C172.251 254.214 171.616 254.046 171.047 253.71C170.487 253.365 170.044 252.894 169.717 252.296C169.39 251.699 169.227 251.022 169.227 250.266C169.227 249.51 169.386 248.843 169.703 248.264C170.02 247.676 170.45 247.214 170.991 246.878C171.542 246.542 172.158 246.374 172.839 246.374C173.38 246.374 173.861 246.477 174.281 246.682C174.71 246.878 175.074 247.149 175.373 247.494C175.672 247.83 175.9 248.213 176.059 248.642C176.218 249.062 176.297 249.496 176.297 249.944C176.297 250.038 176.292 250.145 176.283 250.266C176.274 250.378 176.26 250.495 176.241 250.616H169.899V249.636H175.639L175.135 250.056C175.219 249.543 175.158 249.086 174.953 248.684C174.757 248.274 174.472 247.952 174.099 247.718C173.726 247.476 173.306 247.354 172.839 247.354C172.372 247.354 171.938 247.476 171.537 247.718C171.145 247.961 170.837 248.302 170.613 248.74C170.389 249.17 170.3 249.683 170.347 250.28C170.3 250.878 170.394 251.4 170.627 251.848C170.87 252.287 171.196 252.628 171.607 252.87C172.027 253.113 172.475 253.234 172.951 253.234C173.502 253.234 173.964 253.104 174.337 252.842C174.71 252.581 175.014 252.254 175.247 251.862L176.143 252.338C175.994 252.674 175.765 252.987 175.457 253.276C175.149 253.556 174.78 253.785 174.351 253.962C173.931 254.13 173.464 254.214 172.951 254.214ZM178.148 254.046V246.542H179.198V247.774L179.058 247.592C179.236 247.238 179.502 246.958 179.856 246.752C180.22 246.547 180.659 246.444 181.172 246.444H181.648V247.494H180.99C180.449 247.494 180.015 247.662 179.688 247.998C179.362 248.334 179.198 248.81 179.198 249.426V254.046H178.148ZM182.682 254.046V252.506H183.802V254.046H182.682Z" fill="#4D4D4D"/>
</svg>
