<svg width="95" height="111" viewBox="0 0 95 111" fill="none" xmlns="http://www.w3.org/2000/svg">
<path fill-rule="evenodd" clip-rule="evenodd" d="M72.2122 14.5099H80.1346V58.8966C76.229 56.8598 71.8883 55.799 67.4836 55.8049C52.352 55.8049 40.0666 68.0904 40.0666 83.2219C40.0666 98.3534 52.352 110.639 67.4836 110.639C82.6151 110.639 94.9006 98.3534 94.9006 83.2219C94.9006 74.2161 90.5479 66.2182 83.8346 61.2187V12.6599C83.8346 11.6387 83.0058 10.8099 81.9846 10.8099H63.6903C59.3865 4.38672 51.2598 0 41.9166 0C32.5748 0 24.4466 4.38672 20.1428 10.8114L1.85 10.8099C0.82732 10.8099 0 11.6387 0 12.6599V106.656C0 107.679 0.82732 108.506 1.85 108.506H44.659V104.806H3.7V14.5099H11.6224V24.2468C11.6224 26.094 12.3562 27.8656 13.6624 29.1718C14.9686 30.4779 16.7401 31.2117 18.5873 31.2117H65.2473C67.0945 31.2117 68.866 30.4779 70.1722 29.1718C71.4784 27.8656 72.2122 26.094 72.2122 24.2468V14.5099ZM86.5312 69.0953C87.4837 71.8798 87.9683 74.8029 87.9653 77.7459C87.9653 92.4808 76.0024 104.445 61.2661 104.445C59.4146 104.445 57.6075 104.256 55.8596 103.896C48.6446 99.829 43.7666 92.09 43.7666 83.2219C43.7666 70.1328 54.3944 59.5049 67.4836 59.5049C75.2832 59.5049 82.2081 63.2774 86.5312 69.0953ZM69.3336 97.7658V89.1966C71.7159 88.7617 73.8704 87.5053 75.4221 85.6459C76.9737 83.7865 77.8243 81.4419 77.8258 79.0202C77.8246 76.2777 76.7346 73.648 74.7952 71.7089C72.8559 69.7699 70.226 68.6802 67.4836 68.6794C64.7412 68.6806 62.1116 69.7704 60.1723 71.7093C58.2331 73.6483 57.1429 76.2778 57.1413 79.0202V80.8702H60.8413V79.0202C60.8413 75.3542 63.8176 72.3794 67.4836 72.3794C71.1495 72.3794 74.1258 75.3542 74.1258 79.0202C74.1258 82.6861 71.1495 85.6624 67.4836 85.6624C66.4624 85.6624 65.6336 86.4897 65.6336 87.5124V97.7658H69.3336ZM15.2632 57.9642H31.521V54.2642H15.2632V57.9642ZM15.2632 46.358H45.9777V42.658H15.2632V46.358ZM68.5122 14.5099H62.6736C62.0224 14.5099 61.4185 14.168 61.084 13.6086C57.5542 7.69896 50.2756 3.7 41.9166 3.7C33.5575 3.7 26.2804 7.69896 22.7491 13.6086C22.585 13.8834 22.3524 14.1109 22.074 14.2688C21.7957 14.4268 21.4811 14.5099 21.161 14.5099H15.3224V24.2468C15.3224 25.1127 15.6664 25.9432 16.2787 26.5555C16.891 27.1677 17.7214 27.5117 18.5873 27.5117H23.643L68.5122 19.1408V14.5099ZM41.9166 10.323C42.9747 10.3516 43.9798 10.792 44.7181 11.5505C45.4564 12.309 45.8695 13.3256 45.8695 14.3841C45.8695 15.4426 45.4564 16.4593 44.7181 17.2178C43.9798 17.9763 42.9747 18.4167 41.9166 18.4452C40.8585 18.4167 39.8533 17.9763 39.115 17.2178C38.3767 16.4593 37.9636 15.4426 37.9636 14.3841C37.9636 13.3256 38.3767 12.309 39.115 11.5505C39.8533 10.792 40.8585 10.3516 41.9166 10.323Z" fill="#414141"/>
</svg>
