<svg width="29" height="29" viewBox="0 0 29 29" fill="none" xmlns="http://www.w3.org/2000/svg">
<path fill-rule="evenodd" clip-rule="evenodd" d="M19.9038 3.79396C18.0816 3.16621 15.3194 3.77084 14.1359 5.44184H14.1295C12.9459 3.77084 10.1839 3.16609 8.36176 3.79396C6.04238 4.59309 4.80626 7.03896 5.03463 9.40446C5.39176 13.1038 8.98138 16.7852 11.7181 18.8517C12.0858 19.1293 12.854 19.6985 13.4256 20.1198C13.6298 20.2704 13.8768 20.3516 14.1304 20.3517C14.3841 20.3517 14.6311 20.2706 14.8354 20.1202C15.4079 19.6988 16.1796 19.1293 16.5473 18.8517C19.2839 16.7852 22.8736 13.1038 23.2308 9.40446C23.4594 7.03896 22.2233 4.59309 19.9038 3.79396Z" fill="#EA6D7A"/>
<path d="M14.1309 20.5407C13.8369 20.5404 13.5507 20.4458 13.3145 20.2708C12.7258 19.8368 11.9688 19.2761 11.6053 19.0016C10.6696 18.2951 8.87088 16.8169 7.33651 14.8562C5.85001 12.9564 5.01288 11.1284 4.84813 9.42269C4.59413 6.79232 6.01401 4.40482 8.30076 3.61694C10.0448 3.01607 12.7981 3.50432 14.1328 5.13694C15.4671 3.50419 18.2211 3.01594 19.9649 3.61694C22.2518 4.40494 23.6715 6.79232 23.4175 9.42269C23.2529 11.1284 22.4156 12.9564 20.9291 14.8562C19.3949 16.8169 17.596 18.2951 16.6604 19.0016C16.2905 19.2807 15.5243 19.8462 14.9466 20.2713C14.7105 20.446 14.4246 20.5405 14.1309 20.5407ZM9.93101 3.73944C9.38876 3.73944 8.87038 3.81707 8.42301 3.97119C6.33438 4.69094 4.98801 6.96832 5.22151 9.38632C5.55351 12.8256 8.85363 16.4536 11.8313 18.7019C12.1936 18.9756 12.9491 19.5353 13.5371 19.9688C13.7088 20.0962 13.9169 20.165 14.1307 20.1651C14.3445 20.1651 14.5526 20.0964 14.7244 19.9691C15.3011 19.5446 16.0661 18.9801 16.4345 18.7019C19.4123 16.4534 22.7124 12.8254 23.0443 9.38632C23.2778 6.96819 21.9313 4.69082 19.8426 3.97119C18.1566 3.39032 15.4606 3.89582 14.2889 5.55019C14.2185 5.64932 14.0468 5.64932 13.9765 5.55019C13.1158 4.33494 11.4323 3.73944 9.93101 3.73944Z" fill="#3A312A"/>
<path d="M4.09876 1.39697C4.09876 1.39697 4.52501 2.97935 5.75238 3.05272C5.75238 3.05272 4.11401 3.61835 4.08638 4.82797C4.08638 4.82797 3.76388 3.13147 2.46988 3.0706C2.46988 3.0706 3.97701 2.84247 4.09876 1.39697Z" fill="#D6DF58"/>
<path d="M4.08626 5.01539C4.04269 5.01535 4.00049 5.00015 3.96692 4.97239C3.93334 4.94463 3.91048 4.90605 3.90226 4.86326C3.89926 4.84776 3.59026 3.31101 2.46113 3.25776C2.41459 3.25566 2.37049 3.2363 2.33744 3.20346C2.30439 3.17062 2.28475 3.12665 2.28234 3.08012C2.27994 3.03359 2.29495 2.98783 2.32444 2.95176C2.35393 2.91569 2.3958 2.8919 2.44188 2.88501C2.49701 2.87651 3.80438 2.65801 3.91201 1.38101C3.91543 1.3369 3.93437 1.29542 3.96545 1.26394C3.99654 1.23246 4.03777 1.213 4.08183 1.20901C4.1259 1.20503 4.16995 1.21678 4.20618 1.24217C4.24241 1.26757 4.26848 1.30498 4.27976 1.34776C4.28376 1.36226 4.68726 2.80114 5.76351 2.86551C5.80684 2.86802 5.84797 2.88549 5.87985 2.91495C5.91173 2.94441 5.9324 2.98403 5.93832 3.02703C5.94423 3.07003 5.93504 3.11376 5.9123 3.15073C5.88955 3.18771 5.85468 3.21564 5.81363 3.22976C5.79851 3.23514 4.29801 3.76876 4.27376 4.83214C4.27271 4.88114 4.25249 4.92779 4.21743 4.96205C4.18237 4.99631 4.13528 5.01546 4.08626 5.01539ZM3.11813 3.04926C3.60313 3.29551 3.89738 3.76764 4.06701 4.15901C4.32038 3.65639 4.81013 3.31051 5.18626 3.10551C4.66913 2.87514 4.33788 2.39889 4.14388 2.01489C3.91963 2.56014 3.48463 2.87364 3.11813 3.04926Z" fill="#3A312A"/>
<path d="M1.38501 3.51953C1.38501 3.51953 1.68651 4.63878 2.55463 4.69066C2.55463 4.69066 1.39576 5.09078 1.37626 5.94628C1.37626 5.94628 1.14813 4.74628 0.232883 4.70328C0.232883 4.70341 1.29888 4.54191 1.38501 3.51953Z" fill="#D6DF58"/>
<path d="M1.37613 6.13371C1.33251 6.13366 1.29027 6.1184 1.25669 6.09057C1.2231 6.06273 1.20028 6.02406 1.19213 5.98121C1.19013 5.97096 0.979008 4.92596 0.224133 4.89033C0.177587 4.88823 0.133492 4.86887 0.10044 4.83603C0.0673877 4.80319 0.0477463 4.75922 0.0453433 4.71269C0.0429403 4.66616 0.0579478 4.6204 0.0874414 4.58433C0.116935 4.54826 0.158802 4.52447 0.204883 4.51758C0.241883 4.51171 1.12588 4.36233 1.19826 3.50358C1.20201 3.45969 1.22109 3.41851 1.25216 3.38728C1.28324 3.35605 1.32432 3.33676 1.36819 3.33279C1.41207 3.32883 1.45594 3.34044 1.49212 3.36559C1.52829 3.39074 1.55445 3.42782 1.56601 3.47033C1.56863 3.48021 1.84463 4.46021 2.56588 4.50346C2.60918 4.50606 2.65024 4.52359 2.68206 4.55307C2.71388 4.58255 2.73449 4.62215 2.74039 4.66513C2.74629 4.7081 2.7371 4.75179 2.7144 4.78875C2.6917 4.82571 2.65688 4.85366 2.61588 4.86783C2.60576 4.87133 1.58001 5.23696 1.56376 5.95046C1.56265 5.99947 1.54239 6.04609 1.50732 6.08034C1.47225 6.1146 1.42515 6.13375 1.37613 6.13371ZM0.811008 4.69271C1.07451 4.85933 1.25163 5.11721 1.36726 5.35283C1.53938 5.07371 1.80688 4.86871 2.03826 4.73108C1.75213 4.57233 1.55251 4.31221 1.42026 4.07796C1.27338 4.36396 1.04301 4.56258 0.811008 4.69271Z" fill="#3A312A"/>
<path d="M1.38501 0.187256C1.38501 0.187256 1.68651 1.30651 2.55463 1.35851C2.55463 1.35851 1.39576 1.75863 1.37626 2.61413C1.37626 2.61413 1.14813 1.41413 0.232883 1.37113C0.232883 1.37113 1.29888 1.20976 1.38501 0.187256Z" fill="#D6DF58"/>
<path d="M1.37613 2.80167C1.33251 2.80163 1.29027 2.78637 1.25669 2.75854C1.2231 2.7307 1.20027 2.69203 1.19213 2.64917C1.19013 2.63892 0.979006 1.59392 0.224131 1.5583C0.177702 1.55605 0.133766 1.53663 0.100847 1.50381C0.0679269 1.47099 0.048371 1.42712 0.0459728 1.38069C0.0435747 1.33427 0.0585053 1.28861 0.087868 1.25258C0.117231 1.21654 0.158932 1.1927 0.204881 1.18567C0.241881 1.1798 1.12588 1.03042 1.19826 0.17155C1.202 0.127654 1.22109 0.0864793 1.25216 0.0552495C1.28324 0.0240197 1.32432 0.00472911 1.36819 0.000762011C1.41207 -0.00320509 1.45594 0.00840468 1.49211 0.0335545C1.52828 0.0587042 1.55445 0.0957878 1.56601 0.1383C1.56863 0.148175 1.84463 1.1283 2.56588 1.17155C2.60917 1.17418 2.65021 1.19173 2.68201 1.22122C2.71381 1.25071 2.73441 1.29031 2.74029 1.33328C2.74617 1.37625 2.73698 1.41993 2.71427 1.45688C2.69156 1.49383 2.65675 1.52176 2.61576 1.53592C2.60563 1.53942 1.58001 1.90492 1.56376 2.61855C1.56271 2.66486 1.54456 2.70914 1.5128 2.74287C1.48104 2.77659 1.43792 2.79736 1.39176 2.80117C1.38651 2.80142 1.38126 2.80167 1.37613 2.80167ZM0.810881 1.36067C1.07451 1.5273 1.25151 1.78492 1.36713 2.0208C1.53926 1.74167 1.80676 1.53667 2.03813 1.39905C1.75201 1.24017 1.55226 0.98005 1.42013 0.7458C1.27338 1.0318 1.04301 1.23055 0.810881 1.36067Z" fill="#3A312A"/>
<path d="M6.76951 24.6565L1.93263 19.5129C1.5326 19.0572 1.26455 18.501 1.15738 17.9042L0.198507 10.5675C0.157257 10.337 0.245507 10.1605 0.369382 10.0297C0.666382 9.71729 1.17976 9.69692 1.49776 9.98829C1.62307 10.1026 1.71585 10.2481 1.76663 10.4099L2.89288 13.9848L6.61476 17.7067C7.42583 18.5175 7.99107 19.5412 8.24526 20.6595L8.44001 21.5127C8.51448 21.8397 8.67983 22.1391 8.91701 22.3763L10.0169 23.4762L6.76951 24.6565Z" fill="#FCE8CB"/>
<path d="M6.76951 24.8439C6.71863 24.8439 6.66888 24.8233 6.63288 24.7848L1.79601 19.6411C1.37133 19.1588 1.08664 18.5695 0.972757 17.937L0.0125068 10.5916C-0.0322432 10.3429 0.0435069 10.1009 0.233132 9.90051C0.604507 9.50988 1.22851 9.48726 1.62426 9.84976C1.77366 9.98635 1.88438 10.1599 1.94526 10.353L3.05776 13.8844L6.74726 17.5739C7.58367 18.4095 8.16639 19.4649 8.42801 20.6179L8.62263 21.4706C8.68915 21.7633 8.8371 22.0313 9.04938 22.2435L10.1493 23.3434C10.1716 23.3657 10.1879 23.3932 10.1967 23.4235C10.2056 23.4538 10.2066 23.4858 10.1998 23.5166C10.193 23.5474 10.1785 23.576 10.1577 23.5997C10.1369 23.6234 10.1104 23.6415 10.0808 23.6523L6.83351 24.8328C6.81263 24.8403 6.79101 24.8439 6.76951 24.8439ZM0.956632 9.96926C0.790632 9.96926 0.624632 10.033 0.505132 10.1586C0.396507 10.2735 0.357507 10.393 0.382882 10.5344L1.34313 17.8798C1.44263 18.4334 1.69563 18.9584 2.07351 19.3891L6.82151 24.4381L9.67601 23.4004L8.78438 22.5086C8.52207 22.2466 8.33927 21.9156 8.25713 21.554L8.06238 20.7011C7.81638 19.6171 7.2685 18.6248 6.48213 17.8391L2.76026 14.1173C2.73894 14.096 2.72307 14.0699 2.71401 14.0411L1.58776 10.4663C1.5468 10.3361 1.4722 10.219 1.37151 10.1269C1.25638 10.0214 1.10651 9.96926 0.956632 9.96926Z" fill="#3A312A"/>
<path d="M7.24863 28.0983H10.6398V25.7832H4.26126V28.0983H5.29826H7.24863Z" fill="#EF6D7A"/>
<path d="M10.6399 28.2858H7.24863C7.1989 28.2858 7.15121 28.2661 7.11605 28.2309C7.08089 28.1957 7.06113 28.1481 7.06113 28.0983C7.06113 28.0486 7.08089 28.0009 7.11605 27.9657C7.15121 27.9306 7.1989 27.9108 7.24863 27.9108H10.4523V25.9707H4.44876V27.9108H5.29826C5.34799 27.9108 5.39568 27.9306 5.43084 27.9657C5.466 28.0009 5.48576 28.0486 5.48576 28.0983C5.48576 28.1481 5.466 28.1957 5.43084 28.2309C5.39568 28.2661 5.34799 28.2858 5.29826 28.2858H4.26126C4.21153 28.2858 4.16384 28.2661 4.12867 28.2309C4.09351 28.1957 4.07376 28.1481 4.07376 28.0983V25.7832C4.07376 25.7335 4.09351 25.6858 4.12867 25.6506C4.16384 25.6155 4.21153 25.5957 4.26126 25.5957H10.6399C10.6896 25.5957 10.7373 25.6155 10.7725 25.6506C10.8076 25.6858 10.8274 25.7335 10.8274 25.7832V28.0983C10.8274 28.1481 10.8076 28.1957 10.7725 28.2309C10.7373 28.2661 10.6896 28.2858 10.6399 28.2858Z" fill="#3A312A"/>
<path d="M9.84826 23.1748C10.0582 23.1748 10.2595 23.2582 10.4079 23.4066C10.5564 23.5551 10.6398 23.7564 10.6398 23.9663V25.7832H4.26126V23.9663C4.26126 23.7564 4.34465 23.5551 4.49308 23.4066C4.64152 23.2582 4.84284 23.1748 5.05276 23.1748H9.84826Z" fill="#8AC6DD"/>
<path d="M10.6399 25.9707H4.26126C4.21153 25.9707 4.16384 25.9509 4.12867 25.9158C4.09351 25.8806 4.07376 25.8329 4.07376 25.7832V23.9663C4.07376 23.4266 4.51301 22.9873 5.05276 22.9873H9.84838C10.3881 22.9873 10.8274 23.4266 10.8274 23.9663V25.7832C10.8274 25.8329 10.8076 25.8806 10.7725 25.9158C10.7373 25.9509 10.6896 25.9707 10.6399 25.9707ZM4.44876 25.5957H10.4524V23.9663C10.4522 23.8062 10.3885 23.6527 10.2753 23.5394C10.162 23.4262 10.0085 23.3625 9.84838 23.3623H5.05276C4.89262 23.3625 4.73908 23.4262 4.62585 23.5394C4.51261 23.6526 4.44892 23.8062 4.44876 23.9663V25.5957Z" fill="#3A312A"/>
<path d="M5.58413 23.8821C5.50573 23.8821 5.42809 23.8975 5.35565 23.9276C5.28322 23.9576 5.2174 24.0016 5.16196 24.057C5.10653 24.1124 5.06256 24.1783 5.03256 24.2507C5.00256 24.3232 4.98712 24.4008 4.98713 24.4792C4.98714 24.5576 5.00259 24.6352 5.03261 24.7077C5.06262 24.7801 5.1066 24.8459 5.16205 24.9014C5.2175 24.9568 5.28333 25.0008 5.35577 25.0308C5.42821 25.0608 5.50585 25.0762 5.58426 25.0762C5.74261 25.0762 5.89447 25.0133 6.00643 24.9013C6.11839 24.7893 6.18127 24.6374 6.18126 24.4791C6.18124 24.3207 6.11832 24.1689 6.00634 24.0569C5.89436 23.945 5.74248 23.8821 5.58413 23.8821Z" fill="#87796F"/>
<path d="M5.58413 25.2638C5.15151 25.2638 4.79963 24.9119 4.79963 24.4793C4.79963 24.0467 5.15151 23.6948 5.58413 23.6948C6.01676 23.6948 6.36863 24.0467 6.36863 24.4793C6.3684 24.6873 6.28567 24.8867 6.1386 25.0338C5.99153 25.1808 5.79212 25.2636 5.58413 25.2638ZM5.58413 24.0697C5.47556 24.0698 5.37148 24.113 5.29472 24.1898C5.21795 24.2665 5.17476 24.3706 5.17463 24.4792C5.17476 24.5877 5.21795 24.6918 5.29472 24.7686C5.37148 24.8453 5.47556 24.8885 5.58413 24.8887C5.81001 24.8887 5.99363 24.7049 5.99363 24.4792C5.99363 24.2534 5.80988 24.0697 5.58413 24.0697ZM5.00938 19.8964C4.94451 19.8964 4.88138 19.8627 4.84663 19.8024C4.41438 19.051 4.03026 18.4715 3.65888 17.911C3.26701 17.3199 2.89688 16.7614 2.53451 16.0907C2.36138 15.7703 2.16501 15.407 2.13301 14.9969C2.10188 14.5985 2.27176 14.085 2.71838 13.8983C2.76426 13.8791 2.81588 13.8789 2.86189 13.8978C2.90789 13.9167 2.94451 13.9531 2.96369 13.999C2.98287 14.0449 2.98304 14.0965 2.96416 14.1425C2.94527 14.1885 2.90889 14.2251 2.86301 14.2443C2.60076 14.354 2.48538 14.6913 2.50688 14.9677C2.53263 15.2987 2.70888 15.6248 2.86438 15.9125C3.21876 16.5685 3.58438 17.12 3.97138 17.704C4.34601 18.2693 4.73351 18.8539 5.17163 19.6155C5.18799 19.644 5.19658 19.6763 5.19653 19.7092C5.19649 19.742 5.18782 19.7743 5.17139 19.8027C5.15496 19.8311 5.13135 19.8548 5.10292 19.8712C5.07448 19.8877 5.04223 19.8964 5.00938 19.8964Z" fill="#3A312A"/>
<path d="M21.4963 24.6565L26.3331 19.5129C26.7332 19.0572 27.0012 18.501 27.1084 17.9042L28.0673 10.5675C28.1085 10.337 28.0203 10.1605 27.8964 10.0297C27.5994 9.71729 27.086 9.69692 26.768 9.98829C26.6427 10.1026 26.5499 10.2481 26.499 10.4099L25.3728 13.9848L21.6509 17.7067C20.8399 18.5176 20.2746 19.5412 20.0204 20.6595L19.8256 21.5127C19.7512 21.8397 19.5858 22.1391 19.3486 22.3763L18.2488 23.4762L21.4963 24.6565Z" fill="#FCE8CB"/>
<path d="M21.4963 24.8439C21.4749 24.8439 21.4531 24.8403 21.4323 24.8326L18.185 23.6521C18.1554 23.6414 18.1289 23.6233 18.1081 23.5996C18.0873 23.5759 18.0728 23.5473 18.066 23.5165C18.0591 23.4857 18.0602 23.4537 18.069 23.4234C18.0779 23.3931 18.0942 23.3656 18.1165 23.3433L19.2164 22.2434C19.4287 22.0312 19.5766 21.7633 19.643 21.4706L19.8379 20.6175C20.0996 19.4646 20.6823 18.4093 21.5186 17.5738L25.2081 13.8843L26.3205 10.3531C26.3814 10.1598 26.4924 9.98592 26.6421 9.84926C27.0375 9.48714 27.6614 9.50964 28.0325 9.90014C28.2225 10.1008 28.2983 10.3428 28.2521 10.6004L27.2946 17.9281C27.1822 18.5617 26.8985 19.1525 26.4743 19.6363L21.6329 24.7849C21.6153 24.8035 21.5942 24.8184 21.5707 24.8285C21.5472 24.8387 21.5219 24.8439 21.4963 24.8439ZM18.5898 23.4004L21.4443 24.4381L26.1966 19.3844C26.572 18.9553 26.8234 18.4321 26.924 17.871L27.8815 10.5433C27.9083 10.3931 27.8693 10.2736 27.7604 10.1585C27.5333 9.91964 27.1369 9.90489 26.8949 10.1265C26.7939 10.2187 26.7191 10.336 26.6781 10.4665L25.552 14.0411C25.5429 14.0699 25.5271 14.096 25.5058 14.1173L21.7839 17.8391C20.9976 18.6248 20.4497 19.617 20.2036 20.701L20.0088 21.5543C19.9266 21.9158 19.7439 22.2467 19.4816 22.5088L18.5898 23.4004Z" fill="#3A312A"/>
<path d="M17.6259 25.7832H24.0045V28.0982H17.6259V25.7832Z" fill="#EF6D7A"/>
<path d="M24.0045 28.2858H17.6259C17.5761 28.2858 17.5285 28.2661 17.4933 28.2309C17.4581 28.1957 17.4384 28.1481 17.4384 28.0983V25.7832C17.4384 25.7335 17.4581 25.6858 17.4933 25.6506C17.5285 25.6155 17.5761 25.5957 17.6259 25.5957H24.0045C24.0542 25.5957 24.1019 25.6155 24.1371 25.6506C24.1722 25.6858 24.192 25.7335 24.192 25.7832V28.0983C24.192 28.1481 24.1722 28.1957 24.1371 28.2309C24.1019 28.2661 24.0542 28.2858 24.0045 28.2858ZM17.8134 27.9108H23.817V25.9707H17.8134V27.9108Z" fill="#3A312A"/>
<path d="M19.2058 23.1748H18.4175C18.2076 23.1748 18.0063 23.2582 17.8578 23.4066C17.7094 23.5551 17.626 23.7564 17.626 23.9663V25.7832H24.0046V23.9663C24.0046 23.7564 23.9212 23.5551 23.7728 23.4066C23.6244 23.2582 23.423 23.1748 23.2131 23.1748H21.1539H19.2058Z" fill="#8AC6DD"/>
<path d="M24.0045 25.9707H17.6259C17.5761 25.9707 17.5285 25.9509 17.4933 25.9158C17.4581 25.8806 17.4384 25.8329 17.4384 25.7832V23.9663C17.4384 23.4266 17.8776 22.9873 18.4174 22.9873H19.2056C19.2554 22.9873 19.303 23.0071 19.3382 23.0422C19.3734 23.0774 19.3931 23.1251 19.3931 23.1748C19.3931 23.2245 19.3734 23.2722 19.3382 23.3074C19.303 23.3425 19.2554 23.3623 19.2056 23.3623H18.4174C18.2572 23.3625 18.1037 23.4262 17.9905 23.5394C17.8772 23.6526 17.8135 23.8062 17.8134 23.9663V25.5957H23.817V23.9663C23.8168 23.8062 23.7531 23.6526 23.6399 23.5394C23.5267 23.4262 23.3731 23.3625 23.213 23.3623H21.1538C21.104 23.3623 21.0563 23.3425 21.0212 23.3074C20.986 23.2722 20.9663 23.2245 20.9663 23.1748C20.9663 23.1251 20.986 23.0774 21.0212 23.0422C21.0563 23.0071 21.104 22.9873 21.1538 22.9873H23.213C23.7528 22.9873 24.192 23.4266 24.192 23.9663V25.7832C24.192 25.8329 24.1722 25.8806 24.1371 25.9158C24.1019 25.9509 24.0542 25.9707 24.0045 25.9707Z" fill="#3A312A"/>
<path d="M22.6816 23.8821C22.76 23.8821 22.8377 23.8975 22.9101 23.9276C22.9825 23.9576 23.0484 24.0016 23.1038 24.057C23.1592 24.1124 23.2032 24.1783 23.2332 24.2507C23.2632 24.3232 23.2786 24.4008 23.2786 24.4792C23.2786 24.5576 23.2632 24.6352 23.2332 24.7077C23.2031 24.7801 23.1592 24.8459 23.1037 24.9014C23.0483 24.9568 22.9824 25.0008 22.91 25.0308C22.8376 25.0608 22.7599 25.0762 22.6815 25.0762C22.5232 25.0762 22.3713 25.0133 22.2593 24.9013C22.1474 24.7893 22.0845 24.6374 22.0845 24.4791C22.0845 24.3207 22.1474 24.1689 22.2594 24.0569C22.3714 23.945 22.5233 23.8821 22.6816 23.8821Z" fill="#87796F"/>
<path d="M22.6816 25.2637C22.249 25.2637 21.8971 24.9118 21.8971 24.4792C21.8971 24.0465 22.249 23.6947 22.6816 23.6947C23.1143 23.6947 23.4661 24.0465 23.4661 24.4792C23.4659 24.6872 23.3832 24.8866 23.2361 25.0336C23.089 25.1807 22.8896 25.2634 22.6816 25.2637ZM22.6816 24.0696C22.5731 24.0697 22.469 24.1129 22.3922 24.1896C22.3155 24.2664 22.2723 24.3705 22.2721 24.4791C22.2723 24.5876 22.3155 24.6917 22.3922 24.7685C22.469 24.8452 22.5731 24.8884 22.6816 24.8886C22.9075 24.8886 23.0911 24.7048 23.0911 24.4791C23.0911 24.2533 22.9075 24.0696 22.6816 24.0696ZM23.2564 19.8963C23.2235 19.8963 23.1912 19.8876 23.1627 19.8712C23.1343 19.8547 23.1106 19.8311 23.0942 19.8026C23.0777 19.7741 23.0691 19.7419 23.069 19.709C23.069 19.6761 23.0776 19.6438 23.094 19.6153C23.5321 18.8537 23.9196 18.2691 24.2943 17.7038C24.6813 17.1198 25.0469 16.5683 25.4013 15.9123C25.5568 15.6246 25.733 15.2985 25.7588 14.9674C25.7804 14.691 25.6649 14.3538 25.4026 14.244C25.3799 14.2346 25.3593 14.2207 25.3419 14.2032C25.3246 14.1857 25.3108 14.165 25.3015 14.1422C25.2921 14.1195 25.2874 14.0951 25.2874 14.0704C25.2875 14.0458 25.2924 14.0215 25.3019 13.9987C25.3114 13.976 25.3253 13.9554 25.3428 13.938C25.3603 13.9207 25.381 13.9069 25.4037 13.8976C25.4265 13.8882 25.4509 13.8835 25.4755 13.8835C25.5002 13.8836 25.5245 13.8886 25.5473 13.898C25.9938 14.0848 26.1636 14.5983 26.1326 14.9967C26.1006 15.4068 25.9043 15.77 25.7311 16.0904C25.3688 16.7612 24.9986 17.3197 24.6068 17.9108C24.2354 18.4712 23.8513 19.0508 23.419 19.8022C23.4026 19.8308 23.379 19.8546 23.3504 19.8712C23.3218 19.8877 23.2894 19.8964 23.2564 19.8963Z" fill="#3A312A"/>
<path d="M21.9416 25.9709H23.8166V27.9109H21.9416V25.9709Z" fill="#D34E5C"/>
<path d="M23.2129 23.3623H21.3379C21.6716 23.3623 21.9416 23.6336 21.9416 23.9659V24.2197C22.0479 23.9147 22.3391 23.6947 22.6816 23.6947C23.1141 23.6947 23.4666 24.0459 23.4666 24.4784C23.4666 24.9109 23.1141 25.2634 22.6816 25.2634C22.3391 25.2634 22.0479 25.0434 21.9416 24.7372V25.5959H23.8166V23.9659C23.8165 23.8059 23.7528 23.6524 23.6396 23.5392C23.5264 23.426 23.373 23.3624 23.2129 23.3623Z" fill="#6CA8BF"/>
</svg>
