<svg width="29" height="29" viewBox="0 0 29 29" fill="none" xmlns="http://www.w3.org/2000/svg">
<path d="M16.5 26.5C16.5024 26.7642 16.4514 27.0262 16.35 27.2702C16.2486 27.5143 16.0989 27.7353 15.91 27.92C15.6295 28.1981 15.273 28.387 14.8854 28.4629C14.4978 28.5388 14.0964 28.4983 13.7318 28.3464C13.3671 28.1946 13.0556 27.9382 12.8364 27.6097C12.6172 27.2811 12.5002 26.895 12.5 26.5H16.5Z" fill="#F2F2F2"/>
<path d="M11.5 22.5H17.5V26.5H11.5V22.5Z" fill="#F45151"/>
<path d="M16.5 10.5C16.4992 10.765 16.3936 11.0189 16.2062 11.2062C16.0189 11.3936 15.765 11.4992 15.5 11.5H14.5V14.5H11.5V13.5C11.5 13.2348 11.3946 12.9804 11.2071 12.7929C11.0196 12.6054 10.7652 12.5 10.5 12.5C10.2348 12.5 9.98043 12.6054 9.79289 12.7929C9.60536 12.9804 9.5 13.2348 9.5 13.5V14.5H6.5C6.49974 13.4494 6.70648 12.4089 7.10843 11.4382C7.51037 10.4675 8.09964 9.58548 8.84256 8.84256C9.58548 8.09964 10.4675 7.51037 11.4382 7.10843C12.4089 6.70648 13.4494 6.49974 14.5 6.5V9.5H15.5C15.765 9.50079 16.0189 9.6064 16.2062 9.79377C16.3936 9.98113 16.4992 10.235 16.5 10.5Z" fill="#F2F2F2"/>
<path d="M22.5 14.5C22.5006 15.9033 22.1311 17.282 21.4288 18.4969C20.7266 19.7118 19.7163 20.7201 18.5 21.42V22.5H14.5V19.5H13.5C13.2348 19.5 12.9804 19.3946 12.7929 19.2071C12.6054 19.0196 12.5 18.7652 12.5 18.5C12.5 18.2348 12.6054 17.9804 12.7929 17.7929C12.9804 17.6054 13.2348 17.5 13.5 17.5H14.5V14.5H17.5V15.5C17.5 15.7652 17.6054 16.0196 17.7929 16.2071C17.9804 16.3946 18.2348 16.5 18.5 16.5C18.7652 16.5 19.0196 16.3946 19.2071 16.2071C19.3946 16.0196 19.5 15.7652 19.5 15.5V14.5H22.5Z" fill="#FFC943"/>
<path d="M12.5 18.5C12.5008 18.765 12.6064 19.0189 12.7938 19.2062C12.9811 19.3936 13.235 19.4992 13.5 19.5H14.5V22.5H10.5V21.42C9.28369 20.7201 8.27344 19.7118 7.57117 18.4969C6.86889 17.282 6.49941 15.9033 6.5 14.5H9.5V13.5C9.5 13.2348 9.60536 12.9804 9.79289 12.7929C9.98043 12.6054 10.2348 12.5 10.5 12.5C10.7652 12.5 11.0196 12.6054 11.2071 12.7929C11.3946 12.9804 11.5 13.2348 11.5 13.5V14.5H14.5V17.5H13.5C13.235 17.5008 12.9811 17.6064 12.7938 17.7938C12.6064 17.9811 12.5008 18.235 12.5 18.5Z" fill="#43B3FF"/>
<path d="M22.5 14.5H19.5V15.5C19.5 15.7652 19.3946 16.0196 19.2071 16.2071C19.0196 16.3946 18.7652 16.5 18.5 16.5C18.2348 16.5 17.9804 16.3946 17.7929 16.2071C17.6054 16.0196 17.5 15.7652 17.5 15.5V14.5H14.5V11.5H15.5C15.7652 11.5 16.0196 11.3946 16.2071 11.2071C16.3946 11.0196 16.5 10.7652 16.5 10.5C16.5 10.2348 16.3946 9.98043 16.2071 9.79289C16.0196 9.60536 15.7652 9.5 15.5 9.5H14.5V6.5C15.5506 6.49974 16.5911 6.70648 17.5618 7.10843C18.5325 7.51037 19.4145 8.09964 20.1574 8.84256C20.9004 9.58548 21.4896 10.4675 21.8916 11.4382C22.2935 12.4089 22.5003 13.4494 22.5 14.5Z" fill="#F45151"/>
<path d="M14.5 6C12.9738 5.99839 11.4756 6.40957 10.164 7.19C10.05 7.2579 9.96756 7.36831 9.93493 7.49696C9.90229 7.62561 9.9221 7.76196 9.99 7.876C10.0579 7.99004 10.1683 8.07244 10.297 8.10507C10.4256 8.13771 10.562 8.1179 10.676 8.05C11.6881 7.45325 12.8272 7.10474 14 7.033V9.5C14 9.63261 14.0527 9.75979 14.1464 9.85355C14.2402 9.94732 14.3674 10 14.5 10H15.5C15.6326 10 15.7598 10.0527 15.8536 10.1464C15.9473 10.2402 16 10.3674 16 10.5C16 10.6326 15.9473 10.7598 15.8536 10.8536C15.7598 10.9473 15.6326 11 15.5 11H14.5C14.3674 11 14.2402 11.0527 14.1464 11.1464C14.0527 11.2402 14 11.3674 14 11.5V14H12V13.5C12 13.1022 11.842 12.7206 11.5607 12.4393C11.2794 12.158 10.8978 12 10.5 12C10.1022 12 9.72064 12.158 9.43934 12.4393C9.15804 12.7206 9 13.1022 9 13.5V14L7.033 14.002C7.10408 12.8286 7.45227 11.6888 8.049 10.676C8.11051 10.5626 8.12578 10.4297 8.09162 10.3053C8.05745 10.1808 7.97649 10.0744 7.86568 10.0083C7.75486 9.94217 7.62277 9.92145 7.49703 9.95047C7.37128 9.97949 7.26163 10.056 7.191 10.164C6.05696 12.0726 5.71593 14.3496 6.24104 16.5067C6.76615 18.6637 8.11559 20.5292 10 21.703V22.5C10 22.6326 10.0527 22.7598 10.1464 22.8536C10.2402 22.9473 10.3674 23 10.5 23H11V24.002H10.5C10.3674 24.002 10.2402 24.0547 10.1464 24.1484C10.0527 24.2422 10 24.3694 10 24.502C10 24.6346 10.0527 24.7618 10.1464 24.8556C10.2402 24.9493 10.3674 25.002 10.5 25.002H11V26.502C11 26.6346 11.0527 26.7618 11.1464 26.8556C11.2402 26.9493 11.3674 27.002 11.5 27.002H12.05C12.1648 27.5671 12.4714 28.0752 12.9179 28.4402C13.3644 28.8051 13.9233 29.0045 14.5 29.0045C15.0767 29.0045 15.6356 28.8051 16.0821 28.4402C16.5286 28.0752 16.8352 27.5671 16.95 27.002H17.5C17.6326 27.002 17.7598 26.9493 17.8536 26.8556C17.9473 26.7618 18 26.6346 18 26.502V25.002H18.5C18.6326 25.002 18.7598 24.9493 18.8536 24.8556C18.9473 24.7618 19 24.6346 19 24.502C19 24.3694 18.9473 24.2422 18.8536 24.1484C18.7598 24.0547 18.6326 24.002 18.5 24.002H18V23H18.5C18.6326 23 18.7598 22.9473 18.8536 22.8536C18.9473 22.7598 19 22.6326 19 22.5V21.703C20.566 20.7263 21.7714 19.2661 22.4337 17.5434C23.096 15.8206 23.1792 13.929 22.6708 12.1548C22.1623 10.3805 21.0899 8.82014 19.6157 7.70966C18.1414 6.59918 16.3457 5.99903 14.5 6ZM14.5 28.002C14.1898 28.0017 13.8872 27.9055 13.6339 27.7264C13.3806 27.5474 13.1888 27.2943 13.085 27.002H15.915C15.8112 27.2943 15.6194 27.5474 15.3661 27.7264C15.1128 27.9055 14.8102 28.0017 14.5 28.002ZM17 26.002H12V25.002H17V26.002ZM12 24.002V23.002H17V24.002H12ZM15 12H15.5C15.8978 12 16.2794 11.842 16.5607 11.5607C16.842 11.2794 17 10.8978 17 10.5C17 10.1022 16.842 9.72064 16.5607 9.43934C16.2794 9.15804 15.8978 9 15.5 9H15V7.025C16.8098 7.14764 18.5139 7.92214 19.7964 9.20501C21.0789 10.4879 21.8529 12.1921 21.975 14.002L19.5 14C19.3674 14 19.2402 14.0527 19.1464 14.1464C19.0527 14.2402 19 14.3674 19 14.5V15.5C19 15.6326 18.9473 15.7598 18.8536 15.8536C18.7598 15.9473 18.6326 16 18.5 16C18.3674 16 18.2402 15.9473 18.1464 15.8536C18.0527 15.7598 18 15.6326 18 15.5V14.5C18 14.3674 17.9473 14.2402 17.8536 14.1464C17.7598 14.0527 17.6326 14 17.5 14H15V12ZM7.034 15.002L9.5 15C9.63261 15 9.75979 14.9473 9.85355 14.8536C9.94732 14.7598 10 14.6326 10 14.5V13.5C10 13.3674 10.0527 13.2402 10.1464 13.1464C10.2402 13.0527 10.3674 13 10.5 13C10.6326 13 10.7598 13.0527 10.8536 13.1464C10.9473 13.2402 11 13.3674 11 13.5V14.5C11 14.6326 11.0527 14.7598 11.1464 14.8536C11.2402 14.9473 11.3674 15 11.5 15H14V17H13.5C13.1022 17 12.7206 17.158 12.4393 17.4393C12.158 17.7206 12 18.1022 12 18.5C12 18.8978 12.158 19.2794 12.4393 19.5607C12.7206 19.842 13.1022 20 13.5 20H14V22H11V21.42C11 21.3322 10.9769 21.246 10.933 21.17C10.8891 21.094 10.826 21.0309 10.75 20.987C9.68814 20.3696 8.79402 19.5011 8.14612 18.4576C7.49823 17.4141 7.11635 16.2275 7.034 15.002ZM18.25 20.987C18.174 21.0309 18.1109 21.094 18.067 21.17C18.0231 21.246 18 21.3322 18 21.42V22H15V19.5C15 19.3674 14.9473 19.2402 14.8536 19.1464C14.7598 19.0527 14.6326 19 14.5 19H13.5C13.3674 19 13.2402 18.9473 13.1464 18.8536C13.0527 18.7598 13 18.6326 13 18.5C13 18.3674 13.0527 18.2402 13.1464 18.1464C13.2402 18.0527 13.3674 18 13.5 18H14.5C14.6326 18 14.7598 17.9473 14.8536 17.8536C14.9473 17.7598 15 17.6326 15 17.5V15H17V15.5C17 15.8978 17.158 16.2794 17.4393 16.5607C17.7206 16.842 18.1022 17 18.5 17C18.8978 17 19.2794 16.842 19.5607 16.5607C19.842 16.2794 20 15.8978 20 15.5V15L21.966 15.002C21.8837 16.2275 21.5018 17.4141 20.8539 18.4576C20.206 19.5011 19.3119 20.3696 18.25 20.987ZM4 14.5C4 14.3674 3.94732 14.2402 3.85355 14.1464C3.75979 14.0527 3.63261 14 3.5 14H0.5C0.367392 14 0.240215 14.0527 0.146447 14.1464C0.0526784 14.2402 0 14.3674 0 14.5C0 14.6326 0.0526784 14.7598 0.146447 14.8536C0.240215 14.9473 0.367392 15 0.5 15H3.5C3.63261 15 3.75979 14.9473 3.85355 14.8536C3.94732 14.7598 4 14.6326 4 14.5ZM5.224 8.567L2.625 7.067C2.56811 7.03365 2.50519 7.01188 2.43986 7.00295C2.37453 6.99402 2.30808 6.9981 2.24433 7.01495C2.18058 7.03181 2.12079 7.0611 2.06841 7.10116C2.01603 7.14121 1.97209 7.19123 1.93912 7.24834C1.90615 7.30544 1.8848 7.3685 1.8763 7.43389C1.8678 7.49928 1.87232 7.56571 1.8896 7.62935C1.90687 7.69298 1.93657 7.75257 1.97697 7.80469C2.01737 7.8568 2.06768 7.90041 2.125 7.933L4.724 9.433C4.83878 9.49826 4.97471 9.51547 5.10213 9.48087C5.22955 9.44628 5.33812 9.36269 5.40414 9.24835C5.47016 9.134 5.48827 8.99819 5.45452 8.87054C5.42077 8.74289 5.3379 8.63378 5.224 8.567ZM8.567 5.224C8.59959 5.28132 8.6432 5.33163 8.69531 5.37203C8.74743 5.41243 8.80702 5.44213 8.87065 5.4594C8.93429 5.47668 9.00072 5.4812 9.06611 5.4727C9.1315 5.4642 9.19456 5.44285 9.25166 5.40988C9.30877 5.37691 9.35879 5.33297 9.39884 5.28059C9.4389 5.22821 9.46819 5.16842 9.48505 5.10467C9.5019 5.04092 9.50598 4.97447 9.49705 4.90914C9.48812 4.84381 9.46635 4.78089 9.433 4.724L7.933 2.125C7.86622 2.0111 7.75711 1.92823 7.62946 1.89448C7.50181 1.86073 7.366 1.87884 7.25165 1.94486C7.13731 2.01088 7.05372 2.11945 7.01913 2.24687C6.98453 2.37429 7.00174 2.51022 7.067 2.625L8.567 5.224ZM14.5 4C14.6326 4 14.7598 3.94732 14.8536 3.85355C14.9473 3.75979 15 3.63261 15 3.5V0.5C15 0.367392 14.9473 0.240215 14.8536 0.146447C14.7598 0.0526784 14.6326 0 14.5 0C14.3674 0 14.2402 0.0526784 14.1464 0.146447C14.0527 0.240215 14 0.367392 14 0.5V3.5C14 3.63261 14.0527 3.75979 14.1464 3.85355C14.2402 3.94732 14.3674 4 14.5 4ZM19.75 5.407C19.8648 5.4733 20.0013 5.49127 20.1294 5.45695C20.2575 5.42263 20.3667 5.33884 20.433 5.224L21.933 2.625C21.9983 2.51022 22.0155 2.37429 21.9809 2.24687C21.9463 2.11945 21.8627 2.01088 21.7483 1.94486C21.634 1.87884 21.4982 1.86073 21.3705 1.89448C21.2429 1.92823 21.1338 2.0111 21.067 2.125L19.567 4.724C19.5007 4.83884 19.4827 4.97531 19.517 5.1034C19.5514 5.23149 19.6352 5.34069 19.75 5.407ZM24.027 9.5C24.1148 9.50014 24.201 9.47702 24.277 9.433L26.875 7.933C26.9889 7.86622 27.0718 7.75711 27.1055 7.62946C27.1393 7.50181 27.1212 7.366 27.0551 7.25165C26.9891 7.13731 26.8806 7.05372 26.7531 7.01913C26.6257 6.98453 26.4898 7.00174 26.375 7.067L23.776 8.567C23.6807 8.62204 23.6062 8.70698 23.5641 8.80867C23.522 8.91036 23.5146 9.0231 23.5431 9.12941C23.5715 9.23572 23.6343 9.32967 23.7216 9.39667C23.809 9.46367 23.9159 9.5 24.026 9.5H24.027ZM28.5 14H25.5C25.3674 14 25.2402 14.0527 25.1464 14.1464C25.0527 14.2402 25 14.3674 25 14.5C25 14.6326 25.0527 14.7598 25.1464 14.8536C25.2402 14.9473 25.3674 15 25.5 15H28.5C28.6326 15 28.7598 14.9473 28.8536 14.8536C28.9473 14.7598 29 14.6326 29 14.5C29 14.3674 28.9473 14.2402 28.8536 14.1464C28.7598 14.0527 28.6326 14 28.5 14ZM26.875 21.067L24.276 19.567C24.2191 19.5337 24.1562 19.5119 24.0909 19.503C24.0255 19.494 23.9591 19.4981 23.8953 19.5149C23.8316 19.5318 23.7718 19.5611 23.7194 19.6012C23.667 19.6412 23.6231 19.6912 23.5901 19.7483C23.5571 19.8054 23.5358 19.8685 23.5273 19.9339C23.5188 19.9993 23.5233 20.0657 23.5406 20.1293C23.5579 20.193 23.5876 20.2526 23.628 20.3047C23.6684 20.3568 23.7187 20.4004 23.776 20.433L26.375 21.933C26.4898 21.9983 26.6257 22.0155 26.7531 21.9809C26.8806 21.9463 26.9891 21.8627 27.0551 21.7483C27.1212 21.634 27.1393 21.4982 27.1055 21.3705C27.0718 21.2429 26.9889 21.1338 26.875 21.067ZM4.724 19.567L2.125 21.067C2.0111 21.1338 1.92823 21.2429 1.89448 21.3705C1.86073 21.4982 1.87884 21.634 1.94486 21.7483C2.01088 21.8627 2.11945 21.9463 2.24687 21.9809C2.37429 22.0155 2.51022 21.9983 2.625 21.933L5.224 20.433C5.28132 20.4004 5.33163 20.3568 5.37203 20.3047C5.41243 20.2526 5.44213 20.193 5.4594 20.1293C5.47668 20.0657 5.4812 19.9993 5.4727 19.9339C5.4642 19.8685 5.44285 19.8054 5.40988 19.7483C5.37691 19.6912 5.33297 19.6412 5.28059 19.6012C5.22821 19.5611 5.16842 19.5318 5.10467 19.5149C5.04092 19.4981 4.97447 19.494 4.90914 19.503C4.84381 19.5119 4.78089 19.5337 4.724 19.567Z" fill="black"/>
<path d="M8.49 8.4899C8.42006 8.55982 8.37242 8.64891 8.35312 8.7459C8.33381 8.8429 8.34371 8.94344 8.38154 9.03481C8.41938 9.12618 8.48347 9.20428 8.5657 9.25923C8.64793 9.31418 8.7446 9.34351 8.8435 9.34351C8.9424 9.34351 9.03907 9.31418 9.1213 9.25923C9.20353 9.20428 9.26761 9.12618 9.30545 9.03481C9.34329 8.94344 9.35318 8.8429 9.33388 8.7459C9.31458 8.64891 9.26694 8.55982 9.197 8.4899C9.10323 8.39616 8.97608 8.34351 8.8435 8.34351C8.71092 8.34351 8.58376 8.39616 8.49 8.4899Z" fill="black"/>
</svg>
