<svg width="124" height="124" viewBox="0 0 124 124" fill="none" xmlns="http://www.w3.org/2000/svg">
<path d="M44.3715 10.5229C42.1173 11.8873 41.8207 15.1203 43.7783 17.2559C44.5792 18.1457 43.9266 18.1753 42.5622 17.3448C41.4351 16.6626 40.6046 14.972 40.7826 13.7262C40.9012 12.9254 40.9012 12.9254 40.3674 13.4C38.8547 14.7644 39.0326 17.6118 40.7826 19.5694L41.6724 20.6075L40.8419 20.3109C39.6852 19.866 38.736 18.9169 38.4987 17.9974C38.3208 17.2855 38.2615 17.2559 37.9945 17.7304C37.4606 18.7092 38.0242 20.3702 39.2996 21.527L40.4563 22.6244L39.4182 24.0778C37.9055 26.1837 36.0666 30.1879 35.3844 32.9167C34.8801 34.8149 34.7912 36.0607 34.8505 39.1454C34.9395 44.3657 34.6429 45.0479 32.8039 43.8318C32.0327 43.3275 32.0327 43.3275 32.3887 43.9504C32.5666 44.3063 33.0115 44.8106 33.3675 45.0479C33.9903 45.4928 33.9903 45.5224 31.5878 49.141C28.3548 54.035 28.3845 54.8062 31.7954 55.9926C34.0793 56.7638 34.4946 57.2977 33.931 58.6324C33.7234 59.1663 33.4861 59.8188 33.3971 60.0858C33.2488 60.5604 33.8124 61.3019 34.7022 61.7764C35.1174 62.0137 35.0878 62.1324 34.5242 62.6959C33.6344 63.5857 33.7234 64.0306 35.0878 65.3654L36.2742 66.5518L36.0962 69.0136C35.9479 71.1195 36.0072 71.5941 36.5115 72.3949C37.5793 74.0856 38.7953 74.4119 44.6088 74.5898C50.5409 74.7678 51.0452 74.9161 51.8164 77.022C52.0833 77.7339 52.3799 79.3652 52.4985 80.6703L52.7358 83.0431H60.5959H68.456L68.5449 72.4839L68.6043 61.9544L64.6001 58.7214L60.5959 55.4884V53.0266C60.5959 51.5435 60.7145 50.5647 60.8925 50.5647C61.0705 50.5647 61.3374 50.2385 61.545 49.8232C62.3459 48.0436 59.7061 46.7088 58.6383 48.3402C58.1934 49.0224 58.1934 49.141 58.7866 50.1198C59.2612 50.9503 59.4095 51.6918 59.4095 53.4715V55.785L60.8925 57.2384L62.3755 58.6917V61.7171C62.3755 64.0306 62.4645 64.8018 62.8204 65.0984C63.3543 65.5433 63.4136 66.6111 62.9094 67.1154C62.3162 67.7086 61.2484 67.5306 60.7145 66.7298C60.2993 66.0772 60.2696 65.8993 60.6552 65.3061C60.9222 64.9501 61.1891 63.4968 61.3077 61.9544L61.4857 59.2553L59.6467 57.6833C56.5027 55.0435 56.74 55.696 56.74 49.3783V43.8021L54.2189 41.5479L51.668 39.2937H48.1978H44.7275L44.0749 38.3446L43.3927 37.3954L44.0453 36.7132C44.5792 36.1497 44.6385 35.8827 44.4012 35.2302C44.2529 34.8149 43.9266 34.3404 43.6597 34.1624C42.9478 33.7175 41.7614 34.1624 41.3462 35.0226C41.0199 35.7344 41.1089 35.9717 42.3843 37.87C43.1555 38.9971 44.0156 40.0352 44.3122 40.1835C44.6088 40.3615 46.2698 40.4801 48.0495 40.4801H51.2528L52.9731 42.0521L54.6638 43.6241V47.6283C54.6638 50.2088 54.7824 51.7512 54.99 51.9588C55.4349 52.4037 55.1087 53.7088 54.4858 53.946C53.1511 54.4503 52.0536 52.8486 53.0028 51.7808C53.3884 51.3656 53.4773 50.5647 53.4773 47.7173V44.158L52.3502 43.0606L51.2231 41.9632H47.6935C43.4521 41.9632 42.3546 41.6962 41.1089 40.4208C38.6174 37.8403 38.6767 34.4294 41.2868 29.0608C43.8376 23.8702 48.702 20.0143 55.168 18.027C57.5112 17.3152 58.2824 17.2559 62.5238 17.2262C67.9517 17.1965 70.1169 17.6414 74.4474 19.7473C86.1337 25.3532 91.1167 39.7089 85.3625 51.1579C83.8795 54.0943 82.4261 55.7257 78.3033 59.1663L74.5364 62.2807V67.6492C74.5364 71.7424 74.6254 73.2254 74.9516 73.8483C75.5152 74.9458 75.1592 75.8949 74.1211 76.0135C73.6762 76.0729 73.1127 75.9542 72.8754 75.7466C72.3415 75.3017 72.3415 74.1746 72.905 73.7C73.261 73.4034 73.35 72.3356 73.35 67.6196V61.9247L74.922 60.6197C75.7525 59.9078 77.2355 58.6028 78.1846 57.7129L79.8753 56.1113V54.0647C79.8753 52.552 79.7863 52.0478 79.46 52.0478C79.0745 52.0478 78.6889 53.4418 78.6889 55.0138C78.6889 55.7553 77.1168 57.0307 71.5703 60.8866L69.939 62.0137L69.85 71.9204C69.8203 77.3779 69.85 82.1533 69.939 82.5092L70.0873 83.1914H76.9092C80.6761 83.1914 83.7312 83.1024 83.7312 83.0134C83.7312 82.9245 83.2863 81.6194 82.7227 80.1067C81.21 76.0432 80.6761 73.2254 80.8244 70.2001C81.0024 66.7594 81.9219 64.6239 84.9473 60.501C88.5955 55.5477 89.9896 52.374 91.0277 46.8572C91.7099 43.1199 91.4726 37.781 90.4641 33.8658C88.4769 26.2727 83.7015 20.3702 76.7609 16.8406C69.7017 13.2517 62.1086 12.6288 52.8545 14.8533C49.7698 15.5949 49.6511 15.6245 48.0495 15.1499C45.3207 14.3491 44.3122 12.2432 45.9139 10.6712L46.6257 9.92968H45.9732C45.6173 9.92968 44.9054 10.1966 44.3715 10.5229Z" fill="#60A5FA"/>
<path d="M91.3242 13.9636C87.498 14.7051 85.2141 16.9297 85.2141 19.9254C85.2141 20.6076 85.2734 21.2008 85.3624 21.2008C85.4217 21.2008 86.0743 20.5779 86.8158 19.7771C88.0912 18.4127 90.553 16.7517 90.553 17.2559C90.553 17.4042 89.5446 18.5017 88.3285 19.7178C87.1124 20.9338 86.1039 22.0313 86.1039 22.1499C86.1039 22.2982 86.9344 22.3872 87.9429 22.3872C91.1759 22.3872 93.1038 20.6669 94.2309 16.7814C94.4979 15.8915 94.7055 14.7941 94.7055 14.3195C94.7055 13.3407 94.4979 13.3111 91.3242 13.9636Z" fill="#60A5FA"/>
<path d="M62.672 18.976C62.672 19.2133 62.4348 19.421 62.1678 19.4506C60.4178 19.5693 60.4475 19.5396 60.5068 20.4887C60.5661 21.2006 60.4475 21.4675 60.0026 21.5862C59.2314 21.7938 59.2314 22.5353 60.0322 23.0692C60.4475 23.3658 60.5958 23.7514 60.5365 24.3446C60.4475 25.1455 60.5068 25.2048 61.4263 25.1158C62.0788 25.0861 62.4644 25.2048 62.5534 25.5014C62.7907 26.0946 64.1551 26.0946 64.1551 25.5014C64.1551 25.2641 64.333 25.0565 64.5407 25.0268C64.7186 24.9971 65.1635 24.9675 65.4898 24.9378C65.905 24.9082 66.083 24.7005 66.083 24.137C66.083 23.7217 66.3203 23.1582 66.6169 22.8616C67.2694 22.1794 67.2694 21.9421 66.4686 21.4379C65.905 21.0523 65.8754 20.904 66.172 20.5481C66.6762 19.9252 65.6678 18.9464 65.0745 19.5099C64.7779 19.7769 64.6 19.7176 64.1551 19.1837C63.5322 18.4422 62.672 18.3235 62.672 18.976ZM64.6 21.0523C65.0152 21.4379 65.3415 22.0311 65.3415 22.387C65.3415 23.2472 64.3034 24.1667 63.3246 24.1667C61.5746 24.1667 60.7441 21.9124 62.0788 20.8447C62.9686 20.1031 63.7398 20.1625 64.6 21.0523Z" fill="#60A5FA"/>
<path d="M62.1974 21.616C61.9305 22.2982 62.1678 23.0397 62.761 23.3956C63.5025 23.8702 64.3033 23.277 64.3033 22.2092C64.3033 21.4677 64.1847 21.3491 63.3245 21.2601C62.672 21.2008 62.3161 21.3194 62.1974 21.616Z" fill="#60A5FA"/>
<path d="M51.6382 22.1202C51.5789 22.4762 51.1933 23.0397 50.7484 23.366C50.0366 23.8999 49.8586 23.8999 49.0281 23.5736C48.1383 23.2177 48.0493 23.2473 47.2188 24.0778C46.418 24.8787 46.3587 25.027 46.6849 25.7388C47.1595 26.7473 46.5663 28.26 45.6765 28.3786C45.1129 28.4676 45.0239 28.6752 45.0239 29.8023C45.0239 30.9887 45.1129 31.1371 45.7061 31.226C46.5959 31.3447 47.3375 32.9463 46.9222 33.7472C46.507 34.459 46.8629 35.3489 47.723 35.9124C48.3459 36.3573 48.4942 36.3573 49.1171 35.9421C50.0366 35.3489 51.6086 35.9421 51.7569 36.9802C51.8459 37.5734 52.0238 37.6624 53.2696 37.7514C54.5153 37.8404 54.6636 37.781 54.6636 37.2175C54.6636 36.8616 55.0492 36.387 55.6128 36.0311C56.5026 35.4972 56.6212 35.4972 57.2738 35.9124C57.9263 36.3573 58.0449 36.3277 58.6975 35.7048C59.5873 34.8743 59.8542 34.0438 59.4093 33.5099C58.9051 32.9167 59.7949 30.9887 60.5661 30.9887C61.1 30.9887 61.189 30.8108 61.189 29.654C61.189 28.4379 61.1296 28.3193 60.5068 28.3193C59.35 28.3193 58.6975 26.3024 59.528 25.3829C59.9136 24.9676 59.8246 24.7897 58.7865 23.8999C57.6593 22.9804 57.5704 22.9507 57.0365 23.4253C56.5322 23.8702 56.4136 23.8702 55.5831 23.455C55.0789 23.188 54.6043 22.6541 54.4857 22.2389C54.3374 21.5863 54.1297 21.4974 53.0323 21.4974C51.9348 21.4974 51.7272 21.5863 51.6382 22.1202ZM55.4051 26.2134C58.0153 27.6668 57.867 31.7303 55.1975 33.3616C52.2018 35.2006 48.2273 32.3531 48.9391 28.8828C49.1764 27.6371 50.7781 25.9464 51.9942 25.6498C53.2103 25.3829 54.1891 25.5312 55.4051 26.2134Z" fill="#60A5FA"/>
<path d="M51.757 27.3406C51.2231 27.5482 50.5112 29.0313 50.5112 29.9507C50.5112 30.4253 50.8672 31.0778 51.3714 31.6117C52.4688 32.6795 53.7146 32.7388 54.8713 31.76C56.6806 30.2177 55.4646 27.1033 53.0917 27.1626C52.5578 27.1626 51.9646 27.2516 51.757 27.3406Z" fill="#60A5FA"/>
<path d="M69.9685 21.972C69.3753 22.5652 69.3457 23.6923 69.9389 24.1669C70.6507 24.7601 70.4728 24.9677 68.8711 25.3533C67.2101 25.7686 67.2694 25.5609 67.8923 28.438C68.0999 29.2685 68.0703 29.2982 67.2694 29.0905C65.7567 28.705 64.6889 30.5736 65.816 31.7007C66.4093 32.2939 67.5364 32.3235 68.0109 31.7303C68.5152 31.1075 68.7524 31.3744 69.1974 32.9761C69.405 33.7769 69.6423 34.4888 69.7016 34.6074C69.8202 34.815 72.7566 34.0439 73.1422 33.6879C73.2609 33.5693 73.1719 33.2727 72.9049 33.0651C72.371 32.6202 72.3117 31.5524 72.816 31.0481C73.7651 30.099 75.5744 31.0481 75.2481 32.3532C75.0998 32.8871 75.1888 33.0651 75.5744 33.0651C76.2862 33.0651 78.3921 32.4125 78.3921 32.2049C78.3921 32.1159 78.1845 31.3151 77.9769 30.4549C77.7396 29.6244 77.6506 28.9126 77.7396 28.8829C77.8583 28.8829 78.3328 28.8236 78.8371 28.8236C79.4896 28.7643 79.7862 28.5567 79.9938 27.9931C80.3497 26.9846 80.0828 26.3321 79.1337 25.8872C78.5108 25.6202 78.3032 25.6499 77.7989 26.0948C77.0871 26.7474 76.8498 26.5397 76.3456 24.7898C75.9896 23.5737 75.9303 23.5143 75.0998 23.6923C72.1041 24.3152 72.3414 24.3448 72.5787 23.4254C72.9643 21.9127 71.0956 20.8449 69.9685 21.972Z" fill="#60A5FA"/>
<path d="M82.4259 34.4293C81.8624 34.9632 81.803 36.3573 82.2776 36.8319C82.5446 37.0988 82.5149 37.3657 82.159 37.9293C81.7141 38.5818 81.5658 38.6412 80.7056 38.3742C78.5997 37.781 75.5743 38.4039 75.5743 39.4717C75.5743 39.8869 75.7523 40.0055 76.3158 39.9462C80.2014 39.531 80.2903 39.531 81.3285 40.2428C82.6632 41.1326 83.4047 42.2004 83.731 43.5648C84.4428 46.7385 81.4174 49.8529 78.1844 49.23C76.0489 48.8444 74.2692 46.3233 74.6548 44.247C74.8031 43.4758 75.0404 43.2089 75.9302 42.8826C77.5912 42.3191 79.1336 42.1708 79.8158 42.5267C81.3878 43.3572 81.0319 46.4122 79.3412 46.4122C78.8666 46.4122 78.3031 46.2046 78.0955 45.9673C77.5616 45.3445 77.9472 44.5733 78.748 44.6919C79.7565 44.8402 79.8454 43.8318 78.837 43.5648C78.0065 43.3572 77.0573 43.9801 76.7607 44.9589C76.5531 45.6114 77.2946 47.1537 77.9472 47.4207C79.9641 48.1919 81.9513 46.7385 81.9513 44.5436C81.9513 41.9038 79.8454 40.5988 76.8201 41.3699C75.426 41.7259 75.337 41.6962 74.5658 40.9547C73.943 40.3318 73.4684 40.1835 72.3413 40.1835C71.1549 40.1835 70.9473 40.2725 71.0362 40.6877C71.0956 41.103 71.3625 41.192 72.2227 41.1326C72.8159 41.0733 73.3794 41.1623 73.4684 41.3403C73.587 41.5182 73.4981 42.4377 73.3201 43.4165C73.0235 44.8106 73.0235 45.4334 73.3201 46.3826C73.7057 47.747 75.1294 49.4969 76.2862 50.0901C78.6294 51.2766 81.6547 50.7723 83.4937 48.8741C84.8581 47.48 85.214 46.5309 85.214 44.4546C85.214 42.7047 84.7098 41.3996 83.4937 40.1242C82.8412 39.4123 82.8115 39.2344 83.1081 38.4929C83.2861 38.0479 83.8496 37.4251 84.3242 37.1581C85.0064 36.7725 85.214 36.4463 85.214 35.7641C85.214 34.281 83.4047 33.4209 82.4259 34.4293Z" fill="#60A5FA"/>
<path d="M65.825 34.7149C65.6337 34.9377 65.5195 35.3925 65.5487 35.777C65.616 36.6643 65.318 36.6571 63.9063 35.6935C63.247 35.2378 62.5672 34.9027 62.3897 34.9162C62.0053 34.9454 57.3647 41.6038 57.3984 42.0475C57.4118 42.2249 59.0826 43.4664 61.09 44.8311L64.7864 47.2871L65.7864 45.9618C66.8137 44.6048 66.8643 44.0952 65.9179 44.1671C64.7349 44.2569 64.17 42.6935 65.0513 41.764C65.7937 40.9639 66.7787 41.0082 67.2578 41.8344C67.4667 42.235 67.8168 42.5356 68.0238 42.5199C68.4378 42.4885 69.7819 40.6017 69.7437 40.0989C69.7303 39.9215 69.1508 39.3408 68.4552 38.7987C67.7596 38.2566 67.1869 37.7646 67.1801 37.6759C67.1734 37.5872 67.483 37.3554 67.8858 37.1761C68.432 36.9264 68.587 36.6172 68.5399 35.9961C68.4299 34.5469 66.6722 33.7285 65.825 34.7149Z" fill="#60A5FA"/>
<path d="M68.2185 46.6494C67.655 47.2723 67.566 48.3401 68.0109 48.6367C68.7524 49.0816 68.1592 49.3782 66.5279 49.3782H64.7483V50.9799V52.5815L63.5915 52.4332C62.6127 52.2849 62.3754 52.3739 62.0788 52.9078C61.3966 54.2425 62.672 55.6662 64.0067 55.073C64.9262 54.6578 65.0449 54.8357 65.0449 56.7044V58.2764H66.6465H68.2482L68.0999 57.1196C67.9516 56.1408 68.0406 55.9035 68.5745 55.6069C69.7609 54.984 71.3033 56.0815 70.6507 57.1196C70.1465 57.9204 70.3541 58.2764 71.3626 58.2764C73.4092 58.2764 73.6464 58.0687 73.6464 56.3188C73.6464 54.6874 73.7651 54.5095 74.5066 54.984C75.0108 55.3103 76.1973 54.8357 76.4642 54.2129C76.9388 52.9375 75.0998 51.5137 74.0617 52.3442C73.7058 52.6705 73.6464 52.4629 73.6464 51.0392V49.3782H72.0151H70.3838L70.5617 48.1324C70.7397 47.1536 70.6804 46.8274 70.2355 46.5011C69.4643 45.9672 68.7821 46.0265 68.2185 46.6494Z" fill="#60A5FA"/>
<path d="M32.3257 89.2576C32.1472 90.6095 31.9985 91.751 31.9985 91.8111C31.9985 91.8862 32.9502 91.9312 34.0952 91.9312C36.0283 91.9312 36.1919 91.9463 36.1176 92.1866C36.0878 92.3368 34.4967 96.167 32.5933 100.718L29.1286 108.979L28.8609 110.932C28.7122 112.013 28.5784 113.035 28.5784 113.215V113.561H35.0469C38.6009 113.561 41.5155 113.5 41.5155 113.44C41.5155 113.365 41.6493 112.344 41.8129 111.157C41.9764 109.971 42.1103 108.874 42.1103 108.724C42.1103 108.484 41.9021 108.454 39.6121 108.424L37.1139 108.379L40.9206 99.3062C44.5936 90.5944 44.7423 90.1739 44.9207 88.792C45.0248 87.9959 45.1289 87.2299 45.1735 87.0797C45.2479 86.8393 44.8761 86.8243 38.9578 86.8243H32.6528L32.3257 89.2576ZM40.7422 89.3327C40.5192 89.3628 40.1177 89.3628 39.85 89.3327C39.5823 89.3027 39.7608 89.2726 40.2515 89.2726C40.7422 89.2726 40.9653 89.3027 40.7422 89.3327ZM38.3035 96.2271C37.0098 99.5616 33.6342 107.447 33.545 107.357C33.5153 107.327 34.1547 105.615 34.9726 103.557C36.5637 99.5616 39.4485 92.8024 39.5377 92.8925C39.5675 92.9226 39.0173 94.4246 38.3035 96.2271Z" fill="#284569"/>
<path d="M51.1067 87.0646C48.7275 87.5753 46.839 88.9722 45.9468 90.8648C45.5304 91.751 45.1586 93.4182 44.891 95.6412L44.8166 96.2871H48.4152H52.0287L52.2666 94.8151C52.6235 92.7123 52.7722 92.2466 53.2034 92.0514C54.0659 91.6458 54.2592 92.6522 53.8428 95.5361C53.6347 97.0381 53.4562 97.3686 52.6086 97.7892C52.0882 98.0445 51.6867 98.0896 50.2591 98.0896H48.5342L48.3706 99.2461C48.2665 99.892 48.1624 100.808 48.1029 101.274L48.0137 102.145H49.7535C51.6718 102.145 52.4302 102.355 52.6532 102.926C52.7871 103.317 52.3856 106.606 52.0584 107.688C51.8205 108.469 51.3446 108.859 50.8985 108.604C50.5268 108.409 50.497 107.643 50.7945 105.404L50.9729 103.948H47.3743H43.7757L43.6865 104.428C43.3742 106.14 43.1809 108.799 43.2999 109.565C43.8055 112.674 46.3334 114.011 51.4041 113.816C54.7351 113.681 56.5344 113.125 57.8429 111.803C59.0028 110.632 59.5679 108.934 59.9545 105.435C60.2519 102.821 59.7463 101.529 58.0957 100.718L57.263 100.298L58.0065 100.042C60.014 99.3513 61.0252 97.7141 61.5159 94.2594C61.9917 90.8197 61.8281 89.6181 60.698 88.4615C59.9396 87.6955 58.8987 87.2299 57.3968 86.9745C56.0139 86.7492 52.341 86.8093 51.1067 87.0646ZM57.6645 90.2189C57.9024 90.8648 57.9024 91 57.5901 93.3281C57.1886 96.2571 56.9805 96.9781 56.2964 97.7291L55.776 98.3149L56.1477 97.7741C56.6979 96.9931 56.921 96.197 57.2779 93.7637C57.6496 91.0901 57.6496 90.4893 57.2927 89.7833C57.1143 89.4228 57.0846 89.2726 57.2035 89.3778C57.3225 89.4679 57.5307 89.8584 57.6645 90.2189ZM49.5454 91C49.3967 91.4055 49.2182 92.1565 49.1587 92.6973C49.0546 93.6586 48.8167 94.4246 48.8018 93.8088C48.8018 93.1479 49.129 91.5257 49.3967 90.9249C49.7833 90.0537 49.8725 90.1138 49.5454 91ZM55.8801 102.536C56.1626 103.212 56.1477 104.008 55.7908 106.456C55.4488 108.844 55.0473 109.85 54.1849 110.496L53.6347 110.902L54.1105 110.391C54.8391 109.61 55.1514 108.724 55.4786 106.381C55.8503 103.842 55.8652 102.821 55.5678 102.25C55.4488 102.025 55.434 101.875 55.5083 101.935C55.5975 101.98 55.7611 102.25 55.8801 102.536ZM47.1066 106.155C46.8985 107.387 46.8241 109.325 46.9877 109.79C47.0769 110.046 47.1215 110.256 47.0769 110.256C46.9282 110.256 46.5713 109.19 46.5713 108.724C46.5713 107.793 46.9133 105.6 47.062 105.6C47.1512 105.6 47.1661 105.825 47.1066 106.155Z" fill="#284569"/>
<path d="M85.903 90.8797C81.7096 91.5556 79.7467 94.019 79.7318 98.6302C79.7318 100.718 79.9846 101.529 80.9661 102.505C81.5906 103.136 82.0962 103.437 83.5832 104.098C85.5312 104.954 86.1855 105.449 86.3193 106.185C86.3788 106.441 86.3193 107.372 86.1855 108.258C85.9625 109.91 85.7394 110.406 85.2041 110.406C84.6836 110.406 84.5944 109.835 84.8472 108.003C84.981 107.057 85.0851 106.095 85.0851 105.87V105.449L81.5609 105.479L78.0218 105.525L77.9028 106.351C77.8433 106.801 77.7838 107.823 77.769 108.604C77.7095 112.764 79.5534 114.206 84.9364 114.191C88.2822 114.191 90.2897 113.636 91.6726 112.359C93.1745 110.977 93.9031 108.934 93.918 106.05C93.9329 104.128 93.7693 103.362 93.1596 102.566C92.4607 101.664 91.5388 101.079 89.7544 100.418C87.851 99.6967 87.4049 99.4413 87.1521 98.9607C86.9439 98.5701 87.0777 96.3772 87.3603 95.3858C87.5684 94.6648 88.0145 94.3795 88.4458 94.6949C88.6837 94.8751 88.6986 95.0103 88.5201 96.4523C88.416 97.3084 88.2971 98.2697 88.2525 98.5701L88.1632 99.1409H91.5983C95.5984 99.1409 95.1522 99.4413 95.3009 96.6625C95.405 94.6348 95.1969 93.5984 94.5426 92.7122C93.5463 91.3453 92.1633 90.8647 89.0257 90.7896C87.8064 90.7746 86.3937 90.8046 85.903 90.8797ZM91.5685 94.064C91.6875 94.3043 91.7618 94.6498 91.7321 94.8301C91.6726 95.1154 91.6726 95.1004 91.6429 94.77C91.6429 94.5597 91.4496 94.1091 91.2414 93.7937C91.0183 93.4782 90.9588 93.313 91.0927 93.4332C91.2414 93.5383 91.4496 93.8387 91.5685 94.064ZM84.639 94.1391C83.8658 95.4309 83.4494 97.8942 83.7468 99.3962C83.8955 100.117 84.0442 100.373 84.5944 100.928C84.9661 101.274 85.1297 101.499 84.9661 101.409C84.4011 101.109 83.7765 100.343 83.5237 99.6666C83.1669 98.7354 83.2858 96.5574 83.7468 95.3408C84.0145 94.6198 84.8026 93.4332 85.0256 93.4332C85.0554 93.4332 84.8769 93.7486 84.639 94.1391ZM89.5462 103.767C90.3046 104.698 90.4681 105.99 90.0666 107.898C89.8287 109.039 89.1893 110.571 88.8175 110.917C88.6391 111.082 88.6986 110.887 88.9811 110.286C89.4718 109.31 89.9923 106.936 89.9774 105.825C89.9625 104.593 89.6057 103.872 88.5796 103.076L88.1335 102.731L88.6391 103.001C88.9068 103.151 89.3231 103.497 89.5462 103.767ZM81.3229 109.535C81.2932 109.805 81.2635 109.595 81.2635 109.054C81.2635 108.514 81.2932 108.303 81.3229 108.559C81.3527 108.829 81.3527 109.28 81.3229 109.535Z" fill="#284569"/>
<path d="M73.5161 91.1652C71.9994 91.6909 70.5718 92.9376 69.7837 94.4096L69.4565 95.0104L69.5606 93.0878L69.6647 91.1802H66.6015H63.5531L63.4639 91.5858C63.4192 91.8261 62.7501 96.6627 61.962 102.37C61.1887 108.063 60.5047 112.915 60.4601 113.155L60.3708 113.561H63.9248H67.4788L68.6387 105.104C69.2781 100.463 69.858 96.5425 69.9324 96.4073C70.096 96.1069 70.7056 95.8966 70.9436 96.0618C71.0328 96.1069 71.1071 96.3623 71.1071 96.6026C71.1071 96.8579 70.6016 100.733 69.9919 105.209C69.3822 109.685 68.8766 113.395 68.8766 113.455C68.8766 113.515 70.4677 113.561 72.4157 113.561H75.9548L77.2485 104.143C77.9623 98.9458 78.5422 94.3345 78.5422 93.8839C78.5422 92.9977 78.1705 92.0214 77.7095 91.6008C76.8768 90.8498 74.9734 90.6545 73.5161 91.1652ZM74.676 98.5853C74.2596 102.055 73.0105 109.956 72.9213 109.685C72.847 109.445 73.7689 102.476 74.3637 98.7655C74.676 96.7828 74.9139 94.9203 74.8842 94.6349C74.8247 94.1392 74.8396 94.1392 74.9585 94.5298C75.0626 94.8152 74.9734 96.0618 74.676 98.5853ZM66.0513 99.9822C65.6498 103.212 64.4602 110.496 64.4304 109.971C64.3709 109.054 66.3487 95.5962 66.4676 96.152C66.4825 96.2871 66.3041 97.9995 66.0513 99.9822Z" fill="#284569"/>
</svg>
