<svg width="196" height="196" viewBox="0 0 196 196" fill="none" xmlns="http://www.w3.org/2000/svg">
<path d="M72.736 41.133C69.1729 43.2896 68.7041 48.3998 71.7984 51.7754C73.0642 53.1819 72.0328 53.2288 69.8762 51.916C68.0946 50.8377 66.7819 48.1654 67.0632 46.1963C67.2507 44.9305 67.2507 44.9305 66.4068 45.6806C64.0158 47.8372 64.2971 52.338 67.0632 55.4323L68.4697 57.0732L67.1569 56.6043C65.3285 55.9011 63.8283 54.4008 63.4532 52.9475C63.1719 51.8223 63.0781 51.7754 62.6562 52.5255C61.8123 54.0727 62.7031 56.6981 64.719 58.5265L66.5475 60.2612L64.9066 62.5585C62.5155 65.8871 59.6088 72.2163 58.5305 76.5296C57.7335 79.5301 57.5928 81.4992 57.6866 86.375C57.8272 94.6264 57.3584 95.7047 54.4517 93.7825C53.2327 92.9855 53.2327 92.9855 53.7953 93.97C54.0766 94.5326 54.7799 95.3296 55.3425 95.7047C56.327 96.4079 56.327 96.4548 52.5295 102.175C47.4192 109.91 47.4661 111.129 52.8577 113.004C56.4676 114.223 57.124 115.067 56.2332 117.177C55.905 118.021 55.53 119.052 55.3893 119.474C55.1549 120.224 56.0457 121.397 57.4522 122.147C58.1085 122.522 58.0617 122.709 57.1709 123.6C55.7644 125.006 55.905 125.71 58.0617 127.819L59.937 129.695L59.6557 133.586C59.4213 136.915 59.515 137.665 60.312 138.931C61.9998 141.603 63.922 142.119 73.1111 142.4C82.4877 142.681 83.2847 142.916 84.5036 146.244C84.9256 147.37 85.3944 149.948 85.5819 152.011L85.957 155.762H98.381H110.805L110.946 139.071L111.039 122.428L104.71 117.318L98.381 112.207V108.316C98.381 105.972 98.5685 104.425 98.8498 104.425C99.1311 104.425 99.553 103.909 99.8812 103.253C101.147 100.44 96.9745 98.3301 95.2867 100.909C94.5834 101.987 94.5834 102.175 95.5211 103.722C96.2712 105.034 96.5056 106.206 96.5056 109.019V112.676L98.8498 114.974L101.194 117.271V122.053C101.194 125.71 101.335 126.929 101.897 127.398C102.741 128.101 102.835 129.789 102.038 130.586C101.1 131.523 99.4124 131.242 98.5685 129.976C97.9121 128.945 97.8652 128.663 98.4747 127.726C98.8967 127.163 99.3186 124.866 99.5061 122.428L99.7874 118.162L96.8807 115.677C91.9111 111.504 92.2862 112.536 92.2862 102.55V93.7356L88.3011 90.1725L84.2692 86.6094H78.7839H73.2986L72.2672 85.1091L71.1889 83.6089L72.2203 82.5306C73.0642 81.6398 73.158 81.2179 72.7829 80.1864C72.5485 79.5301 72.0328 78.78 71.6108 78.4986C70.4856 77.7954 68.6103 78.4986 67.954 79.8583C67.4382 80.9834 67.5789 81.3585 69.5949 84.359C70.8138 86.1406 72.1734 87.7815 72.6422 88.0159C73.1111 88.2972 75.7365 88.4847 78.5495 88.4847H83.6128L86.3321 90.9695L89.0044 93.4543V99.7835C89.0044 103.862 89.1919 106.3 89.5201 106.628C90.2233 107.332 89.7076 109.394 88.7231 109.77C86.6133 110.567 84.8787 108.035 86.3789 106.347C86.9884 105.691 87.1291 104.425 87.1291 99.9241V94.2982L85.3475 92.5635L83.566 90.8289H77.9869C71.2826 90.8289 69.548 90.4069 67.5789 88.3909C63.6407 84.3121 63.7345 78.9206 67.8602 70.4348C71.8921 62.2303 79.5809 56.1355 89.8014 52.9943C93.5051 51.8692 94.7241 51.7754 101.428 51.7285C110.008 51.6816 113.43 52.3849 120.275 55.7136C138.747 64.5744 146.623 87.2658 137.528 105.363C135.184 110.004 132.887 112.583 126.37 118.021L120.416 122.944V131.429C120.416 137.899 120.557 140.243 121.072 141.228C121.963 142.963 121.4 144.463 119.76 144.65C119.056 144.744 118.166 144.557 117.79 144.228C116.947 143.525 116.947 141.744 117.837 140.994C118.4 140.525 118.541 138.837 118.541 131.383V122.381L121.025 120.318C122.338 119.193 124.682 117.13 126.183 115.724L128.855 113.192V109.957C128.855 107.566 128.714 106.769 128.198 106.769C127.589 106.769 126.98 108.973 126.98 111.457C126.98 112.629 124.495 114.645 115.728 120.74L113.149 122.522L113.008 138.181C112.962 146.807 113.008 154.355 113.149 154.918L113.383 155.996H124.167C130.121 155.996 134.95 155.855 134.95 155.715C134.95 155.574 134.246 153.511 133.356 151.12C130.965 144.697 130.121 140.243 130.355 135.461C130.636 130.023 132.09 126.647 136.872 120.131C142.638 112.301 144.842 107.285 146.483 98.5645C147.561 92.6573 147.186 84.2184 145.592 78.0298C142.451 66.0278 134.903 56.6981 123.932 51.119C112.774 45.4462 100.772 44.4617 86.1445 47.9779C81.2687 49.1499 81.0812 49.1968 78.5495 48.4467C74.2363 47.1809 72.6422 43.8522 75.1739 41.3674L76.2991 40.1953H75.2677C74.7051 40.1953 73.5799 40.6173 72.736 41.133Z" fill="#60A5FA"/>
<path d="M101.663 54.4946C101.663 54.8697 101.288 55.1978 100.866 55.2447C98.0995 55.4323 98.1464 55.3854 98.2401 56.8856C98.3339 58.0108 98.1464 58.4328 97.4431 58.6203C96.2242 58.9485 96.2242 60.1206 97.49 60.9644C98.1464 61.4333 98.3808 62.0428 98.287 62.9804C98.1464 64.2462 98.2401 64.34 99.6935 64.1994C100.725 64.1525 101.334 64.34 101.475 64.8088C101.85 65.7465 104.007 65.7465 104.007 64.8088C104.007 64.4338 104.288 64.1056 104.616 64.0587C104.897 64.0118 105.601 63.9649 106.116 63.9181C106.773 63.8712 107.054 63.543 107.054 62.6522C107.054 61.9959 107.429 61.1051 107.898 60.6363C108.929 59.558 108.929 59.1829 107.664 58.3859C106.773 57.7764 106.726 57.542 107.195 56.9794C107.992 55.9949 106.398 54.4477 105.46 55.3385C104.991 55.7604 104.71 55.6667 104.007 54.8228C103.022 53.6507 101.663 53.4632 101.663 54.4946ZM104.71 57.7764C105.366 58.3859 105.882 59.3235 105.882 59.8861C105.882 61.2457 104.241 62.6991 102.694 62.6991C99.9279 62.6991 98.6152 59.136 100.725 57.4482C102.131 56.2762 103.35 56.3699 104.71 57.7764Z" fill="#60A5FA"/>
<path d="M100.912 58.6671C100.49 59.7454 100.865 60.9174 101.803 61.48C102.975 62.2302 104.241 61.2925 104.241 59.6047C104.241 58.4326 104.053 58.2451 102.694 58.1045C101.662 58.0107 101.1 58.1982 100.912 58.6671Z" fill="#60A5FA"/>
<path d="M84.222 59.4641C84.1282 60.0266 83.5187 60.9174 82.8155 61.4331C81.6903 62.277 81.409 62.277 80.0963 61.7613C78.6898 61.1987 78.5491 61.2456 77.2364 62.5583C75.9706 63.8242 75.8768 64.0586 76.3925 65.1838C77.1427 66.7778 76.205 69.1688 74.7985 69.3563C73.9077 69.497 73.7671 69.8252 73.7671 71.6067C73.7671 73.482 73.9077 73.7165 74.8454 73.8571C76.2519 74.0446 77.424 76.5763 76.7676 77.8422C76.1112 78.9673 76.6738 80.3738 78.0334 81.2646C79.018 81.9678 79.2524 81.9678 80.2369 81.3115C81.6903 80.3738 84.1751 81.3115 84.4095 82.9524C84.5502 83.89 84.8315 84.0307 86.8005 84.1713C88.7696 84.312 89.004 84.2182 89.004 83.3275C89.004 82.7649 89.6135 82.0147 90.5043 81.4521C91.9108 80.6082 92.0983 80.6082 93.1297 81.2646C94.1612 81.9678 94.3487 81.921 95.3801 80.9364C96.7866 79.6237 97.2085 78.311 96.5053 77.4671C95.7083 76.5294 97.1148 73.482 98.3337 73.482C99.1776 73.482 99.3183 73.2007 99.3183 71.3723C99.3183 69.4501 99.2245 69.2626 98.24 69.2626C96.4115 69.2626 95.3801 66.0745 96.6928 64.6212C97.3023 63.9648 97.1617 63.6835 95.5208 62.277C93.7392 60.8237 93.5986 60.7768 92.7547 61.5269C91.9577 62.2301 91.7701 62.2301 90.4574 61.5738C89.6604 61.1518 88.9103 60.3079 88.7227 59.6516C88.4883 58.6202 88.1601 58.4795 86.4255 58.4795C84.6908 58.4795 84.3626 58.6202 84.222 59.4641ZM90.1761 65.9339C94.3018 68.2312 94.0674 74.6541 89.8479 77.2327C85.1128 80.1394 78.8304 75.6387 79.9556 70.1534C80.3307 68.1843 82.8624 65.5119 84.7846 65.0431C86.7068 64.6212 88.2539 64.8556 90.1761 65.9339Z" fill="#60A5FA"/>
<path d="M84.4096 67.7156C83.5657 68.0438 82.4406 70.3879 82.4406 71.8413C82.4406 72.5914 83.0031 73.6229 83.8002 74.4667C85.5348 76.1545 87.5039 76.2483 89.3323 74.7012C92.1922 72.2633 90.27 67.3405 86.5194 67.4343C85.6755 67.4343 84.7378 67.575 84.4096 67.7156Z" fill="#60A5FA"/>
<path d="M113.196 59.2298C112.258 60.1674 112.211 61.949 113.149 62.6991C114.274 63.6368 113.993 63.9649 111.461 64.5744C108.836 65.2308 108.929 64.9026 109.914 69.4502C110.242 70.763 110.195 70.8098 108.929 70.4817C106.538 69.8722 104.851 72.8258 106.632 74.6074C107.57 75.545 109.351 75.5919 110.101 74.6542C110.898 73.6697 111.274 74.0917 111.977 76.6233C112.305 77.8892 112.68 79.0144 112.774 79.2019C112.961 79.5301 117.603 78.3111 118.212 77.7485C118.4 77.561 118.259 77.0922 117.837 76.764C116.993 76.0607 116.899 74.3729 117.696 73.5759C119.197 72.0757 122.057 73.5759 121.541 75.6388C121.306 76.4827 121.447 76.764 122.057 76.764C123.182 76.764 126.51 75.7326 126.51 75.4044C126.51 75.2637 126.182 73.9979 125.854 72.6383C125.479 71.3256 125.338 70.2004 125.479 70.1535C125.667 70.1535 126.417 70.0597 127.214 70.0597C128.245 69.966 128.714 69.6378 129.042 68.747C129.605 67.153 129.183 66.1216 127.683 65.4183C126.698 64.9964 126.37 65.0433 125.573 65.7465C124.448 66.7779 124.073 66.4497 123.276 63.6836C122.713 61.7614 122.619 61.6677 121.306 61.949C116.571 62.9335 116.946 62.9804 117.321 61.527C117.931 59.136 114.977 57.4482 113.196 59.2298Z" fill="#60A5FA"/>
<path d="M132.886 78.9206C131.996 79.7644 131.902 81.9679 132.652 82.7181C133.074 83.14 133.027 83.562 132.464 84.4527C131.761 85.4842 131.527 85.5779 130.167 85.156C126.838 84.2183 122.056 85.2029 122.056 86.8906C122.056 87.547 122.338 87.7345 123.228 87.6408C129.37 86.9844 129.511 86.9844 131.152 88.1096C133.261 89.5161 134.434 91.2039 134.949 93.3605C136.074 98.377 131.292 103.3 126.182 102.315C122.807 101.706 119.994 97.7206 120.603 94.4388C120.837 93.2198 121.213 92.7979 122.619 92.2822C125.244 91.3914 127.682 91.157 128.761 91.7196C131.245 93.0323 130.683 97.8612 128.011 97.8612C127.26 97.8612 126.37 97.5331 126.041 97.158C125.198 96.1735 125.807 94.9545 127.073 95.142C128.667 95.3765 128.808 93.7824 127.214 93.3605C125.901 93.0323 124.401 94.0168 123.932 95.564C123.604 96.5954 124.776 99.0333 125.807 99.4553C128.995 100.674 132.136 98.377 132.136 94.9076C132.136 90.735 128.808 88.6722 124.025 89.8912C121.822 90.4537 121.681 90.4069 120.462 89.2348C119.478 88.2502 118.728 88.0158 116.946 88.0158C115.071 88.0158 114.743 88.1565 114.883 88.8128C114.977 89.4692 115.399 89.6099 116.759 89.5161C117.696 89.4223 118.587 89.563 118.728 89.8443C118.915 90.1256 118.775 91.5789 118.493 93.1261C118.024 95.3296 118.024 96.3141 118.493 97.8144C119.103 99.971 121.353 102.737 123.182 103.675C126.885 105.55 131.667 104.753 134.574 101.753C136.731 99.549 137.293 98.0488 137.293 94.767C137.293 92.0009 136.496 89.938 134.574 87.9221C133.543 86.7969 133.496 86.5156 133.965 85.3435C134.246 84.6403 135.137 83.6557 135.887 83.2338C136.965 82.6243 137.293 82.1086 137.293 81.0303C137.293 78.6861 134.434 77.3265 132.886 78.9206Z" fill="#60A5FA"/>
<path d="M106.646 79.3718C106.344 79.7239 106.163 80.4428 106.209 81.0506C106.316 82.453 105.845 82.4418 103.613 80.9185C102.571 80.1983 101.497 79.6687 101.216 79.69C100.609 79.7361 93.2735 90.2607 93.3268 90.9619C93.3481 91.2424 95.989 93.2048 99.1619 95.3618L105.005 99.2439L106.585 97.1491C108.209 95.0041 108.289 94.1987 106.793 94.3123C104.923 94.4543 104.03 91.9831 105.423 90.5138C106.597 89.2493 108.154 89.3192 108.911 90.6252C109.241 91.2584 109.795 91.7336 110.122 91.7087C110.776 91.659 112.901 88.6767 112.84 87.882C112.819 87.6015 111.903 86.6836 110.804 85.8267C109.704 84.9698 108.799 84.1923 108.788 84.052C108.778 83.9118 109.267 83.5455 109.904 83.2621C110.767 82.8674 111.012 82.3786 110.938 81.3969C110.764 79.1062 107.985 77.8126 106.646 79.3718Z" fill="#60A5FA"/>
<path d="M110.43 98.2362C109.539 99.2207 109.398 100.908 110.101 101.377C111.273 102.081 110.336 102.549 107.757 102.549H104.944V105.081V107.613L103.116 107.378C101.569 107.144 101.194 107.285 100.725 108.128C99.6465 110.238 101.662 112.489 103.772 111.551C105.226 110.895 105.413 111.176 105.413 114.129V116.614H107.945H110.476L110.242 114.786C110.008 113.239 110.148 112.864 110.992 112.395C112.867 111.41 115.305 113.145 114.274 114.786C113.477 116.052 113.805 116.614 115.399 116.614C118.634 116.614 119.009 116.286 119.009 113.52C119.009 110.941 119.197 110.66 120.369 111.41C121.166 111.926 123.041 111.176 123.463 110.191C124.213 108.175 121.306 105.925 119.666 107.238C119.103 107.753 119.009 107.425 119.009 105.175V102.549H116.431H113.852L114.133 100.58C114.415 99.0332 114.321 98.5175 113.618 98.0017C112.399 97.1578 111.32 97.2516 110.43 98.2362Z" fill="#60A5FA"/>
</svg>
