<svg width="24" height="28" viewBox="0 0 24 28" fill="none" xmlns="http://www.w3.org/2000/svg">
<path d="M17.8287 26.29C16.7787 24.125 16.5487 21.775 16.9337 19.29C25.0437 11.905 22.0987 0.185002 10.8337 0.260002C5.09374 0.450002 2.22374 3.145 2.31874 8.43C2.35874 11.025 1.14874 11.905 0.318744 13.22C0.108744 13.555 0.273744 14.015 0.658744 14.115C0.928744 14.185 1.35374 14.335 1.80374 14.41C1.99374 14.44 2.09374 14.655 1.98374 14.815L1.30374 15.85C1.17374 16.05 1.18874 16.315 1.34874 16.495L2.04374 16.885C2.20874 16.98 2.23374 17.21 2.08874 17.33L1.44374 17.875C1.33374 18.075 1.36374 18.32 1.51874 18.485C2.15374 19.15 2.40874 19.825 2.19374 20.505C2.01374 21.08 2.32374 21.725 2.86874 21.985C4.25874 22.66 6.31874 21.565 7.55874 22.915C7.98374 24.305 8.21874 25.625 8.17874 26.845C11.9137 28.14 15.1787 28.095 17.8287 26.29Z" fill="#F9C6A0"/>
<path d="M18.1437 9.40998C18.0262 9.56882 17.874 9.69877 17.6987 9.78998C17.4837 10.68 16.4587 11.285 15.5087 11.05C14.9887 11.615 13.9537 11.655 13.4087 11.085C13.0687 11.355 12.6537 11.5 12.2087 11.46C11.4437 11.395 10.8587 10.86 10.7737 10.155C10.4737 10.26 10.1087 10.27 9.80872 10.155C9.46372 10.65 8.85372 10.965 8.16872 10.905C7.57872 10.855 7.08372 10.54 6.81872 10.1V10.095C6.75488 10.0105 6.70585 9.91585 6.67372 9.81498C6.55872 9.86998 6.44372 9.90998 6.31872 9.92998V9.93498C5.51872 10.115 4.64872 9.53498 4.60372 8.74498C4.42872 8.62998 4.29872 8.45998 4.26372 8.24498C3.97372 6.54498 4.52372 5.17998 6.54372 4.37498H6.54872C6.64372 4.33498 6.73872 4.29498 6.84372 4.25998C7.37872 3.39498 8.40872 2.90498 9.53872 3.00998C10.7087 2.04998 12.0337 1.67998 13.3637 2.69998H13.3687C13.4937 2.78998 13.6087 2.88498 13.7337 2.99998C15.5037 2.70498 16.9037 3.34998 17.1937 4.92998C18.7987 5.96498 19.1237 8.09498 18.1437 9.40998Z" fill="#FF99AA"/>
<path d="M18.0137 16.845C17.985 16.9056 17.9397 16.9568 17.8831 16.9927C17.8264 17.0285 17.7608 17.0476 17.6937 17.0476C17.6267 17.0476 17.561 17.0285 17.5043 16.9927C17.4477 16.9568 17.4024 16.9056 17.3737 16.845C16.1187 14.295 11.6087 14.785 11.6087 18.315C11.6387 21.595 13.3787 23.905 17.6937 26.245C22.0087 23.905 23.7487 21.595 23.7787 18.315C23.7787 14.79 19.2687 14.3 18.0137 16.845Z" fill="#DA0C81"/>
<path d="M20.4537 19.6H18.8437V17.99H16.5437V19.6H14.9387V21.895H16.5437V23.5H18.8437V21.895H20.4537V19.6Z" fill="#E6F0F4"/>
<path d="M13.3937 11.43C13.6949 11.6561 14.062 11.7773 14.4387 11.775C14.8637 11.775 15.2687 11.625 15.5787 11.35C15.6237 11.36 15.6637 11.365 15.7087 11.37C16.6887 11.455 17.6137 10.865 17.8887 9.985C18.0637 9.885 18.2137 9.745 18.3287 9.58C18.5798 9.22064 18.7576 8.81532 18.8519 8.38722C18.9463 7.95912 18.9554 7.51662 18.8787 7.085C18.7187 6.18 18.1887 5.365 17.3887 4.79C16.9987 3.185 15.7887 2.495 13.7987 2.745C12.4387 1.53 11.0187 1.54 9.45869 2.765C8.24369 2.715 7.33869 3.14 6.69369 4.065C4.57369 4.835 3.67869 6.265 4.03369 8.31C4.07369 8.545 4.19869 8.75 4.38369 8.905C4.49369 9.615 5.10869 10.17 5.88369 10.235C6.10869 10.255 6.33869 10.23 6.55369 10.16C6.85869 10.73 7.46369 11.125 8.15369 11.185C8.82869 11.245 9.4837 10.97 9.8987 10.47C9.9787 10.49 10.0587 10.5 10.1337 10.51C10.2787 10.525 10.4337 10.515 10.5787 10.49C10.7737 11.17 11.4087 11.675 12.1787 11.74C12.6137 11.77 13.0387 11.66 13.3937 11.43ZM11.0137 10.15C10.9987 10.045 10.6837 8.2 12.2387 7.8C12.5487 7.73 12.4337 7.24 12.1237 7.32C11.6237 7.445 11.2637 7.69 11.0137 8C10.8987 7.515 10.5137 7.165 9.98369 7.125C8.93869 7.02 8.55369 7.59 8.49369 7.905C8.43369 8.21 8.9087 8.305 8.9737 8C8.9837 7.95 9.1037 7.53 9.9337 7.615C10.6637 7.585 10.5787 8.69 10.5787 8.895C10.4787 9.28 10.4687 9.665 10.4937 9.985C10.2737 10.025 10.0987 10.015 9.87369 9.94C9.82305 9.92309 9.76827 9.92323 9.71771 9.94038C9.66715 9.95753 9.62359 9.99077 9.5937 10.035C9.2887 10.48 8.7537 10.725 8.1837 10.68C7.6487 10.635 7.18369 10.33 6.96369 9.885C6.9919 9.84206 7.0059 9.79133 7.00369 9.74C7.00369 9.735 6.97369 9.19 7.35869 8.99C7.64369 8.845 7.41369 8.4 7.13369 8.555C6.62369 8.82 6.5337 9.36 6.5187 9.625C6.3237 9.705 6.11869 9.745 5.91369 9.73C5.41369 9.685 5.0137 9.37 4.8887 8.945C5.2637 8.84 5.9287 8.54 6.1437 7.68C6.2237 7.37 5.73869 7.25 5.66869 7.56C5.49369 8.255 4.9137 8.445 4.6837 8.495C4.5987 8.415 4.5337 8.325 4.5137 8.215C4.2037 6.42 4.92369 5.255 6.75869 4.555C7.16369 5.135 7.05369 5.71 6.41869 6.355C6.18869 6.58 6.5437 6.93 6.7637 6.705C6.8887 6.58 6.99369 6.455 7.08369 6.335C7.23869 6.67 7.5287 6.97 8.0537 7.01C8.6237 7.055 9.2037 6.8 9.4637 6.365C9.6187 6.11 9.80869 5.565 9.33369 4.785C9.16869 4.51 8.74869 4.77 8.91369 5.04C9.16869 5.46 9.21369 5.83 9.04369 6.105C8.87369 6.385 8.4987 6.545 8.0887 6.515C7.4637 6.47 7.42369 5.815 7.42369 5.67C7.58869 5.11 7.41369 4.63 7.15369 4.26C7.71369 3.515 8.4687 3.185 9.5137 3.255C9.9937 3.305 10.3537 3.49 10.6137 3.83C10.8037 4.085 11.1987 3.78 11.0037 3.53C10.7737 3.23 10.4737 3.02 10.1137 2.89C11.3537 2.06 12.4237 2.145 13.5237 3.155C13.8337 3.675 13.7887 4.11 13.3737 4.525C13.1437 4.745 13.4937 5.105 13.7187 4.875C14.2137 4.385 14.3387 3.81 14.0987 3.21C15.4487 3.095 16.3187 3.485 16.7387 4.4C16.3687 4.275 15.9837 4.295 15.6037 4.475C15.3137 4.61 15.5287 5.06 15.8137 4.92C16.2337 4.72 16.6137 4.785 17.0187 5.12C17.0237 5.125 17.0237 5.125 17.0287 5.125C17.0337 5.125 17.0337 5.13 17.0387 5.135C17.7737 5.64 18.2587 6.365 18.3987 7.165C18.5287 7.91 18.3587 8.685 17.9337 9.29C17.8637 9.39 17.7637 9.47 17.6587 9.535C17.4487 9.44 16.9487 9.155 17.0237 8.49C17.0637 8.175 16.5737 8.115 16.5387 8.435C16.4437 9.255 16.9587 9.735 17.3787 9.945C17.1187 10.58 16.3487 11 15.6037 10.85C15.4487 10.735 14.7937 10.215 14.9137 9.6C14.9787 9.285 14.4887 9.195 14.4337 9.51C14.2987 10.225 14.7937 10.795 15.1187 11.085C14.7187 11.35 14.1437 11.35 13.7487 11.075C13.9137 10.79 14.0237 10.35 13.7287 9.89C13.5587 9.62 13.1387 9.895 13.3187 10.16C13.7087 11.035 12.8287 11.255 12.2337 11.245C11.5837 11.19 11.0787 10.73 11.0137 10.15Z" fill="black"/>
<path d="M12.0737 4.32994C11.8287 4.36994 11.0237 4.53994 10.9437 5.04494C10.9337 5.11494 10.8337 5.97994 10.7587 6.05494C10.4437 6.09494 10.5137 6.59494 10.8287 6.54494C11.2737 6.47994 11.3487 5.84994 11.4037 5.34494C11.4137 5.25994 11.4237 5.18494 11.4287 5.12494C11.4487 5.03994 11.7887 4.88494 12.1537 4.82494C12.4687 4.76994 12.3837 4.27494 12.0737 4.32994ZM13.9237 8.17494C14.0837 8.17994 14.2087 8.01494 14.1587 7.85994C14.0387 7.52994 14.3887 7.34494 14.8637 7.16994C15.2987 7.71994 16.0487 7.69994 16.5837 7.26494C16.9487 6.97494 17.1237 6.57994 17.0487 6.20494C16.9887 5.88994 16.5037 5.98994 16.5687 6.29994C16.6137 6.51994 16.4487 6.74494 16.2837 6.87494C16.0287 7.07494 15.7037 7.14994 15.4937 7.04994C15.0837 6.85994 14.7637 6.05494 14.6787 5.75994C14.5937 5.45494 14.1137 5.59494 14.2087 5.89994C14.2287 5.97494 14.3537 6.36494 14.5787 6.74994C14.1887 6.90494 13.4637 7.21494 13.6937 7.99494C13.7187 8.10494 13.8137 8.17494 13.9237 8.17494Z" fill="black"/>
<path d="M24.0037 18.37C24.0037 16.41 22.7287 15.41 21.5337 15.13C21.1787 15.05 20.8287 15.025 20.4887 15.045C22.2137 11.53 22.1987 7.705 20.4187 4.74C18.5837 1.68 15.2237 0 10.9337 0H10.8237C4.93372 0.195 1.99372 3.035 2.08872 8.45C2.11872 10.405 1.43872 11.315 0.718715 12.28C0.518715 12.55 0.313715 12.825 0.128715 13.12C-0.171285 13.575 0.0787153 14.265 0.613715 14.39C0.683715 14.41 1.43872 14.635 1.79872 14.715L1.11372 15.755C0.918715 16.05 0.948715 16.435 1.17872 16.7C1.19872 16.72 1.94372 17.185 1.94372 17.185C1.94372 17.185 1.25871 17.775 1.24371 17.8C1.08371 18.1 1.12872 18.46 1.35372 18.7C1.94872 19.325 2.14871 19.91 1.97371 20.485C1.75871 21.165 2.11372 21.945 2.77372 22.27C3.41372 22.58 4.15872 22.55 4.87872 22.52C5.81872 22.485 6.70372 22.445 7.34372 23.105C7.77872 24.555 7.97372 25.805 7.93372 26.915C7.92872 27.025 7.99872 27.12 8.09872 27.155C9.69872 27.715 11.2337 27.99 12.6737 27.99C14.6387 27.99 16.4287 27.47 17.9737 26.44C22.2137 24.1 23.9737 21.75 24.0037 18.37ZM8.43372 26.755C8.44872 25.62 8.23872 24.365 7.79872 22.915C7.78845 22.8793 7.76956 22.8467 7.74371 22.82C6.94871 21.95 5.84371 21.995 4.86371 22.035C4.17371 22.06 3.51872 22.09 2.98872 21.83C2.53872 21.61 2.29872 21.09 2.43872 20.64C2.67372 19.89 2.42872 19.125 1.70872 18.37C1.67467 18.3319 1.65158 18.2853 1.64189 18.2351C1.63221 18.1849 1.6363 18.133 1.65372 18.085L2.25872 17.575C2.53372 17.355 2.48872 16.885 2.17872 16.725L1.52372 16.36C1.49194 16.3127 1.47498 16.257 1.47498 16.2C1.47498 16.143 1.49194 16.0873 1.52372 16.04L2.20872 15C2.41372 14.705 2.21872 14.26 1.86372 14.215C1.54872 14.165 0.818715 13.945 0.743715 13.925C0.523715 13.875 0.418715 13.58 0.548715 13.395C0.723715 13.115 0.913715 12.86 1.11871 12.585C1.85371 11.595 2.61872 10.57 2.58372 8.45C2.48872 3.285 5.19372 0.685 10.8387 0.5C14.9887 0.495 18.2437 2.07 20.0037 5.005C21.7487 7.915 21.7037 11.695 19.9037 15.14C18.9887 15.355 18.2037 15.94 17.7887 16.795C17.7337 16.905 17.6487 16.91 17.5887 16.795C16.9337 15.46 15.3937 14.78 13.8387 15.14C12.6437 15.42 11.3687 16.415 11.3687 18.38C11.3987 21.705 13.1037 24.035 17.2137 26.35C14.7887 27.735 11.7687 27.88 8.43372 26.755ZM17.6837 26.05C13.5737 23.79 11.8837 21.555 11.8537 18.37C11.8537 16.95 12.6337 15.92 13.9437 15.61C15.1437 15.345 16.5237 15.76 17.1437 17C17.3437 17.445 18.0187 17.445 18.2187 17C18.8337 15.74 20.2937 15.345 21.4187 15.61C22.7287 15.915 23.5087 16.945 23.5087 18.365C23.4837 21.555 21.7937 23.79 17.6837 26.05Z" fill="black"/>
<path d="M20.4337 19.41H19.0737V18.045C19.0737 17.9801 19.0479 17.9178 19.002 17.8718C18.956 17.8259 18.8937 17.8 18.8287 17.8H16.5337C16.4687 17.8 16.4064 17.8259 16.3605 17.8718C16.3145 17.9178 16.2887 17.9801 16.2887 18.045V19.41H14.9287C14.8965 19.41 14.8647 19.4164 14.835 19.4287C14.8052 19.441 14.7782 19.4591 14.7555 19.4818C14.7327 19.5046 14.7147 19.5316 14.7024 19.5613C14.6901 19.591 14.6837 19.6229 14.6837 19.6551V21.96C14.6837 22.095 14.7937 22.205 14.9287 22.205H16.2887V23.57C16.2887 23.705 16.3987 23.8151 16.5337 23.8151H18.8287C18.9637 23.8151 19.0737 23.705 19.0737 23.57V22.205H20.4337C20.5687 22.205 20.6787 22.095 20.6787 21.96V19.6551C20.6787 19.6229 20.6724 19.591 20.6601 19.5613C20.6478 19.5316 20.6297 19.5046 20.607 19.4818C20.5842 19.4591 20.5572 19.441 20.5275 19.4287C20.4977 19.4164 20.4659 19.41 20.4337 19.41ZM20.1887 21.715H18.8287C18.7965 21.715 18.7647 21.7214 18.735 21.7337C18.7052 21.746 18.6782 21.7641 18.6555 21.7868C18.6327 21.8096 18.6147 21.8366 18.6024 21.8663C18.5901 21.896 18.5837 21.9279 18.5837 21.96V23.3251H16.7787V21.96C16.7787 21.8951 16.7529 21.8328 16.707 21.7868C16.661 21.7409 16.5987 21.715 16.5337 21.715H15.1737V19.9051H16.5337C16.6687 19.9051 16.7787 19.795 16.7787 19.66V18.295H18.5837V19.66C18.5837 19.795 18.6937 19.9051 18.8287 19.9051H20.1887V21.715Z" fill="black"/>
</svg>
