<svg width="32" height="32" viewBox="0 0 32 32" fill="none" xmlns="http://www.w3.org/2000/svg">
<rect width="32" height="32" rx="16" fill="#60A5FA"/>
<path d="M9.66632 22.3335H22.3338C22.9088 22.3335 23.4044 21.9273 23.5176 21.3629L25.3501 12.2004C25.5688 11.1035 24.3082 10.3241 23.4251 11.0104L20.9032 12.9723C20.6583 13.1627 20.3495 13.2516 20.0409 13.2204C19.7323 13.1892 19.4475 13.0403 19.2457 12.8048L16.9163 10.0879C16.4351 9.52539 15.5651 9.52539 15.0832 10.0879L12.7544 12.8048C12.3357 13.2941 11.6057 13.3673 11.0969 12.9723L8.57507 11.0104C7.69194 10.3235 6.43132 11.1035 6.65007 12.2004L8.48257 21.3629C8.59569 21.9273 9.09132 22.3335 9.66632 22.3335Z" fill="#FDFDFD"/>
</svg>
