<svg width="24" height="24" viewBox="0 0 24 24" fill="none" xmlns="http://www.w3.org/2000/svg">
<path d="M17 3.66667C18.8383 3.66667 20.3333 5.16167 20.3333 7V17C20.3333 18.8383 18.8383 20.3333 17 20.3333H7C5.16167 20.3333 3.66667 18.8383 3.66667 17V7C3.66667 5.16167 5.16167 3.66667 7 3.66667H17ZM17 2H7C5.67392 2 4.40215 2.52678 3.46447 3.46447C2.52678 4.40215 2 5.67392 2 7L2 17C2 18.3261 2.52678 19.5979 3.46447 20.5355C4.40215 21.4732 5.67392 22 7 22H17C18.3261 22 19.5979 21.4732 20.5355 20.5355C21.4732 19.5979 22 18.3261 22 17V7C22 5.67392 21.4732 4.40215 20.5355 3.46447C19.5979 2.52678 18.3261 2 17 2Z" fill="#FDFDFD"/>
<path d="M12.0001 17C11.7791 17 11.5671 16.9122 11.4108 16.7559C11.2545 16.5996 11.1667 16.3877 11.1667 16.1667V7.83333C11.1667 7.61232 11.2545 7.40036 11.4108 7.24408C11.5671 7.0878 11.7791 7 12.0001 7C12.2211 7 12.4331 7.0878 12.5893 7.24408C12.7456 7.40036 12.8334 7.61232 12.8334 7.83333V16.1667C12.8334 16.3877 12.7456 16.5996 12.5893 16.7559C12.4331 16.9122 12.2211 17 12.0001 17Z" fill="#FDFDFD"/>
<path d="M7 12.0001C7 11.7791 7.0878 11.5671 7.24408 11.4108C7.40036 11.2545 7.61232 11.1667 7.83333 11.1667H16.1667C16.3877 11.1667 16.5996 11.2545 16.7559 11.4108C16.9122 11.5671 17 11.7791 17 12.0001C17 12.2211 16.9122 12.4331 16.7559 12.5893C16.5996 12.7456 16.3877 12.8334 16.1667 12.8334H7.83333C7.61232 12.8334 7.40036 12.7456 7.24408 12.5893C7.0878 12.4331 7 12.2211 7 12.0001Z" fill="#FDFDFD"/>
</svg>
