<svg width="32" height="32" viewBox="0 0 32 32" fill="none" xmlns="http://www.w3.org/2000/svg">
<rect x="0.5" y="0.5" width="31" height="31" rx="7.5" fill="#FDFDFD"/>
<rect x="0.5" y="0.5" width="31" height="31" rx="7.5" stroke="#CEE3FD"/>
<path d="M11.2908 15.1667H8.5C8.27899 15.1667 8.06702 15.2545 7.91074 15.4107C7.75446 15.567 7.66667 15.779 7.66667 16V18.5H6V16C6 15.337 6.26339 14.7011 6.73223 14.2322C7.20107 13.7634 7.83696 13.5 8.5 13.5H12.2808C11.8449 13.9854 11.5085 14.5516 11.2908 15.1667ZM23.5 13.5H19.7192C20.1551 13.9854 20.4915 14.5516 20.7092 15.1667H23.5C23.721 15.1667 23.933 15.2545 24.0893 15.4107C24.2455 15.567 24.3333 15.779 24.3333 16V18.5H26V16C26 15.337 25.7366 14.7011 25.2678 14.2322C24.7989 13.7634 24.163 13.5 23.5 13.5ZM19.3333 16.8333C19.3333 16.1741 19.1378 15.5296 18.7716 14.9814C18.4053 14.4333 17.8847 14.006 17.2756 13.7537C16.6665 13.5014 15.9963 13.4354 15.3497 13.5641C14.7031 13.6927 14.1092 14.0101 13.643 14.4763C13.1768 14.9425 12.8593 15.5364 12.7307 16.183C12.6021 16.8296 12.6681 17.4999 12.9204 18.1089C13.1727 18.718 13.5999 19.2386 14.1481 19.6049C14.6963 19.9712 15.3407 20.1667 16 20.1667C16.8841 20.1667 17.7319 19.8155 18.357 19.1904C18.9821 18.5652 19.3333 17.7174 19.3333 16.8333ZM17.6667 16.8333C17.6667 17.163 17.5689 17.4852 17.3858 17.7593C17.2026 18.0334 16.9423 18.247 16.6378 18.3731C16.3333 18.4993 15.9982 18.5323 15.6748 18.468C15.3515 18.4037 15.0546 18.2449 14.8215 18.0118C14.5884 17.7788 14.4297 17.4818 14.3654 17.1585C14.301 16.8352 14.3341 16.5001 14.4602 16.1955C14.5863 15.891 14.8 15.6307 15.074 15.4476C15.3481 15.2644 15.6704 15.1667 16 15.1667C16.442 15.1667 16.8659 15.3423 17.1785 15.6548C17.4911 15.9674 17.6667 16.3913 17.6667 16.8333ZM21 23.5C21 22.837 20.7366 22.2011 20.2678 21.7322C19.7989 21.2634 19.163 21 18.5 21H13.5C12.837 21 12.2011 21.2634 11.7322 21.7322C11.2634 22.2011 11 22.837 11 23.5V26H12.6667V23.5C12.6667 23.279 12.7545 23.067 12.9107 22.9107C13.067 22.7545 13.279 22.6667 13.5 22.6667H18.5C18.721 22.6667 18.933 22.7545 19.0893 22.9107C19.2455 23.067 19.3333 23.279 19.3333 23.5V26H21V23.5ZM24.3333 9.33334C24.3333 8.67406 24.1378 8.0296 23.7716 7.48143C23.4053 6.93327 22.8847 6.50603 22.2756 6.25374C21.6665 6.00144 20.9963 5.93543 20.3497 6.06405C19.7031 6.19267 19.1092 6.51014 18.643 6.97631C18.1768 7.44249 17.8593 8.03643 17.7307 8.68303C17.6021 9.32964 17.6681 9.99986 17.9204 10.6089C18.1727 11.218 18.5999 11.7386 19.1481 12.1049C19.6963 12.4712 20.3407 12.6667 21 12.6667C21.8841 12.6667 22.7319 12.3155 23.357 11.6904C23.9821 11.0652 24.3333 10.2174 24.3333 9.33334ZM22.6667 9.33334C22.6667 9.66297 22.5689 9.9852 22.3858 10.2593C22.2026 10.5334 21.9423 10.747 21.6378 10.8731C21.3333 10.9993 20.9982 11.0323 20.6748 10.968C20.3515 10.9037 20.0546 10.7449 19.8215 10.5118C19.5884 10.2788 19.4297 9.98179 19.3654 9.65849C19.301 9.33518 19.3341 9.00007 19.4602 8.69553C19.5863 8.39099 19.8 8.13069 20.074 7.94755C20.3481 7.76442 20.6704 7.66667 21 7.66667C21.442 7.66667 21.8659 7.84226 22.1785 8.15482C22.4911 8.46738 22.6667 8.89131 22.6667 9.33334ZM14.3333 9.33334C14.3333 8.67406 14.1378 8.0296 13.7716 7.48143C13.4053 6.93327 12.8847 6.50603 12.2756 6.25374C11.6665 6.00144 10.9963 5.93543 10.3497 6.06405C9.7031 6.19267 9.10915 6.51014 8.64298 6.97631C8.1768 7.44249 7.85933 8.03643 7.73072 8.68303C7.6021 9.32964 7.66811 9.99986 7.9204 10.6089C8.17269 11.218 8.59994 11.7386 9.1481 12.1049C9.69626 12.4712 10.3407 12.6667 11 12.6667C11.8841 12.6667 12.7319 12.3155 13.357 11.6904C13.9821 11.0652 14.3333 10.2174 14.3333 9.33334ZM12.6667 9.33334C12.6667 9.66297 12.5689 9.9852 12.3858 10.2593C12.2026 10.5334 11.9423 10.747 11.6378 10.8731C11.3333 10.9993 10.9982 11.0323 10.6748 10.968C10.3515 10.9037 10.0546 10.7449 9.82149 10.5118C9.5884 10.2788 9.42967 9.98179 9.36536 9.65849C9.30105 9.33518 9.33405 9.00007 9.4602 8.69553C9.58635 8.39099 9.79997 8.13069 10.074 7.94755C10.3481 7.76442 10.6704 7.66667 11 7.66667C11.442 7.66667 11.866 7.84226 12.1785 8.15482C12.4911 8.46738 12.6667 8.89131 12.6667 9.33334Z" fill="#60A5FA"/>
</svg>
