<svg width="167" height="167" viewBox="0 0 167 167" fill="none" xmlns="http://www.w3.org/2000/svg">
<path fill-rule="evenodd" clip-rule="evenodd" d="M63.27 10.0023C61.2406 11.7317 60.2259 12.5965 59.1422 13.3228C56.658 14.9879 53.8681 16.1435 50.9342 16.7227C49.6543 16.9754 48.3253 17.0814 45.6673 17.2935C38.9891 17.8265 35.65 18.0929 32.8642 19.0769C26.4209 21.3528 21.3528 26.4209 19.0769 32.8642C18.0929 35.65 17.8265 38.9891 17.2935 45.6673C17.0814 48.3253 16.9754 49.6543 16.7227 50.9342C16.1435 53.8681 14.9879 56.658 13.3228 59.1422C12.5965 60.2259 11.7317 61.2406 10.0023 63.27C5.65695 68.369 3.4842 70.9186 2.21013 73.5842C-0.73671 79.7496 -0.73671 86.9171 2.21013 93.0824C3.48421 95.7481 5.6569 98.2976 10.0023 103.397C11.7315 105.426 12.5965 106.441 13.3228 107.524C14.9879 110.009 16.1435 112.799 16.7227 115.732C16.9754 117.012 17.0814 118.341 17.2935 120.999C17.8265 127.678 18.0929 131.017 19.0769 133.802C21.3528 140.246 26.4209 145.314 32.8642 147.59C35.65 148.574 38.9891 148.84 45.6673 149.373C48.3253 149.585 49.6543 149.691 50.9342 149.944C53.8681 150.523 56.658 151.679 59.1422 153.344C60.2259 154.07 61.2406 154.935 63.27 156.664C68.3691 161.01 70.9186 163.182 73.5842 164.457C79.7496 167.403 86.9171 167.403 93.0824 164.457C95.7481 163.182 98.2976 161.01 103.397 156.664C105.426 154.935 106.441 154.07 107.524 153.344C110.009 151.679 112.799 150.523 115.732 149.944C117.012 149.691 118.341 149.585 120.999 149.373C127.678 148.84 131.017 148.574 133.802 147.59C140.246 145.314 145.314 140.246 147.59 133.802C148.574 131.017 148.84 127.678 149.373 120.999C149.585 118.341 149.691 117.012 149.944 115.732C150.523 112.799 151.679 110.009 153.344 107.524C154.07 106.441 154.935 105.426 156.664 103.397C161.01 98.2976 163.182 95.7481 164.457 93.0824C167.403 86.9171 167.403 79.7496 164.457 73.5842C163.182 70.9186 161.01 68.3691 156.664 63.27C154.935 61.2406 154.07 60.2259 153.344 59.1422C151.679 56.658 150.523 53.8681 149.944 50.9342C149.691 49.6543 149.585 48.3253 149.373 45.6673C148.84 38.9891 148.574 35.65 147.59 32.8642C145.314 26.4209 140.246 21.3528 133.802 19.0769C131.017 18.0929 127.678 17.8265 120.999 17.2935C118.341 17.0814 117.012 16.9754 115.732 16.7227C112.799 16.1435 110.009 14.9879 107.524 13.3228C106.441 12.5965 105.426 11.7317 103.397 10.0023C98.2976 5.6569 95.7481 3.48421 93.0824 2.21013C86.9171 -0.73671 79.7496 -0.73671 73.5842 2.21013C70.9186 3.4842 68.369 5.65694 63.27 10.0023ZM119.779 65.5261C122.428 62.8775 122.428 58.5833 119.779 55.9347C117.13 53.2861 112.836 53.2861 110.188 55.9347L69.7689 96.3534L56.4788 83.0634C53.8302 80.4148 49.536 80.4148 46.8874 83.0634C44.2388 85.712 44.2388 90.0062 46.8874 92.6548L64.9732 110.741C67.6218 113.389 71.916 113.389 74.5646 110.741L119.779 65.5261Z" fill="#60A5FA"/>
</svg>
