<svg width="16" height="16" viewBox="0 0 16 16" fill="none" xmlns="http://www.w3.org/2000/svg">
<path d="M2.93305 13.0671H13.0671C13.5271 13.0671 13.9236 12.7421 14.0141 12.2906L15.4801 4.96061C15.6551 4.08311 14.6466 3.45961 13.9401 4.00861L11.9226 5.57811C11.7267 5.73046 11.4796 5.80154 11.2327 5.77659C10.9858 5.75164 10.758 5.63257 10.5966 5.44411L8.73305 3.27061C8.34805 2.82061 7.65205 2.82061 7.26655 3.27061L5.40355 5.44411C5.06855 5.83561 4.48455 5.89411 4.07755 5.57811L2.06005 4.00861C1.35355 3.45911 0.345054 4.08311 0.520054 4.96061L1.98605 12.2906C2.07655 12.7421 2.47305 13.0671 2.93305 13.0671Z" fill="#60A5FA"/>
</svg>
