<svg width="24" height="24" viewBox="0 0 24 24" fill="none" xmlns="http://www.w3.org/2000/svg">
<path d="M21.9998 2.90479C21.9996 2.8763 21.9983 2.84788 21.9955 2.81958C21.9941 2.80515 21.9915 2.79109 21.9893 2.77685C21.9871 2.76182 21.9854 2.74667 21.9824 2.73176C21.9793 2.71564 21.9748 2.7 21.9708 2.68418C21.9676 2.67127 21.9647 2.6583 21.9609 2.64558C21.9562 2.62994 21.9504 2.61485 21.9448 2.59958C21.9402 2.58691 21.9361 2.57412 21.931 2.56164C21.9249 2.54709 21.9179 2.53309 21.9112 2.51891C21.9052 2.5063 21.8996 2.49352 21.8929 2.48115C21.8854 2.46709 21.8768 2.45364 21.8686 2.44006C21.8615 2.4283 21.8549 2.41636 21.8473 2.40491C21.8367 2.38909 21.825 2.37412 21.8135 2.35897C21.807 2.35048 21.8012 2.3417 21.7945 2.33345C21.7562 2.2867 21.7133 2.24387 21.6665 2.20558C21.6586 2.19909 21.6502 2.19352 21.6422 2.18733C21.6267 2.17552 21.6113 2.16358 21.5951 2.15273C21.584 2.14533 21.5725 2.13897 21.5612 2.13212C21.5472 2.12358 21.5333 2.11479 21.5187 2.10703C21.507 2.10073 21.4948 2.09539 21.4828 2.0897C21.4679 2.08261 21.4533 2.07527 21.4381 2.06897C21.4265 2.06418 21.4146 2.06036 21.4028 2.05612C21.3867 2.05018 21.3707 2.04406 21.3541 2.03903C21.3426 2.03558 21.331 2.03309 21.3194 2.03012C21.3022 2.0257 21.2853 2.02097 21.2678 2.01752C21.2551 2.01503 21.2423 2.01364 21.2295 2.0117C21.213 2.00915 21.1967 2.00618 21.1798 2.00455C21.1592 2.00255 21.1385 2.00206 21.1179 2.00139C21.1088 2.00115 21.1001 2 21.091 2H18.2207C17.7187 2 17.3116 2.40703 17.3116 2.90909C17.3116 3.41115 17.7187 3.81818 18.2207 3.81818H18.8964L17.5268 5.18776C16.4695 4.39212 15.1557 3.91994 13.7336 3.91994C12.7658 3.91994 11.8484 4.13885 11.0275 4.52927C10.2067 4.13885 9.28921 3.91994 8.32139 3.91994C4.83576 3.91988 2 6.7557 2 10.2413C2 13.4182 4.35582 16.0548 7.41212 16.497V17.6786H6.29164C5.78958 17.6786 5.38255 18.0856 5.38255 18.5877C5.38255 19.0898 5.78958 19.4968 6.29164 19.4968H7.41212V20.6173C7.41212 21.1194 7.81915 21.5264 8.32121 21.5264C8.82333 21.5264 9.2303 21.1193 9.2303 20.6173V19.4968H10.3508C10.8528 19.4968 11.2599 19.0898 11.2599 18.5877C11.2599 18.0856 10.8528 17.6786 10.3508 17.6786H9.2303V16.497C9.85325 16.4069 10.4591 16.2236 11.0275 15.9532C11.8483 16.3436 12.7658 16.5625 13.7336 16.5625C17.2192 16.5625 20.0549 13.7268 20.0549 10.2412C20.0549 8.832 19.5913 7.52915 18.8087 6.47691L20.1818 5.10382V5.77933C20.1818 6.28139 20.5888 6.68842 21.0909 6.68842C21.593 6.68842 22 6.28139 22 5.77933V2.90903C22 2.90758 21.9998 2.90618 21.9998 2.90479ZM12.8244 10.2413C12.8244 11.7094 12.118 13.0154 11.0274 13.838C9.93679 13.0154 9.23036 11.7094 9.23036 10.2413C9.23036 8.77309 9.93679 7.46709 11.0274 6.64448C12.118 7.46709 12.8244 8.77315 12.8244 10.2413ZM3.81818 10.2413C3.81818 7.75818 5.83824 5.73806 8.32133 5.73806C8.62667 5.73806 8.92491 5.76891 9.21339 5.82715C8.09982 6.96727 7.41224 8.52539 7.41224 10.2413C7.41224 11.9572 8.09976 13.5152 9.21339 14.6553C8.92491 14.7135 8.62667 14.7444 8.32133 14.7444C5.83824 14.7444 3.81818 12.7243 3.81818 10.2413ZM13.7335 14.7444C13.4282 14.7444 13.1299 14.7135 12.8415 14.6553C13.9551 13.5152 14.6426 11.9572 14.6426 10.2413C14.6426 8.52539 13.9551 6.96727 12.8415 5.82715C13.1351 5.76785 13.4339 5.73801 13.7335 5.73806C16.2165 5.73806 18.2367 7.75818 18.2367 10.2413C18.2367 12.7243 16.2166 14.7444 13.7335 14.7444Z" fill="#606060"/>
</svg>
