<svg width="56" height="56" viewBox="0 0 56 56" fill="none" xmlns="http://www.w3.org/2000/svg">
<rect x="0.5" y="0.5" width="55" height="55" rx="27.5" fill="#121212" fill-opacity="0.24"/>
<rect x="0.5" y="0.5" width="55" height="55" rx="27.5" stroke="#60A5FA"/>
<path d="M20.9166 28.0003C20.9166 26.6791 21.2806 25.4414 21.913 24.3817V19.8865H17.4178C15.6337 22.2036 14.6666 25.0275 14.6666 28.0003C14.6666 30.9731 15.6337 33.797 17.4178 36.1141H21.913V31.6189C21.2806 30.5591 20.9166 29.3215 20.9166 28.0003Z" fill="#FBBD00"/>
<path d="M28 35.0832L24.875 38.2082L28 41.3332C30.9729 41.3332 33.7967 40.3661 36.1138 38.582V34.0916H31.6234C30.5544 34.7262 29.3115 35.0832 28 35.0832Z" fill="#0F9D58"/>
<path d="M21.9135 31.6189L17.4183 36.1141C17.7743 36.5766 18.1598 37.0156 18.5724 37.4284C21.0907 39.9467 24.439 41.3336 28.0005 41.3336V35.0836C25.4159 35.0836 23.1506 33.692 21.9135 31.6189Z" fill="#31AA52"/>
<path d="M41.3333 28.0001C41.3334 27.19 41.2604 26.3816 41.115 25.5847L40.9978 24.9441H28V31.1941H34.3256C33.7203 32.3985 32.7826 33.4041 31.6233 34.0919L36.1137 38.5823C36.5763 38.2263 37.0153 37.8409 37.4281 37.4283C39.9464 34.9099 41.3333 31.5616 41.3333 28.0001Z" fill="#3C79E6"/>
<path d="M33.0087 22.9914L33.5611 23.5438L37.9805 19.1244L37.4281 18.572C34.9098 16.0537 31.5615 14.6667 28 14.6667L24.875 17.7917L28 20.9167C29.892 20.9167 31.6708 21.6535 33.0087 22.9914Z" fill="#CF2D48"/>
<path d="M27.9994 20.9167V14.6667C24.438 14.6667 21.0897 16.0537 18.5713 18.572C18.1587 18.9847 17.7732 19.4237 17.4172 19.8863L21.9124 24.3815C23.1496 22.3084 25.4148 20.9167 27.9994 20.9167Z" fill="#EB4132"/>
</svg>
