<svg width="24" height="24" viewBox="0 0 24 24" fill="none" xmlns="http://www.w3.org/2000/svg">
<path d="M19.19 3.43727C19.0926 3.22595 18.9179 3.06001 18.7018 2.97364C18.6027 2.93455 16.2182 2 12 2C7.78182 2 5.40545 2.93182 5.3 2.97364C5.07091 3.06182 4.91909 3.25455 4.80182 3.45818C4.68818 3.72364 2 10.07 2 19.6918C2 20.0636 2.22636 20.3982 2.57091 20.5364C2.52636 20.5191 3.63545 20.9436 4.72818 21.0909C4.95403 21.0911 5.17187 21.0073 5.33928 20.8557C5.50669 20.7041 5.61168 20.4956 5.6338 20.2709C5.65593 20.0461 5.5936 19.8212 5.45896 19.6399C5.32432 19.4585 5.12701 19.3338 4.90545 19.29C4.45545 19.2 4.09273 19.1082 3.82273 19.0318C3.87727 15.0218 4.42 11.6191 5 9.08091C5.68455 15.7027 7.43636 19.8709 7.52818 20.0855C7.64545 20.3609 7.89182 20.56 8.18545 20.6182C8.28182 20.6373 10.5936 21.0909 14.7273 21.0909C18.9445 21.0909 21.3291 20.1564 21.4291 20.1173C21.7736 19.9791 22 19.6445 22 19.2727C22 9.63818 19.3036 3.68545 19.1891 3.43727H19.19ZM14.7282 19.2727C11.8464 19.2727 9.87818 19.0409 9.02364 18.9145C8.44636 17.36 6.65273 11.9464 6.55091 4.48C7.43545 4.23182 9.30909 3.81818 12.0009 3.81818C14.9636 3.81818 16.9345 4.31818 17.6864 4.54818C18.2273 5.89091 20.0755 11.0191 20.1782 18.6109C19.2936 18.8591 17.42 19.2727 14.7282 19.2727ZM17.4555 14.7273C17.6966 14.7273 17.9278 14.8231 18.0983 14.9935C18.2688 15.164 18.3645 15.3953 18.3645 15.6364C18.3645 15.8775 18.2688 16.1087 18.0983 16.2792C17.9278 16.4497 17.6966 16.5455 17.4555 16.5455H11.0918C10.8507 16.5455 10.6195 16.4497 10.449 16.2792C10.2785 16.1087 10.1827 15.8775 10.1827 15.6364C10.1827 15.3953 10.2785 15.164 10.449 14.9935C10.6195 14.8231 10.8507 14.7273 11.0918 14.7273H17.4555ZM10.3573 12.9091C10.1162 12.9091 9.88494 12.8133 9.71445 12.6428C9.54396 12.4723 9.44818 12.2411 9.44818 12C9.44818 11.7589 9.54396 11.5277 9.71445 11.3572C9.88494 11.1867 10.1162 11.0909 10.3573 11.0909H16.7209C16.962 11.0909 17.1932 11.1867 17.3637 11.3572C17.5342 11.5277 17.63 11.7589 17.63 12C17.63 12.2411 17.5342 12.4723 17.3637 12.6428C17.1932 12.8133 16.962 12.9091 16.7209 12.9091H10.3573ZM9.72818 9.27273C9.48708 9.27273 9.25585 9.17695 9.08536 9.00646C8.91487 8.83597 8.81909 8.60474 8.81909 8.36364C8.81909 8.12253 8.91487 7.8913 9.08536 7.72081C9.25585 7.55032 9.48708 7.45455 9.72818 7.45455H16.0918C16.3329 7.45455 16.5642 7.55032 16.7346 7.72081C16.9051 7.8913 17.0009 8.12253 17.0009 8.36364C17.0009 8.60474 16.9051 8.83597 16.7346 9.00646C16.5642 9.17695 16.3329 9.27273 16.0918 9.27273H9.72818Z" fill="#FDFDFD"/>
</svg>
