<svg width="24" height="24" viewBox="0 0 24 24" fill="none" xmlns="http://www.w3.org/2000/svg">
<path d="M19.9842 7.05975C19.9226 6.92872 19.8297 6.81492 19.7135 6.72847L19.3664 6.471V4.22935C19.3664 3.99629 19.2739 3.77279 19.1091 3.60799C18.9443 3.4432 18.7208 3.35062 18.4877 3.35062C18.2546 3.35062 18.0311 3.4432 17.8663 3.60799C17.7015 3.77279 17.609 3.99629 17.609 4.22935V5.19596C15.2408 3.51582 12.8656 2 12 2C10.8585 2 7.17575 4.57206 4.28647 6.72935C4.1696 6.81722 4.07557 6.93234 4.01406 7.0659C3.97276 7.15554 3 9.31722 3 13.725C3 15.6274 3.1775 18.4438 3.37961 19.7513C3.40493 19.9149 3.47593 20.068 3.58445 20.193C3.69296 20.318 3.83457 20.4098 3.99297 20.4578C4.11072 20.4938 6.93322 21.3322 12 21.3322C17.0668 21.3322 19.8884 20.493 20.0053 20.4578C20.1635 20.4096 20.3049 20.3178 20.4133 20.1928C20.5216 20.0678 20.5925 19.9148 20.6178 19.7513C20.8207 18.435 21 15.6186 21 13.725C21 9.27944 20.0246 7.14938 19.9833 7.06063L19.9842 7.05975ZM10.1687 19.5343V15.9552C10.1687 14.891 10.9912 14.0255 12.0009 14.0255C13.0105 14.0255 13.833 14.891 13.833 15.9552V19.5343C12.6122 19.5888 11.3896 19.5888 10.1687 19.5343ZM18.9578 18.9095C18.3392 19.0492 17.1986 19.2671 15.5905 19.4156V15.9552C15.5905 13.9218 13.9807 12.268 12.0009 12.268C10.0211 12.268 8.41125 13.9218 8.41125 15.9552V19.4156C6.80316 19.268 5.66169 19.0492 5.04218 18.9095C4.88576 17.5395 4.75835 15.2786 4.75835 13.7241C4.75835 10.4517 5.33216 8.56151 5.53866 7.98858C8.12039 6.07206 11.2127 3.99033 12 3.76714C12.7847 3.99385 15.8796 6.07557 18.4657 7.99033C18.6722 8.56063 19.2443 10.4315 19.2443 13.7241C19.2443 15.2733 19.1151 17.5351 18.9578 18.9095Z" fill="#F9FAFB"/>
</svg>
