<svg width="77" height="92" viewBox="0 0 77 92" fill="none" xmlns="http://www.w3.org/2000/svg">
<path d="M57.3749 53.55C57.3749 54.5645 56.9719 55.5374 56.2546 56.2547C55.5373 56.972 54.5644 57.375 53.5499 57.375H22.95C21.9355 57.375 20.9626 56.972 20.2453 56.2547C19.528 55.5374 19.125 54.5645 19.125 53.55C19.125 52.5356 19.528 51.5627 20.2453 50.8453C20.9626 50.128 21.9355 49.725 22.95 49.725H53.5499C54.5644 49.725 55.5373 50.128 56.2546 50.8453C56.9719 51.5627 57.3749 52.5356 57.3749 53.55ZM42.0749 65.025H22.95C21.9355 65.025 20.9626 65.428 20.2453 66.1453C19.528 66.8626 19.125 67.8356 19.125 68.85C19.125 69.8645 19.528 70.8374 20.2453 71.5547C20.9626 72.272 21.9355 72.675 22.95 72.675H42.0749C43.0894 72.675 44.0623 72.272 44.7796 71.5547C45.497 70.8374 45.8999 69.8645 45.8999 68.85C45.8999 67.8356 45.497 66.8626 44.7796 66.1453C44.0623 65.428 43.0894 65.025 42.0749 65.025ZM76.4999 40.1052V72.675C76.4938 77.7454 74.4769 82.6064 70.8916 86.1917C67.3063 89.777 62.4453 91.7939 57.3749 91.8H19.125C14.0546 91.7939 9.1936 89.777 5.60828 86.1917C2.02297 82.6064 0.00607355 77.7454 0 72.675V19.1251C0.00607355 14.0547 2.02297 9.19369 5.60828 5.60837C9.1936 2.02306 14.0546 0.00616171 19.125 8.81611e-05H36.3948C39.9124 -0.00896532 43.3968 0.67936 46.6467 2.02527C49.8965 3.37117 52.8474 5.34796 55.3286 7.84133L68.6548 21.1753C71.1496 23.6548 73.1277 26.6047 74.4743 29.8541C75.8209 33.1035 76.5094 36.5878 76.4999 40.1052ZM49.92 13.2499C48.7162 12.0839 47.3647 11.0808 45.8999 10.2664V26.7751C45.8999 27.7895 46.3029 28.7624 47.0203 29.4797C47.7376 30.1971 48.7105 30.6 49.7249 30.6H66.2336C65.4187 29.1358 64.4143 27.7854 63.2463 26.5838L49.92 13.2499ZM68.8499 40.1052C68.8499 39.474 68.7275 38.8697 68.6701 38.25H49.7249C46.6816 38.25 43.7629 37.0411 41.6109 34.8891C39.4589 32.7371 38.25 29.8184 38.25 26.7751V7.82985C37.6303 7.77248 37.0221 7.65008 36.3948 7.65008H19.125C16.0816 7.65008 13.1629 8.85905 11.0109 11.011C8.85896 13.163 7.64999 16.0817 7.64999 19.1251V72.675C7.64999 75.7184 8.85896 78.6371 11.0109 80.789C13.1629 82.941 16.0816 84.15 19.125 84.15H57.3749C60.4183 84.15 63.337 82.941 65.489 80.789C67.6409 78.6371 68.8499 75.7184 68.8499 72.675V40.1052Z" fill="#60A5FA"/>
</svg>
