<svg width="147" height="147" viewBox="0 0 147 147" fill="none" xmlns="http://www.w3.org/2000/svg">
<rect width="147" height="147" rx="73.5" fill="#60A5FA" fill-opacity="0.2"/>
<rect x="9" y="9" width="129" height="129" rx="64.5" fill="#60A5FA"/>
<path fill-rule="evenodd" clip-rule="evenodd" d="M51.5 73.5C51.5 67.1487 56.6487 62 63 62C67.3611 62 71.1525 64.4274 73.1016 68H91C92.933 68 94.5 69.567 94.5 71.5V76.5C94.5 77.3284 93.8284 78 93 78H88.5V81.5C88.5 82.3284 87.8284 83 87 83H82C81.1716 83 80.5 82.3284 80.5 81.5V78H73.5858C71.8348 82.1137 67.7561 85 63 85C56.6487 85 51.5 79.8513 51.5 73.5ZM63 69.5C60.7909 69.5 59 71.2909 59 73.5C59 75.7091 60.7909 77.5 63 77.5C65.2091 77.5 67 75.7091 67 73.5C67 71.2909 65.2091 69.5 63 69.5Z" fill="#F1F5F9"/>
</svg>
