<svg width="32" height="32" viewBox="0 0 32 32" fill="none" xmlns="http://www.w3.org/2000/svg">
<rect x="0.5" y="0.5" width="31" height="31" rx="7.5" fill="#EFF6FF"/>
<rect x="0.5" y="0.5" width="31" height="31" rx="7.5" stroke="#E6E6E6"/>
<path d="M16 17.75C16.9665 17.75 17.75 16.9665 17.75 16C17.75 15.0335 16.9665 14.25 16 14.25C15.0335 14.25 14.25 15.0335 14.25 16C14.25 16.9665 15.0335 17.75 16 17.75Z" fill="#60A5FA"/>
<path d="M9 17.75C9.9665 17.75 10.75 16.9665 10.75 16C10.75 15.0335 9.9665 14.25 9 14.25C8.0335 14.25 7.25 15.0335 7.25 16C7.25 16.9665 8.0335 17.75 9 17.75Z" fill="#60A5FA"/>
<path d="M23 17.75C23.9665 17.75 24.75 16.9665 24.75 16C24.75 15.0335 23.9665 14.25 23 14.25C22.0335 14.25 21.25 15.0335 21.25 16C21.25 16.9665 22.0335 17.75 23 17.75Z" fill="#60A5FA"/>
</svg>
