<svg width="32" height="32" viewBox="0 0 32 32" fill="none" xmlns="http://www.w3.org/2000/svg">
<rect width="32" height="32" rx="6" fill="#60A5FA"/>
<path d="M25.8314 17.52L24.0845 11.2544C23.5725 9.41881 22.4596 7.80653 20.9229 6.67383C19.3861 5.54113 17.5137 4.953 15.6031 5.00294C13.6926 5.05287 11.8536 5.738 10.3785 6.94942C8.90345 8.16084 7.87689 9.82903 7.46203 11.6888L6.10954 17.7519C5.96015 18.4218 5.9636 19.1167 6.11965 19.7851C6.2757 20.4535 6.58035 21.0785 7.01112 21.6139C7.4419 22.1492 7.98778 22.5813 8.60849 22.8782C9.22919 23.1751 9.90885 23.3292 10.5973 23.3292H11.6216C11.8326 24.3651 12.3964 25.2965 13.2175 25.9655C14.0385 26.6345 15.0664 27 16.1268 27C17.1872 27 18.215 26.6345 19.0361 25.9655C19.8572 25.2965 20.421 24.3651 20.632 23.3292H21.4025C22.1112 23.3292 22.8103 23.1659 23.4453 22.852C24.0802 22.5381 24.6337 22.0822 25.0626 21.5197C25.4915 20.9573 25.7841 20.3036 25.9177 19.6098C26.0512 18.9159 26.0211 18.2007 25.8314 17.52ZM16.1268 25.1623C15.5583 25.1599 15.0045 24.9826 14.541 24.6544C14.0776 24.3263 13.7271 23.8634 13.5377 23.3292H18.7159C18.5264 23.8634 18.176 24.3263 17.7125 24.6544C17.2491 24.9826 16.6952 25.1599 16.1268 25.1623ZM23.5981 20.4099C23.3419 20.7487 23.01 21.0233 22.6287 21.2119C22.2474 21.4004 21.8272 21.4977 21.4016 21.496H10.5973C10.1843 21.496 9.77654 21.4034 9.40419 21.2253C9.03184 21.0471 8.70438 20.7878 8.44598 20.4666C8.18757 20.1454 8.00483 19.7705 7.91123 19.3695C7.81764 18.9684 7.81557 18.5516 7.9052 18.1497L9.25677 12.0857C9.58257 10.6249 10.3889 9.31457 11.5475 8.36304C12.7061 7.4115 14.1506 6.87337 15.6512 6.83418C17.1519 6.79499 18.6226 7.25699 19.8296 8.14674C21.0366 9.0365 21.9107 10.3029 22.3127 11.7447L24.0597 18.0104C24.1751 18.4186 24.1935 18.848 24.1134 19.2645C24.0332 19.681 23.8568 20.0732 23.5981 20.4099Z" fill="#FDFDFD"/>
</svg>
