<svg width="56" height="56" viewBox="0 0 56 56" fill="none" xmlns="http://www.w3.org/2000/svg">
<rect width="56" height="56" rx="28" fill="#60A5FA"/>
<path d="M37.8314 29.5205L36.0845 23.2549C35.5725 21.4193 34.4596 19.807 32.9229 18.6743C31.3861 17.5416 29.5137 16.9535 27.6031 17.0034C25.6926 17.0534 23.8536 17.7385 22.3785 18.9499C20.9034 20.1613 19.8769 21.8295 19.462 23.6893L18.1095 29.7524C17.9601 30.4223 17.9636 31.1172 18.1197 31.7856C18.2757 32.454 18.5804 33.079 19.0111 33.6144C19.4419 34.1497 19.9878 34.5818 20.6085 34.8787C21.2292 35.1755 21.9089 35.3297 22.5973 35.3296H23.6216C23.8326 36.3656 24.3964 37.297 25.2175 37.966C26.0385 38.635 27.0664 39.0005 28.1268 39.0005C29.1872 39.0005 30.215 38.635 31.0361 37.966C31.8572 37.297 32.421 36.3656 32.632 35.3296H33.4025C34.1112 35.3297 34.8103 35.1664 35.4453 34.8525C36.0802 34.5386 36.6337 34.0827 37.0626 33.5202C37.4915 32.9578 37.7841 32.3041 37.9177 31.6103C38.0512 30.9164 38.0211 30.2012 37.8314 29.5205ZM28.1268 37.1628C27.5583 37.1604 27.0045 36.983 26.541 36.6549C26.0776 36.3268 25.7271 35.8639 25.5377 35.3296H30.7159C30.5264 35.8639 30.176 36.3268 29.7125 36.6549C29.2491 36.983 28.6952 37.1604 28.1268 37.1628ZM35.5981 32.4104C35.3419 32.7492 35.01 33.0238 34.6287 33.2124C34.2474 33.4009 33.8272 33.4982 33.4016 33.4965H22.5973C22.1843 33.4965 21.7765 33.4039 21.4042 33.2258C21.0318 33.0476 20.7044 32.7883 20.446 32.4671C20.1876 32.1459 20.0048 31.771 19.9112 31.37C19.8176 30.9689 19.8156 30.5521 19.9052 30.1502L21.2568 24.0862C21.5826 22.6254 22.3889 21.3151 23.5475 20.3635C24.7061 19.412 26.1506 18.8739 27.6512 18.8347C29.1519 18.7955 30.6226 19.2575 31.8296 20.1472C33.0366 21.037 33.9107 22.3034 34.3127 23.7452L36.0597 30.0108C36.1751 30.4191 36.1935 30.8485 36.1134 31.265C36.0332 31.6815 35.8568 32.0737 35.5981 32.4104Z" fill="#FDFDFD"/>
</svg>
