<svg width="32" height="32" viewBox="0 0 32 32" fill="none" xmlns="http://www.w3.org/2000/svg">
<rect x="0.5" y="0.5" width="31" height="31" rx="7.5" fill="#FDFDFD"/>
<rect x="0.5" y="0.5" width="31" height="31" rx="7.5" stroke="#CEE3FD"/>
<path d="M23.5 15.1667H19.3333C17.955 15.1667 16.8333 16.2883 16.8333 17.6667V23.5C16.8333 24.8783 17.955 26 19.3333 26H23.5C24.8783 26 26 24.8783 26 23.5V17.6667C26 16.2883 24.8783 15.1667 23.5 15.1667ZM24.3333 23.5C24.3333 23.9592 23.96 24.3333 23.5 24.3333H19.3333C18.8733 24.3333 18.5 23.9592 18.5 23.5V17.6667C18.5 17.2075 18.8733 16.8333 19.3333 16.8333H23.5C23.96 16.8333 24.3333 17.2075 24.3333 17.6667V23.5ZM23.5 19.3308C23.5 19.5518 23.4122 19.7638 23.2559 19.9201C23.0996 20.0764 22.8877 20.1642 22.6667 20.1642H20.1667C19.9457 20.1642 19.7337 20.0764 19.5774 19.9201C19.4211 19.7638 19.3333 19.5518 19.3333 19.3308C19.3333 19.1098 19.4211 18.8979 19.5774 18.7416C19.7337 18.5853 19.9457 18.4975 20.1667 18.4975H22.6667C22.8877 18.4975 23.0996 18.5853 23.2559 18.7416C23.4122 18.8979 23.5 19.1098 23.5 19.3308ZM23.5 21.8333C23.5 22.0543 23.4122 22.2663 23.2559 22.4226C23.0996 22.5789 22.8877 22.6667 22.6667 22.6667H20.1667C19.9457 22.6667 19.7337 22.5789 19.5774 22.4226C19.4211 22.2663 19.3333 22.0543 19.3333 21.8333C19.3333 21.6123 19.4211 21.4004 19.5774 21.2441C19.7337 21.0878 19.9457 21 20.1667 21H22.6667C22.8877 21 23.0996 21.0878 23.2559 21.2441C23.4122 21.4004 23.5 21.6123 23.5 21.8333ZM13.5 16C16.2575 16 18.5 13.7575 18.5 11C18.5 8.2425 16.2575 6 13.5 6C10.7425 6 8.5 8.2425 8.5 11C8.5 13.7575 10.7425 16 13.5 16ZM13.5 7.66667C15.3383 7.66667 16.8333 9.16167 16.8333 11C16.8333 12.8383 15.3383 14.3333 13.5 14.3333C11.6617 14.3333 10.1667 12.8383 10.1667 11C10.1667 9.16167 11.6617 7.66667 13.5 7.66667ZM15.1667 18.5C15.1667 18.721 15.0789 18.933 14.9226 19.0893C14.7663 19.2455 14.5543 19.3333 14.3333 19.3333H13.5C10.2842 19.3333 7.66667 21.95 7.66667 25.1667C7.66667 25.3877 7.57887 25.5996 7.42259 25.7559C7.26631 25.9122 7.05435 26 6.83333 26C6.61232 26 6.40036 25.9122 6.24408 25.7559C6.0878 25.5996 6 25.3877 6 25.1667C6 21.0317 9.36417 17.6667 13.5 17.6667H14.3333C14.5543 17.6667 14.7663 17.7545 14.9226 17.9107C15.0789 18.067 15.1667 18.279 15.1667 18.5Z" fill="#60A5FA"/>
</svg>
