<svg width="24" height="24" viewBox="0 0 24 24" fill="none" xmlns="http://www.w3.org/2000/svg">
<path d="M12 2C6.48583 2 2 6.48583 2 12C2 17.5142 6.48583 22 12 22C17.5142 22 22 17.5142 22 12C22 6.48583 17.5142 2 12 2ZM8.66667 19.6367V17.8333C8.66667 17.3733 9.04083 17 9.5 17H14.5C14.9592 17 15.3333 17.3733 15.3333 17.8333V19.6367C14.3117 20.0842 13.185 20.3333 12 20.3333C10.815 20.3333 9.68833 20.0842 8.66667 19.6367ZM17 18.6625V17.8333C17 16.455 15.8783 15.3333 14.5 15.3333H9.5C8.12167 15.3333 7 16.455 7 17.8333V18.6625C5.96516 17.8871 5.12516 16.8813 4.54658 15.7249C3.968 14.5684 3.66673 13.2931 3.66667 12C3.66667 7.405 7.405 3.66667 12 3.66667C16.595 3.66667 20.3333 7.405 20.3333 12C20.3332 13.2931 20.0319 14.5684 19.4533 15.7248C18.8748 16.8813 18.0348 17.8871 17 18.6625ZM12 7C10.1617 7 8.66667 8.495 8.66667 10.3333C8.66667 12.1717 10.1617 13.6667 12 13.6667C13.8383 13.6667 15.3333 12.1717 15.3333 10.3333C15.3333 8.495 13.8383 7 12 7ZM12 12C11.0808 12 10.3333 11.2525 10.3333 10.3333C10.3333 9.41417 11.0808 8.66667 12 8.66667C12.9192 8.66667 13.6667 9.41417 13.6667 10.3333C13.6667 11.2525 12.9192 12 12 12Z" fill="#FDFDFD"/>
</svg>
