<svg width="32" height="32" viewBox="0 0 32 32" fill="none" xmlns="http://www.w3.org/2000/svg">
<rect x="0.5" y="0.5" width="31" height="31" rx="7.5" fill="#FDFDFD"/>
<rect x="0.5" y="0.5" width="31" height="31" rx="7.5" stroke="#CEE3FD"/>
<path d="M16 6C10.4858 6 6 10.4858 6 16C6 21.5142 10.4858 26 16 26C21.5142 26 26 21.5142 26 16C26 10.4858 21.5142 6 16 6ZM12.6667 23.6367V21.8333C12.6667 21.3733 13.0408 21 13.5 21H18.5C18.9592 21 19.3333 21.3733 19.3333 21.8333V23.6367C18.3117 24.0842 17.185 24.3333 16 24.3333C14.815 24.3333 13.6883 24.0842 12.6667 23.6367ZM21 22.6625V21.8333C21 20.455 19.8783 19.3333 18.5 19.3333H13.5C12.1217 19.3333 11 20.455 11 21.8333V22.6625C9.96516 21.8871 9.12516 20.8813 8.54658 19.7249C7.968 18.5684 7.66673 17.2931 7.66667 16C7.66667 11.405 11.405 7.66667 16 7.66667C20.595 7.66667 24.3333 11.405 24.3333 16C24.3332 17.2931 24.0319 18.5684 23.4533 19.7248C22.8748 20.8813 22.0348 21.8871 21 22.6625ZM16 11C14.1617 11 12.6667 12.495 12.6667 14.3333C12.6667 16.1717 14.1617 17.6667 16 17.6667C17.8383 17.6667 19.3333 16.1717 19.3333 14.3333C19.3333 12.495 17.8383 11 16 11ZM16 16C15.0808 16 14.3333 15.2525 14.3333 14.3333C14.3333 13.4142 15.0808 12.6667 16 12.6667C16.9192 12.6667 17.6667 13.4142 17.6667 14.3333C17.6667 15.2525 16.9192 16 16 16Z" fill="#60A5FA"/>
</svg>
