<svg width="24" height="24" viewBox="0 0 24 24" fill="none" xmlns="http://www.w3.org/2000/svg">
<path d="M17.7691 11.8735H13.7918C13.3442 11.8735 12.9149 11.6957 12.5984 11.3791C12.2819 11.0626 12.1041 10.6333 12.1041 10.1857V6.19751C12.1052 5.80931 12.0171 5.42605 11.8465 5.07735C11.6758 4.72865 11.4273 4.42386 11.1201 4.18654C10.829 3.956 10.4888 3.79546 10.1258 3.71733C9.76273 3.63919 9.3866 3.64555 9.02642 3.73591C6.98056 4.24376 5.16931 5.4347 3.89221 7.11175C2.61512 8.7888 1.94867 10.8515 2.00309 12.9588C2.05751 15.066 2.82953 17.0916 4.19148 18.7005C5.55344 20.3094 7.42374 21.4052 9.49309 21.8068C11.8198 22.2522 14.2287 21.7911 16.2265 20.5181C18.2243 19.2452 19.6598 17.2565 20.2391 14.9596C20.3298 14.5989 20.3364 14.2222 20.2584 13.8586C20.1804 13.495 20.0199 13.1542 19.7893 12.8625C19.5492 12.5557 19.2426 12.3073 18.8927 12.136C18.5428 11.9647 18.1586 11.875 17.7691 11.8735ZM18.6028 14.5469C18.2797 15.848 17.6168 17.04 16.6818 18.0009C15.7469 18.9618 14.5735 19.6571 13.2817 20.0157C11.9899 20.3744 10.626 20.3834 9.32955 20.042C8.03308 19.7006 6.85057 19.0209 5.90296 18.0725C4.95536 17.1241 4.27667 15.941 3.93631 14.6443C3.59595 13.3475 3.60613 11.9836 3.96582 10.6921C4.32551 9.40061 5.0218 8.2278 5.98346 7.29367C6.94513 6.35954 8.13766 5.6976 9.43908 5.37557C9.55042 5.34776 9.66672 5.34639 9.77868 5.3716C9.89063 5.3968 9.99513 5.44787 10.0838 5.52072C10.1885 5.60056 10.2734 5.70344 10.332 5.8214C10.3905 5.93935 10.4211 6.06921 10.4214 6.20089V10.1857C10.4214 11.081 10.777 11.9395 11.41 12.5726C12.0431 13.2056 12.9016 13.5612 13.7969 13.5612H17.7733C17.9061 13.5618 18.0371 13.5924 18.1564 13.6509C18.2756 13.7094 18.3801 13.7941 18.4619 13.8988C18.5336 13.9887 18.5836 14.094 18.6079 14.2064C18.6322 14.3189 18.631 14.4354 18.6028 14.5469Z" fill="#606060"/>
<path d="M21.9361 8.03047C21.5476 6.60217 20.7929 5.30008 19.7466 4.25306C18.7003 3.20603 17.3988 2.45036 15.9707 2.06084C15.821 2.02059 15.6667 2.00016 15.5117 2.00008C15.2887 1.99796 15.0675 2.04005 14.8609 2.12392C14.6542 2.20779 14.4663 2.33177 14.3079 2.48871C14.1494 2.64564 14.0237 2.83242 13.9379 3.03824C13.852 3.24406 13.8079 3.46485 13.8079 3.68784V7.65409C13.8079 8.32553 14.0746 8.96946 14.5494 9.44424C15.0241 9.91902 15.6681 10.1857 16.3395 10.1857H20.3218C20.5823 10.1832 20.8387 10.1207 21.0711 10.003C21.3035 9.88534 21.5056 9.71566 21.6617 9.50716C21.8179 9.29867 21.9239 9.05699 21.9715 8.80088C22.0191 8.54477 22.007 8.28114 21.9361 8.03047ZM19.8281 8.49798H16.3361C16.1123 8.49798 15.8977 8.40907 15.7394 8.25081C15.5812 8.09255 15.4923 7.87791 15.4923 7.65409L15.4855 3.69375C15.4917 3.68928 15.499 3.68665 15.5066 3.68615H15.5285C16.678 3.99931 17.7252 4.60844 18.5657 5.45278C19.4062 6.29711 20.0105 7.3471 20.3184 8.49798H19.8281Z" fill="#606060"/>
</svg>
