<svg width="108" height="108" viewBox="0 0 108 108" fill="none" xmlns="http://www.w3.org/2000/svg">
<path d="M95.7254 12.2971C93.6142 10.1893 90.7529 9.00551 87.7697 9.00551C84.7865 9.00551 81.9251 10.1893 79.8139 12.2971L54.6564 37.4546C53.2582 38.8439 52.1497 40.4969 51.3951 42.3178C50.6405 44.1387 50.2548 46.0912 50.2603 48.0623V54.0113C50.2603 55.0061 50.6555 55.9601 51.3589 56.6636C52.0624 57.367 53.0164 57.7622 54.0113 57.7622H59.9602C61.9312 57.7669 63.8835 57.3808 65.7042 56.6262C67.525 55.8717 69.1781 54.7636 70.5679 53.3661L95.7254 28.2086C100.092 24.0188 100.092 16.4869 95.7254 12.2971ZM90.4216 22.9047L65.2641 48.0623C63.8462 49.4801 61.9632 50.2603 59.9602 50.2603H57.7622V48.0623C57.7622 46.0893 58.5649 44.1538 59.9602 42.7584L85.1178 17.6009C85.8212 16.8977 86.7751 16.5027 87.7697 16.5027C88.7643 16.5027 89.7182 16.8977 90.4216 17.6009C91.1211 18.3062 91.5137 19.2594 91.5137 20.2528C91.5137 21.2462 91.1211 22.1994 90.4216 22.9047ZM54.0113 76.5169C53.0164 76.5169 52.0624 76.1217 51.3589 75.4183C50.6555 74.7148 50.2603 73.7607 50.2603 72.7659C50.2603 71.7711 50.6555 70.8171 51.3589 70.1136C52.0624 69.4102 53.0164 69.015 54.0113 69.015H65.2641C66.2589 69.015 67.2129 69.4102 67.9164 70.1136C68.6198 70.8171 69.015 71.7711 69.015 72.7659C69.015 73.7607 68.6198 74.7148 67.9164 75.4183C67.2129 76.1217 66.2589 76.5169 65.2641 76.5169H54.0113ZM84.0188 61.5131V80.2678C84.0188 90.6092 75.6054 99.0225 65.2641 99.0225H27.7547C17.4134 99.0225 9 90.6092 9 80.2678V27.7547C9 17.4134 17.4134 9 27.7547 9H61.5131C62.5079 9 63.462 9.39519 64.1654 10.0986C64.8689 10.8021 65.2641 11.7561 65.2641 12.7509C65.2641 13.7457 64.8689 14.6998 64.1654 15.4033C63.462 16.1067 62.5079 16.5019 61.5131 16.5019H27.7547C21.5506 16.5019 16.5019 21.5506 16.5019 27.7547V80.2678C16.5019 86.4719 21.5506 91.5206 27.7547 91.5206H65.2641C71.4681 91.5206 76.5169 86.4719 76.5169 80.2678V61.5131C76.5169 60.5183 76.9121 59.5643 77.6155 58.8608C78.3189 58.1574 79.273 57.7622 80.2678 57.7622C81.2626 57.7622 82.2167 58.1574 82.9201 58.8608C83.6236 59.5643 84.0188 60.5183 84.0188 61.5131ZM43.3848 52.7622L37.057 59.09C35.5516 60.6044 33.5178 61.4763 31.383 61.5224C29.2482 61.5686 27.1786 60.7855 25.6092 59.3376L23.0998 57.1658C22.3904 56.5025 21.9657 55.5901 21.9147 54.6203C21.8637 53.6505 22.1905 52.6986 22.8265 51.9647C23.4624 51.2307 24.358 50.7716 25.3252 50.6839C26.2924 50.5962 27.2559 50.8867 28.0135 51.4944L30.5979 53.7374C30.9842 54.0863 31.4531 54.0825 31.7494 53.7862L38.0773 47.4584C38.7806 46.755 39.7345 46.3599 40.7292 46.3599C41.7238 46.3599 42.6778 46.755 43.3811 47.4584C44.0844 48.1617 44.4796 49.1156 44.4796 50.1103C44.4796 51.1049 44.0882 52.0589 43.3848 52.7622ZM43.3848 34.1575L37.057 40.4854C35.5516 41.9997 33.5178 42.8716 31.383 42.9178C29.2482 42.964 27.1786 42.1808 25.6092 40.7329L23.0998 38.5611C22.3904 37.8978 21.9657 36.9855 21.9147 36.0157C21.8637 35.0458 22.1905 34.094 22.8265 33.36C23.4624 32.626 24.358 32.167 25.3252 32.0793C26.2924 31.9916 27.2559 32.2821 28.0135 32.8897L30.5979 35.1328C30.9842 35.4854 31.4531 35.4779 31.7494 35.1815L38.0773 28.8537C38.4255 28.5055 38.839 28.2292 39.294 28.0407C39.749 27.8523 40.2367 27.7553 40.7292 27.7553C41.2217 27.7553 41.7094 27.8523 42.1644 28.0407C42.6194 28.2292 43.0328 28.5055 43.3811 28.8537C43.7294 29.202 44.0056 29.6154 44.1941 30.0704C44.3825 30.5254 44.4796 31.0131 44.4796 31.5056C44.4796 31.9981 44.3825 32.4858 44.1941 32.9408C44.0056 33.3958 43.7331 33.8093 43.3848 34.1575ZM43.3848 66.2131C43.7335 66.5611 44.0101 66.9745 44.1988 67.4295C44.3875 67.8846 44.4846 68.3723 44.4846 68.865C44.4846 69.3576 44.3875 69.8454 44.1988 70.3004C44.0101 70.7555 43.7335 71.1688 43.3848 71.5169L37.057 77.8447C35.5516 79.3591 33.5178 80.231 31.383 80.2771C29.2482 80.3233 27.1786 79.5402 25.6092 78.0923L23.0998 75.9205C22.3904 75.2572 21.9657 74.3448 21.9147 73.375C21.8637 72.4052 22.1905 71.4533 22.8265 70.7193C23.4624 69.9854 24.358 69.5263 25.3252 69.4386C26.2924 69.3509 27.2559 69.6414 28.0135 70.2491L30.5979 72.4921C30.9842 72.841 31.4531 72.8372 31.7494 72.5409L38.0773 66.2131C38.4253 65.8644 38.8387 65.5878 39.2937 65.3991C39.7488 65.2104 40.2366 65.1133 40.7292 65.1133C41.2218 65.1133 41.7096 65.2104 42.1646 65.3991C42.6197 65.5878 43.0368 65.8644 43.3848 66.2131Z" fill="#60A5FA"/>
</svg>
